<svg width="24" height="24" viewBox="0 0 24 24" fill="none" xmlns="http://www.w3.org/2000/svg">
<path fill-rule="evenodd" clip-rule="evenodd" d="M12.0001 3.50049C8.96253 3.50049 6.50009 5.96292 6.50009 9.00049C6.50009 12.0381 8.96253 14.5005 12.0001 14.5005C15.0377 14.5005 17.5001 12.0381 17.5001 9.00049C17.5001 5.96292 15.0377 3.50049 12.0001 3.50049ZM5.50009 9.00049C5.50009 5.41064 8.41024 2.50049 12.0001 2.50049C15.5899 2.50049 18.5001 5.41064 18.5001 9.00049C18.5001 12.5903 15.5899 15.5005 12.0001 15.5005C8.41024 15.5005 5.50009 12.5903 5.50009 9.00049Z" fill="#292C32"/>
<path fill-rule="evenodd" clip-rule="evenodd" d="M11.7515 14.714C11.9906 14.5759 12.2964 14.6578 12.4345 14.897L15.5265 20.2524L16.7853 17.7066C16.8747 17.5257 17.0642 17.4163 17.2656 17.4293L20.0998 17.612L17.0078 12.2566C16.8697 12.0174 16.9517 11.7116 17.1908 11.5736C17.43 11.4355 17.7358 11.5174 17.8738 11.7566L21.4329 17.9211C21.5251 18.0808 21.5219 18.2783 21.4247 18.435C21.3274 18.5916 21.1518 18.682 20.9677 18.6701L17.5339 18.4486L16.0088 21.5331C15.9271 21.6984 15.761 21.8053 15.5767 21.8113C15.3924 21.8172 15.2198 21.7212 15.1276 21.5615L11.5685 15.397C11.4304 15.1578 11.5123 14.852 11.7515 14.714Z" fill="#292C32"/>
<path fill-rule="evenodd" clip-rule="evenodd" d="M6.80911 11.5736C7.04826 11.7116 7.13019 12.0174 6.99212 12.2566L3.90014 17.6121L6.73428 17.4293C6.93571 17.4163 7.12519 17.5257 7.21466 17.7066L8.47343 20.2524L11.5654 14.897C11.7035 14.6578 12.0093 14.5759 12.2484 14.714C12.4876 14.852 12.5695 15.1578 12.4314 15.397L8.87233 21.5615C8.78013 21.7212 8.60752 21.8172 8.42322 21.8113C8.23892 21.8053 8.07284 21.6985 7.99111 21.5332L6.46599 18.4487L3.03218 18.6701C2.84816 18.682 2.67255 18.5916 2.57526 18.435C2.47797 18.2783 2.47479 18.0808 2.56699 17.9212L6.1261 11.7566C6.26417 11.5174 6.56996 11.4355 6.80911 11.5736Z" fill="#292C32"/>
</svg>
