<svg width="24" height="24" viewBox="0 0 24 24" fill="none" xmlns="http://www.w3.org/2000/svg">
<path d="M8.33105 3C11.2369 3.00007 12.8672 4.54309 12.8887 4.56348C12.8887 4.56348 14.1829 6.02441 16.4961 6.02441C17.7602 6.02423 18.951 5.24978 19.6592 4.25098C19.7674 4.09987 20 4.17224 20 4.3584V13.2295C20 13.5558 19.9001 13.8733 19.7168 14.1445C19.0166 15.1814 17.7943 15.9998 16.4961 16C14.1885 16 12.8949 14.5451 12.8887 14.5381C12.8835 14.5332 11.2516 12.9747 8.33105 12.9746C6.82026 12.9746 5.71484 13.5552 4.99902 14.1162V20.4473C5.00575 20.5867 4.95779 20.7236 4.86426 20.8271C4.77065 20.9308 4.63938 20.9928 4.5 21C4.36062 20.9928 4.22935 20.9308 4.13574 20.8271C4.04221 20.7236 3.99425 20.5867 4.00098 20.4473V14.6162L4 14.6104V5.69727C4.00005 5.33009 4.13155 4.97523 4.38184 4.70605C4.97892 4.06646 6.28234 3 8.33105 3Z" fill="#292C32"/>
</svg>
