<svg width="24" height="24" viewBox="0 0 24 24" fill="none" xmlns="http://www.w3.org/2000/svg">
<path d="M14.5203 10.5049C14.5853 10.5049 14.6498 10.5181 14.7098 10.543C14.7696 10.5678 14.8241 10.6037 14.8699 10.6494C14.9628 10.7422 15.0154 10.8687 15.0154 11C15.0154 11.1312 14.9627 11.2568 14.8699 11.3496L12.3699 13.8496C12.3247 13.8966 12.2707 13.9342 12.2108 13.96C12.1507 13.9857 12.0857 13.9996 12.0203 14C11.9548 14.0008 11.8892 13.9877 11.8289 13.9619C11.7688 13.9361 11.7143 13.8976 11.6697 13.8496L9.16974 11.3496C9.07717 11.2569 9.02525 11.1311 9.02521 11C9.02521 10.8687 9.07692 10.7422 9.16974 10.6494C9.26257 10.5566 9.38905 10.5049 9.52033 10.5049C9.65139 10.5049 9.77718 10.5568 9.86994 10.6494L12.0203 12.79L14.1697 10.6494C14.2626 10.5566 14.3891 10.5049 14.5203 10.5049Z" fill="#292C32"/>
<path fill-rule="evenodd" clip-rule="evenodd" d="M11.9998 2.5C14.5194 2.5 16.936 3.50063 18.7176 5.28223C20.4992 7.06382 21.4998 9.48044 21.4998 12C21.4998 13.8789 20.9431 15.7161 19.8992 17.2783C18.8554 18.8404 17.3713 20.0573 15.6356 20.7764C13.8997 21.4954 11.9891 21.6839 10.1463 21.3174C8.30355 20.9508 6.61061 20.0463 5.28205 18.7178C3.95349 17.3892 3.04902 15.6963 2.68244 13.8535C2.31588 12.0107 2.50442 10.1002 3.22345 8.36426C3.9425 6.62855 5.15938 5.14438 6.7215 4.10059C8.28377 3.05671 10.1209 2.5 11.9998 2.5ZM15.2713 4.10059C13.7091 3.45363 11.9902 3.2844 10.3319 3.61426C8.67332 3.94416 7.14966 4.75836 5.95392 5.9541C4.75818 7.14984 3.94398 8.67349 3.61408 10.332C3.28422 11.9904 3.45345 13.7093 4.10041 15.2715C4.74754 16.8338 5.84378 18.1699 7.24982 19.1094C8.65581 20.0488 10.3089 20.5498 11.9998 20.5498C14.2674 20.5498 16.4423 19.6493 18.0457 18.0459C19.6492 16.4425 20.5496 14.2676 20.5496 12C20.5496 10.3091 20.0486 8.65599 19.1092 7.25C18.1697 5.84396 16.8336 4.74771 15.2713 4.10059Z" fill="#292C32"/>
</svg>
