<svg width="24" height="24" viewBox="0 0 24 24" fill="none" xmlns="http://www.w3.org/2000/svg">
<path d="M16.1465 16.2168C16.3417 16.0215 16.6583 16.0215 16.8535 16.2168L17.5195 16.8828L18.1465 16.2568C18.3417 16.0616 18.6583 16.0616 18.8535 16.2568C19.0485 16.4521 19.0487 16.7687 18.8535 16.9639L18.2266 17.5898L18.8936 18.2568C19.0886 18.4521 19.0888 18.7687 18.8936 18.9639C18.6983 19.1589 18.3818 19.1589 18.1865 18.9639L17.5195 18.2969L16.9033 18.9131C16.7081 19.1083 16.3916 19.1083 16.1963 18.9131C16.0012 18.7178 16.0011 18.4012 16.1963 18.2061L16.8125 17.5898L16.1465 16.9238C15.9513 16.7286 15.9514 16.4121 16.1465 16.2168Z" fill="#292C32"/>
<path fill-rule="evenodd" clip-rule="evenodd" d="M17.5 13C19.9853 13 22 15.0147 22 17.5C22 18.5622 21.6312 19.5379 21.0156 20.3076L22.9033 22.1953C23.0986 22.3906 23.0986 22.7071 22.9033 22.9023C22.7081 23.0976 22.3916 23.0976 22.1963 22.9023L20.3086 21.0146C19.5387 21.6307 18.5627 22 17.5 22C15.0147 22 13 19.9853 13 17.5C13 15.0147 15.0147 13 17.5 13ZM17.5 14C15.567 14 14 15.567 14 17.5C14 19.433 15.567 21 17.5 21C19.433 21 21 19.433 21 17.5C21 15.567 19.433 14 17.5 14Z" fill="#292C32"/>
<path d="M17.5 2C17.8978 2 18.2792 2.15815 18.5605 2.43945C18.8419 2.72076 19 3.10218 19 3.5V10.5C19 10.7761 18.7761 11 18.5 11C18.2239 11 18 10.7761 18 10.5V3.5C18 3.36739 17.9473 3.24025 17.8535 3.14648C17.7597 3.05272 17.6326 3 17.5 3H5.5C5.36739 3 5.24025 3.05272 5.14648 3.14648C5.05272 3.24025 5 3.36739 5 3.5V19.5C5 19.6326 5.05272 19.7597 5.14648 19.8535C5.24025 19.9473 5.36739 20 5.5 20H11.5C11.7761 20 12 20.2239 12 20.5C12 20.7761 11.7761 21 11.5 21H5.5C5.10218 21 4.72076 20.8419 4.43945 20.5605C4.15815 20.2792 4 19.8978 4 19.5V3.5C4 3.10218 4.15815 2.72076 4.43945 2.43945C4.72076 2.15815 5.10218 2 5.5 2H17.5Z" fill="#292C32"/>
<path d="M11.5 15C11.7761 15 12 15.2239 12 15.5C12 15.7761 11.7761 16 11.5 16H8.5C8.22386 16 8 15.7761 8 15.5C8 15.2239 8.22386 15 8.5 15H11.5Z" fill="#292C32"/>
<path d="M14.5 11C14.7761 11 15 11.2239 15 11.5C15 11.7761 14.7761 12 14.5 12H8.5C8.22386 12 8 11.7761 8 11.5C8 11.2239 8.22386 11 8.5 11H14.5Z" fill="#292C32"/>
<path d="M14.5 7C14.7761 7 15 7.22386 15 7.5C15 7.77614 14.7761 8 14.5 8H8.5C8.22386 8 8 7.77614 8 7.5C8 7.22386 8.22386 7 8.5 7H14.5Z" fill="#292C32"/>
</svg>
