<svg width="24" height="24" viewBox="0 0 24 24" fill="none" xmlns="http://www.w3.org/2000/svg">
<path d="M5.5 8C5.77614 8 6 8.22386 6 8.5V11.5C6 12.6046 6.89543 13.5 8 13.5H18.293L16.1465 11.3535C15.9512 11.1583 15.9512 10.8417 16.1465 10.6465C16.3417 10.4512 16.6583 10.4512 16.8535 10.6465L19.7773 13.5703C19.8749 13.6679 19.9238 13.7959 19.9238 13.9238C19.9238 14.0518 19.875 14.1797 19.7773 14.2773L16.8535 17.2012C16.6583 17.3964 16.3417 17.3964 16.1465 17.2012C15.9514 17.0059 15.9513 16.6893 16.1465 16.4941L18.1406 14.5H8C6.34315 14.5 5 13.1569 5 11.5V8.5C5 8.22386 5.22386 8 5.5 8Z" fill="#292C32"/>
</svg>
