<svg width="24" height="24" viewBox="0 0 24 24" fill="none" xmlns="http://www.w3.org/2000/svg">
<path d="M14.5 15C14.78 15 15 15.22 15 15.5C15 15.78 14.78 16 14.5 16H9.5C9.22 16 9 15.78 9 15.5C9 15.22 9.22 15 9.5 15H14.5Z" fill="#292C32"/>
<path d="M14.5 13C14.78 13 15 13.22 15 13.5C15 13.78 14.78 14 14.5 14H9.5C9.22 14 9 13.78 9 13.5C9 13.22 9.22 13 9.5 13H14.5Z" fill="#292C32"/>
<path fill-rule="evenodd" clip-rule="evenodd" d="M16 2C16.83 2 17.5 2.67 17.5 3.5V5.5H19.5C20.88 5.5 22 6.62 22 8V16C22 17.38 20.88 18.5 19.5 18.5H17.5V20.5C17.5 21.33 16.83 22 16 22H8C7.17 22 6.5 21.33 6.5 20.5V18.5H4.5C3.12 18.5 2 17.38 2 16V8C2 6.62 3.12 5.5 4.5 5.5H6.5V3.5C6.5 2.67 7.17 2 8 2H16ZM7.5 11V20.5C7.5 20.78 7.72 21 8 21H16C16.28 21 16.5 20.78 16.5 20.5V11H7.5ZM4.5 6.5C3.67 6.5 3 7.17 3 8V16C3 16.83 3.67 17.5 4.5 17.5H6.5V10H17.5V17.5H19.5C20.33 17.5 21 16.83 21 16V8C21 7.17 20.33 6.5 19.5 6.5H4.5ZM8 3C7.72 3 7.5 3.22 7.5 3.5V5.5H16.5V3.5C16.5 3.22 16.28 3 16 3H8Z" fill="#292C32"/>
</svg>
