<svg width="24" height="24" viewBox="0 0 24 24" fill="none" xmlns="http://www.w3.org/2000/svg">
<path fill-rule="evenodd" clip-rule="evenodd" d="M12.2998 3.5C16.9942 3.5 20.7998 7.30558 20.7998 12C20.7998 16.6944 16.9942 20.5 12.2998 20.5C7.60538 20.5 3.7998 16.6944 3.7998 12C3.7998 7.30558 7.60538 3.5 12.2998 3.5ZM6.61133 7.11523C5.48322 8.42775 4.7998 10.1336 4.7998 12C4.7998 16.1421 8.15767 19.5 12.2998 19.5C14.1662 19.5 15.8711 18.8156 17.1836 17.6875L6.61133 7.11523ZM12.2998 4.5C10.384 4.5 8.63616 5.21843 7.31055 6.40039L17.8984 16.9883C19.0804 15.6627 19.7998 13.9157 19.7998 12C19.7998 7.85786 16.4419 4.5 12.2998 4.5Z" fill="#292C32"/>
</svg>
