<svg width="24" height="24" viewBox="0 0 24 24" fill="none" xmlns="http://www.w3.org/2000/svg">
<path d="M17.5 2C17.8978 2 18.2792 2.15815 18.5605 2.43945C18.8419 2.72076 19 3.10218 19 3.5V10.5C19 10.7761 18.7761 11 18.5 11C18.2239 11 18 10.7761 18 10.5V3.5C18 3.36739 17.9473 3.24025 17.8535 3.14648C17.7597 3.05272 17.6326 3 17.5 3H5.5C5.36739 3 5.24025 3.05272 5.14648 3.14648C5.05272 3.24025 5 3.36739 5 3.5V19.5C5 19.6326 5.05272 19.7597 5.14648 19.8535C5.24025 19.9473 5.36739 20 5.5 20H11.5C11.7761 20 12 20.2239 12 20.5C12 20.7761 11.7761 21 11.5 21H5.5C5.10218 21 4.72076 20.8419 4.43945 20.5605C4.15815 20.2792 4 19.8978 4 19.5V3.5C4 3.10218 4.15815 2.72076 4.43945 2.43945C4.72076 2.15815 5.10218 2 5.5 2H17.5Z" fill="#292C32"/>
<path fill-rule="evenodd" clip-rule="evenodd" d="M18.0098 12.7002C19.2303 12.7002 20.2197 13.6896 20.2197 14.9102C20.2197 15.662 19.8431 16.3244 19.2695 16.7236C19.6201 16.8006 19.95 16.9176 20.2393 17.0928C20.9045 17.4957 21.2998 18.1637 21.2998 19.0996V20.5C21.2998 20.7761 21.0759 21 20.7998 21H15.2002C14.9241 21 14.7002 20.7761 14.7002 20.5V19.0996C14.7002 18.1637 15.0955 17.4957 15.7607 17.0928C16.0537 16.9153 16.3885 16.7976 16.7441 16.7207C16.1736 16.3211 15.7998 15.6596 15.7998 14.9102C15.7998 13.6896 16.7892 12.7002 18.0098 12.7002ZM18 17.6006C17.2589 17.6006 16.6692 17.7122 16.2793 17.9482C15.9313 18.159 15.7002 18.4919 15.7002 19.0996V20H20.2998V19.0996C20.2998 18.492 20.0696 18.159 19.7217 17.9482C19.3317 17.7121 18.7413 17.6006 18 17.6006ZM18.0098 13.7002C17.3415 13.7002 16.7998 14.2419 16.7998 14.9102C16.7998 15.5784 17.3415 16.1201 18.0098 16.1201C18.678 16.1201 19.2197 15.5784 19.2197 14.9102C19.2197 14.2419 18.678 13.7002 18.0098 13.7002Z" fill="#292C32"/>
<path d="M11.5 15C11.7761 15 12 15.2239 12 15.5C12 15.7761 11.7761 16 11.5 16H8.5C8.22386 16 8 15.7761 8 15.5C8 15.2239 8.22386 15 8.5 15H11.5Z" fill="#292C32"/>
<path d="M14.5 11C14.7761 11 15 11.2239 15 11.5C15 11.7761 14.7761 12 14.5 12H8.5C8.22386 12 8 11.7761 8 11.5C8 11.2239 8.22386 11 8.5 11H14.5Z" fill="#292C32"/>
<path d="M14.5 7C14.7761 7 15 7.22386 15 7.5C15 7.77614 14.7761 8 14.5 8H8.5C8.22386 8 8 7.77614 8 7.5C8 7.22386 8.22386 7 8.5 7H14.5Z" fill="#292C32"/>
</svg>
