<svg width="24" height="24" viewBox="0 0 24 24" fill="none" xmlns="http://www.w3.org/2000/svg">
<path d="M11.5 15C11.78 15 12 15.22 12 15.5C12 15.78 11.78 16 11.5 16H6.5C6.22 16 6 15.78 6 15.5C6 15.22 6.22 15 6.5 15H11.5Z" fill="#292C32"/>
<path d="M11.5 13C11.78 13 12 13.22 12 13.5C12 13.78 11.78 14 11.5 14H6.5C6.22 14 6 13.78 6 13.5C6 13.22 6.22 13 6.5 13H11.5Z" fill="#292C32"/>
<path fill-rule="evenodd" clip-rule="evenodd" d="M17 7C17.55 7 18 7.45 18 8V10C18 10.55 17.55 11 17 11H15C14.45 11 14 10.55 14 10V8C14 7.45 14.45 7 15 7H17ZM15 10H17V8H15V10Z" fill="#292C32"/>
<path fill-rule="evenodd" clip-rule="evenodd" d="M18.5 4C19.88 4 21 5.12 21 6.5V17.5C21 18.88 19.88 20 18.5 20H5.5C4.12 20 3 18.88 3 17.5V6.5C3 5.12 4.12 4 5.5 4H18.5ZM5.5 5C4.67 5 4 5.67 4 6.5V17.5C4 18.33 4.67 19 5.5 19H18.5C19.33 19 20 18.33 20 17.5V6.5C20 5.67 19.33 5 18.5 5H5.5Z" fill="#292C32"/>
</svg>
