<svg width="24" height="24" viewBox="0 0 24 24" fill="none" xmlns="http://www.w3.org/2000/svg">
<path d="M14.5 14C15.163 14 15.7987 14.2636 16.2676 14.7324C16.7364 15.2013 17 15.837 17 16.5V17.5C17 17.7761 16.7761 18 16.5 18C16.2239 18 16 17.7761 16 17.5V16.5C16 16.1022 15.8419 15.7208 15.5605 15.4395C15.2792 15.1581 14.8978 15 14.5 15H9.5C9.10218 15 8.72076 15.1581 8.43945 15.4395C8.15815 15.7208 8 16.1022 8 16.5V17.5C8 17.7761 7.77614 18 7.5 18C7.22386 18 7 17.7761 7 17.5V16.5C7 15.837 7.26358 15.2013 7.73242 14.7324C8.20126 14.2636 8.83696 14 9.5 14H14.5Z" fill="#292C32"/>
<path fill-rule="evenodd" clip-rule="evenodd" d="M12 7C13.6569 7 15 8.34315 15 10C15 11.6569 13.6569 13 12 13C10.3431 13 9 11.6569 9 10C9 8.34315 10.3431 7 12 7ZM12 8C10.8954 8 10 8.89543 10 10C10 11.1046 10.8954 12 12 12C13.1046 12 14 11.1046 14 10C14 8.89543 13.1046 8 12 8Z" fill="#292C32"/>
<path fill-rule="evenodd" clip-rule="evenodd" d="M10.1201 2C10.94 2.00005 11.6003 2.5098 11.8604 3.00977C11.9103 3.09973 12.3794 3.89946 12.4297 4H18.9902C20.0901 4.00013 20.9902 4.89008 20.9902 6V19.9902C20.9901 21.09 20.1 21.9901 18.9902 21.9902H5C3.90008 21.9902 3.00013 21.1001 3 19.9902V4C3 2.9 3.9 2 5 2H10.1201ZM5 3C4.45 3 4 3.45 4 4V19.9902C4.00013 20.5401 4.45008 20.9902 5 20.9902H19C19.5499 20.9902 19.9999 20.5401 20 19.9902V6C20 5.45 19.55 5 19 5H11.8398L11.5596 4.46973C11.5292 4.41914 11.4195 4.22971 11.2998 4.03027C11.1598 3.78028 11.0105 3.51974 10.9805 3.46973C10.893 3.30351 10.6213 3.06894 10.2803 3.0127L10.1201 3H5Z" fill="#292C32"/>
</svg>
