<svg width="24" height="24" viewBox="0 0 24 24" fill="none" xmlns="http://www.w3.org/2000/svg">
<path fill-rule="evenodd" clip-rule="evenodd" d="M10.6201 8.01661C11.2596 7.75173 11.9637 7.6824 12.6426 7.81739C13.3215 7.95243 13.9451 8.28597 14.4346 8.7754C14.9241 9.26488 15.2575 9.88846 15.3926 10.5674C15.5276 11.2463 15.4583 11.9503 15.1934 12.5899C14.9284 13.2293 14.4798 13.7756 13.9043 14.1602C13.3287 14.5447 12.6522 14.75 11.96 14.75C11.0317 14.75 10.1417 14.381 9.48536 13.7246C8.82904 13.0682 8.45997 12.1782 8.45997 11.25C8.46 10.5578 8.66526 9.88119 9.04981 9.30567C9.43432 8.73022 9.98075 8.28154 10.6201 8.01661ZM12.4473 8.79786C11.9625 8.70152 11.4596 8.75128 11.0029 8.94044C10.5462 9.12967 10.1555 9.45029 9.88086 9.86134C9.6063 10.2724 9.46 10.7557 9.45997 11.25C9.45997 11.913 9.72361 12.5488 10.1924 13.0176C10.6612 13.4864 11.2969 13.75 11.96 13.75C12.4543 13.75 12.9376 13.6037 13.3486 13.3291C13.7597 13.0544 14.0803 12.6638 14.2695 12.207C14.4587 11.7503 14.5085 11.2476 14.4121 10.7627C14.3157 10.2778 14.0772 9.83206 13.7275 9.48243C13.3779 9.13285 12.9322 8.89431 12.4473 8.79786Z" fill="#292C32"/>
<path fill-rule="evenodd" clip-rule="evenodd" d="M11.957 3.00001C12.9892 2.95678 14.0199 3.12433 14.9854 3.4922C15.9726 3.8547 16.8764 4.41322 17.6416 5.13477C18.4017 5.84153 19.0071 6.6987 19.419 7.65138L19.4199 7.65431C19.8236 8.60154 20.0315 9.62074 20.0303 10.6504C20.0302 10.7118 20.0184 10.7709 19.9981 10.8252C19.933 14.2483 17.9755 17.0196 16.084 18.9111C15.1166 19.8785 14.1503 20.6318 13.4268 21.1436C13.0647 21.3996 12.7622 21.5964 12.5488 21.7295C12.4421 21.7961 12.3574 21.8473 12.2988 21.8818C12.2696 21.8991 12.2463 21.9118 12.2305 21.9209L12.2119 21.9316L12.207 21.9346L12.2051 21.9356C12.2029 21.9324 12.1821 21.896 11.96 21.5L12.2051 21.9356C12.0528 22.021 11.866 22.0213 11.7139 21.9356L11.7119 21.9346L11.707 21.9316L11.6885 21.9209C11.6727 21.9118 11.6493 21.8982 11.6201 21.8809C11.5619 21.8463 11.4779 21.7959 11.3721 21.7295C11.1598 21.5964 10.8584 21.3998 10.4981 21.1436C9.77825 20.6317 8.8178 19.8776 7.85547 18.9102C5.94161 16.9861 3.96008 14.1533 3.95997 10.6504C3.95878 9.6207 4.16662 8.60157 4.57032 7.65431L4.57227 7.64942C4.99003 6.6957 5.60138 5.8391 6.36817 5.13477C7.11387 4.42509 7.99404 3.87137 8.95606 3.50489C9.91339 3.14023 10.9332 2.96848 11.957 3.00001ZM11.9824 4.00001C11.9695 4.00058 11.9563 4.00044 11.9434 4.00001C11.0457 3.9701 10.1509 4.11972 9.31153 4.43946C8.4723 4.75921 7.70487 5.24278 7.05469 5.86231L7.04786 5.86915C6.38255 6.47954 5.85181 7.22195 5.48926 8.04884C5.13921 8.87115 4.95891 9.75568 4.95997 10.6494C4.95997 13.7663 6.7284 16.3592 8.56446 18.2051C9.4771 19.1226 10.3917 19.84 11.0781 20.3281C11.4209 20.5719 11.7055 20.7578 11.9033 20.8818C11.9233 20.8944 11.9427 20.9067 11.9609 20.918C11.9795 20.9065 11.9991 20.8936 12.0195 20.8809C12.2185 20.7568 12.5051 20.5708 12.8496 20.3272C13.5397 19.839 14.4586 19.1214 15.376 18.2041C17.2221 16.358 18.9999 13.7662 19 10.6504C19 10.5923 19.0101 10.5363 19.0283 10.4844C19.0084 9.64667 18.8297 8.81973 18.501 8.04786C18.1438 7.22211 17.619 6.47871 16.96 5.86622L16.957 5.86427C16.2891 5.23408 15.4998 4.7458 14.6377 4.4297L14.6318 4.42774C13.7873 4.10553 12.8855 3.95991 11.9824 4.00001Z" fill="#292C32"/>
</svg>
