<svg width="24" height="24" viewBox="0 0 24 24" fill="none" xmlns="http://www.w3.org/2000/svg">
<path d="M17.4002 6C17.4395 5.99997 17.4787 6.00409 17.5174 6.01171C17.529 6.01403 17.5399 6.01927 17.5513 6.02226C17.6511 6.04816 17.7461 6.09768 17.8243 6.17572C17.9413 6.29271 17.9999 6.44646 18 6.59978V15.1912C17.9998 15.5221 17.7312 15.7907 17.4002 15.7909C17.0691 15.7909 16.8006 15.5223 16.8004 15.1912V8.04769L7.02346 17.8246C6.78929 18.0585 6.40949 18.0585 6.17533 17.8246C5.94162 17.5904 5.94149 17.2106 6.17533 16.9765L15.9523 7.19956H8.80876C8.47751 7.19956 8.20897 6.93103 8.20897 6.59978C8.20922 6.26874 8.47766 6 8.80876 6H17.4002Z" fill="#292C32"/>
</svg>
