<svg width="24" height="24" viewBox="0 0 24 24" fill="none" xmlns="http://www.w3.org/2000/svg">
<path d="M15.5 16C15.78 16 16 16.22 16 16.5C16 16.78 15.78 17 15.5 17H9.5C9.22 17 9 16.78 9 16.5C9 16.22 9.22 16 9.5 16H15.5Z" fill="#292C32"/>
<path d="M15.5 12C15.78 12 16 12.22 16 12.5C16 12.78 15.78 13 15.5 13H9.5C9.22 13 9 12.78 9 12.5C9 12.22 9.22 12 9.5 12H15.5Z" fill="#292C32"/>
<path d="M15.5 8C15.78 8 16 8.22 16 8.5C16 8.78 15.78 9 15.5 9H9.5C9.22 9 9 8.78 9 8.5C9 8.22 9.22 8 9.5 8H15.5Z" fill="#292C32"/>
<path fill-rule="evenodd" clip-rule="evenodd" d="M18.5 3C18.9 3 19.2796 3.16043 19.5596 3.44043C19.8396 3.72043 20 4.1 20 4.5V20.5C20 20.9 19.8396 21.2796 19.5596 21.5596C19.2796 21.8396 18.9 22 18.5 22H6.5C6.1 22 5.72043 21.8396 5.44043 21.5596C5.16043 21.2796 5 20.9 5 20.5V4.5C5 4.1 5.16043 3.72043 5.44043 3.44043C5.72043 3.16043 6.1 3 6.5 3H18.5ZM6.5 4C6.37 4 6.24039 4.06039 6.15039 4.15039C6.05039 4.24039 6 4.37 6 4.5V20.5C6 20.63 6.06039 20.7596 6.15039 20.8496C6.24039 20.9496 6.37 21 6.5 21H18.5C18.63 21 18.7596 20.9396 18.8496 20.8496C18.9496 20.7596 19 20.63 19 20.5V4.5C19 4.37 18.9396 4.24039 18.8496 4.15039C18.7596 4.05039 18.63 4 18.5 4H6.5Z" fill="#292C32"/>
</svg>
