<svg width="24" height="24" viewBox="0 0 24 24" fill="none" xmlns="http://www.w3.org/2000/svg">
<path d="M14.1175 14.5222L12.5429 16.3566L12.5429 6.47125C12.5429 6.21647 12.3257 5.99991 12.0406 5.99991C11.7556 5.99991 11.5384 6.20373 11.5384 6.47125L11.5384 16.4585L9.88226 14.5349C9.70578 14.3311 9.39357 14.3056 9.17637 14.4585C9.0542 14.5477 8.98633 14.6878 8.98633 14.8279C8.98633 14.9298 9.02705 15.0318 9.09493 15.1209L11.389 17.7706C11.7284 18.0891 12.2714 18.0891 12.6379 17.7324L14.8913 15.1082C15.0678 14.9044 15.0271 14.6114 14.8099 14.4458C14.5927 14.2802 14.2804 14.3184 14.104 14.5222H14.1175Z" fill="#292C32"/>
</svg>
