<svg width="24" height="24" viewBox="0 0 24 24" fill="none" xmlns="http://www.w3.org/2000/svg">
<path d="M12.4658 3.5C12.742 3.5 12.9658 3.72386 12.9658 4C12.9658 4.27614 12.742 4.5 12.4658 4.5H5.5V21.5H18.5V13C18.5 12.7239 18.7239 12.5 19 12.5C19.2761 12.5 19.5 12.7239 19.5 13V22C19.5 22.2761 19.2761 22.5 19 22.5H5C4.72386 22.5 4.5 22.2761 4.5 22V4C4.5 3.72386 4.72386 3.5 5 3.5H12.4658Z" fill="#292C32"/>
<path d="M15.8574 16.5C16.2123 16.5001 16.5 16.7239 16.5 17C16.5 17.2761 16.2123 17.4999 15.8574 17.5H8.14258C7.78767 17.4999 7.5 17.2761 7.5 17C7.5 16.7239 7.78767 16.5001 8.14258 16.5H15.8574Z" fill="#292C32"/>
<path fill-rule="evenodd" clip-rule="evenodd" d="M15.9248 8.50488C15.9494 8.50223 15.9744 8.5 16 8.5C16.2761 8.5 16.5 8.66018 16.5 8.85742V13.1426C16.5 13.3398 16.2761 13.5 16 13.5C15.9744 13.5 15.9494 13.4968 15.9248 13.4941C15.9026 13.496 15.8803 13.5 15.8574 13.5H8.14258C8.1194 13.5 8.09676 13.496 8.07422 13.4941C8.04994 13.4967 8.02529 13.5 8 13.5C7.72386 13.5 7.5 13.3398 7.5 13.1426V8.85742C7.5 8.66018 7.72386 8.5 8 8.5C8.02525 8.5 8.04997 8.5023 8.07422 8.50488C8.09674 8.50302 8.11943 8.50001 8.14258 8.5H15.8574C15.8802 8.50001 15.9026 8.50307 15.9248 8.50488ZM8.5 12.5H15.5V9.5H8.5V12.5Z" fill="#292C32"/>
<path d="M22 8.5C22.2761 8.5 22.5 8.72386 22.5 9C22.5 9.27614 22.2761 9.5 22 9.5H20C19.7239 9.5 19.5 9.27614 19.5 9C19.5 8.72386 19.7239 8.5 20 8.5H22Z" fill="#292C32"/>
<path d="M20.6465 2.64648C20.8417 2.45122 21.1583 2.45122 21.3535 2.64648C21.5488 2.84175 21.5488 3.15825 21.3535 3.35352L19.3535 5.35352C19.1583 5.54878 18.8417 5.54878 18.6465 5.35352C18.4512 5.15825 18.4512 4.84175 18.6465 4.64648L20.6465 2.64648Z" fill="#292C32"/>
<path d="M15 1.5C15.2761 1.5 15.5 1.72386 15.5 2V4C15.5 4.27614 15.2761 4.5 15 4.5C14.7239 4.5 14.5 4.27614 14.5 4V2C14.5 1.72386 14.7239 1.5 15 1.5Z" fill="#292C32"/>
</svg>
