<svg width="24" height="24" viewBox="0 0 24 24" fill="none" xmlns="http://www.w3.org/2000/svg">
<path d="M10 15.5C10.2761 15.5 10.5 15.7239 10.5 16C10.5 16.2761 10.2761 16.5 10 16.5H9C8.72386 16.5 8.5 16.2761 8.5 16C8.5 15.7239 8.72386 15.5 9 15.5H10Z" fill="#292C32"/>
<path d="M15 15.5C15.2761 15.5 15.5 15.7239 15.5 16C15.5 16.2761 15.2761 16.5 15 16.5H14C13.7239 16.5 13.5 16.2761 13.5 16C13.5 15.7239 13.7239 15.5 14 15.5H15Z" fill="#292C32"/>
<path d="M10 11.5C10.2761 11.5 10.5 11.7239 10.5 12C10.5 12.2761 10.2761 12.5 10 12.5H9C8.72386 12.5 8.5 12.2761 8.5 12C8.5 11.7239 8.72386 11.5 9 11.5H10Z" fill="#292C32"/>
<path d="M15 11.5C15.2761 11.5 15.5 11.7239 15.5 12C15.5 12.2761 15.2761 12.5 15 12.5H14C13.7239 12.5 13.5 12.2761 13.5 12C13.5 11.7239 13.7239 11.5 14 11.5H15Z" fill="#292C32"/>
<path d="M10 7.5C10.2761 7.5 10.5 7.72386 10.5 8C10.5 8.27614 10.2761 8.5 10 8.5H9C8.72386 8.5 8.5 8.27614 8.5 8C8.5 7.72386 8.72386 7.5 9 7.5H10Z" fill="#292C32"/>
<path d="M15 7.5C15.2761 7.5 15.5 7.72386 15.5 8C15.5 8.27614 15.2761 8.5 15 8.5H14C13.7239 8.5 13.5 8.27614 13.5 8C13.5 7.72386 13.7239 7.5 14 7.5H15Z" fill="#292C32"/>
<path fill-rule="evenodd" clip-rule="evenodd" d="M17 2.5C17.663 2.5 18.2987 2.76358 18.7676 3.23242C19.2364 3.70126 19.5 4.33696 19.5 5V20.5H21C21.2761 20.5 21.5 20.7239 21.5 21C21.5 21.2761 21.2761 21.5 21 21.5H3C2.72386 21.5 2.5 21.2761 2.5 21C2.5 20.7239 2.72386 20.5 3 20.5H4.5V5C4.5 4.33696 4.76358 3.70126 5.23242 3.23242C5.70126 2.76358 6.33696 2.5 7 2.5H17ZM7 3.5C6.60218 3.5 6.22076 3.65815 5.93945 3.93945C5.65815 4.22076 5.5 4.60218 5.5 5V20.5H18.5V5C18.5 4.60218 18.3419 4.22076 18.0605 3.93945C17.7792 3.65815 17.3978 3.5 17 3.5H7Z" fill="#292C32"/>
</svg>
