<svg width="24" height="24" viewBox="0 0 24 24" fill="none" xmlns="http://www.w3.org/2000/svg">
<path fill-rule="evenodd" clip-rule="evenodd" d="M15.5332 13.1338C16.2337 12.8437 17.0045 12.7671 17.748 12.915C18.4916 13.063 19.1748 13.4288 19.7109 13.9648C20.2469 14.5009 20.6119 15.1843 20.7598 15.9277C20.9075 16.671 20.8319 17.4414 20.542 18.1416C20.4131 18.4527 20.2419 18.7425 20.0391 19.0068L21.5205 20.4883C21.7155 20.6835 21.7155 21.0001 21.5205 21.1953C21.3252 21.3906 21.0078 21.3906 20.8125 21.1953L19.332 19.7148C19.266 19.7655 19.1994 19.8158 19.1299 19.8623C18.4995 20.2835 17.7582 20.5088 17 20.5088C15.9834 20.5088 15.0079 20.1046 14.2891 19.3857C13.5703 18.6669 13.167 17.6914 13.167 16.6748C13.1671 15.9169 13.3915 15.1761 13.8125 14.5459C14.2337 13.9155 14.8328 13.4239 15.5332 13.1338ZM17.5527 13.8965C17.0032 13.7872 16.4337 13.8432 15.916 14.0576C15.3984 14.272 14.9558 14.6348 14.6445 15.1006C14.3333 15.5664 14.1671 16.1145 14.167 16.6748C14.167 17.4262 14.4657 18.1474 14.9971 18.6787C15.5284 19.2099 16.2487 19.5088 17 19.5088C17.5603 19.5088 18.1083 19.3425 18.5742 19.0312C19.0401 18.7199 19.4037 18.2774 19.6182 17.7598C19.8326 17.242 19.8886 16.6717 19.7793 16.1221C19.67 15.5727 19.3999 15.068 19.0039 14.6719C18.6077 14.2756 18.1023 14.0058 17.5527 13.8965Z" fill="#292C32"/>
<path d="M16.8613 2.75C17.5095 2.75009 18.1315 3.00748 18.5898 3.46582C19.0482 3.92421 19.3056 4.54612 19.3057 5.19434V11.0625C19.3057 11.3386 19.0817 11.5624 18.8057 11.5625C18.5295 11.5625 18.3057 11.3386 18.3057 11.0625V5.19434C18.3056 4.81134 18.1536 4.4437 17.8828 4.17285C17.612 3.90204 17.2443 3.75009 16.8613 3.75H7.13867C6.75562 3.75003 6.38805 3.90199 6.11719 4.17285C5.84633 4.44371 5.69436 4.81128 5.69434 5.19434V20.25H13.25C13.5261 20.25 13.75 20.4739 13.75 20.75C13.75 21.0261 13.5261 21.25 13.25 21.25H3.25C2.97386 21.25 2.75 21.0261 2.75 20.75C2.75 20.4739 2.97386 20.25 3.25 20.25H4.69434V5.19434C4.69436 4.54607 4.95176 3.92422 5.41016 3.46582C5.86855 3.00742 6.4904 2.75003 7.13867 2.75H16.8613Z" fill="#292C32"/>
<path d="M10.0557 15.3887C10.3317 15.3888 10.5557 15.6126 10.5557 15.8887C10.5557 16.1647 10.3317 16.3886 10.0557 16.3887H9.08301C8.80698 16.3885 8.58301 16.1647 8.58301 15.8887C8.58301 15.6126 8.80698 15.3888 9.08301 15.3887H10.0557Z" fill="#292C32"/>
<path d="M10.0557 11.5C10.3317 11.5001 10.5557 11.7239 10.5557 12C10.5557 12.2761 10.3317 12.4999 10.0557 12.5H9.08301C8.80698 12.4999 8.58301 12.2761 8.58301 12C8.58301 11.7239 8.80698 11.5001 9.08301 11.5H10.0557Z" fill="#292C32"/>
<path d="M14.917 11.5C15.1929 11.5002 15.417 11.724 15.417 12C15.417 12.276 15.1929 12.4998 14.917 12.5H13.9443C13.6682 12.5 13.4443 12.2761 13.4443 12C13.4443 11.7239 13.6682 11.5 13.9443 11.5H14.917Z" fill="#292C32"/>
<path d="M10.0557 7.61133C10.3317 7.61143 10.5557 7.83525 10.5557 8.11133C10.5557 8.38741 10.3317 8.61122 10.0557 8.61133H9.08301C8.80698 8.6112 8.58301 8.38739 8.58301 8.11133C8.58301 7.83527 8.80698 7.61146 9.08301 7.61133H10.0557Z" fill="#292C32"/>
<path d="M14.917 7.61133C15.1929 7.61156 15.417 7.83533 15.417 8.11133C15.417 8.38732 15.1929 8.61109 14.917 8.61133H13.9443C13.6682 8.61133 13.4443 8.38747 13.4443 8.11133C13.4443 7.83519 13.6682 7.61133 13.9443 7.61133H14.917Z" fill="#292C32"/>
</svg>
