<svg width="24" height="24" viewBox="0 0 24 24" fill="none" xmlns="http://www.w3.org/2000/svg">
<path d="M15.5 12.1436C15.7761 12.1436 16 12.3674 16 12.6436C15.9997 12.9195 15.776 13.1436 15.5 13.1436H13.5C13.2239 13.1436 13 12.9187 13 12.6426C13.0003 12.3667 13.224 12.1436 13.5 12.1436H15.5Z" fill="#292C32"/>
<path fill-rule="evenodd" clip-rule="evenodd" d="M16 2.5C16.6585 2.5 17.2928 2.75418 17.7627 3.21094C18.233 3.66818 18.5 4.29145 18.5 4.94434V20.1787H21C21.2761 20.1787 21.5 20.4026 21.5 20.6787C21.5 20.9549 21.2761 21.1787 21 21.1787H3C2.72386 21.1787 2.5 20.9549 2.5 20.6787C2.5 20.4026 2.72386 20.1787 3 20.1787H5.5V4.94434C5.50003 4.29145 5.767 3.66818 6.2373 3.21094C6.70715 2.75418 7.34146 2.5 8 2.5H16ZM8 3.5C7.59783 3.5 7.21484 3.65539 6.93457 3.92773C6.65478 4.19975 6.50003 4.5659 6.5 4.94434V20.1787H17.5V4.94434C17.5 4.5659 17.3452 4.19975 17.0654 3.92773C16.7852 3.65539 16.4022 3.5 16 3.5H8Z" fill="#292C32"/>
</svg>
