<svg width="24" height="24" viewBox="0 0 24 24" fill="none" xmlns="http://www.w3.org/2000/svg">
<path fill-rule="evenodd" clip-rule="evenodd" d="M9.16992 3.9502C9.36978 3.9502 9.5498 4.07 9.62988 4.25977L11.54 9C11.63 9.22 11.5401 9.48035 11.3301 9.61035L9.37012 10.7803C10.2701 12.4102 11.6103 13.7504 13.2402 14.6504L14.4102 12.6904C14.5301 12.4805 14.7896 12.3907 15.0195 12.4805L19.7402 14.3701C19.9301 14.4402 20.0498 14.6302 20.0498 14.8301V18.6104C20.0498 19.2403 19.7996 19.8498 19.3496 20.2998C18.8996 20.7498 18.2901 21 17.6602 21H17.6299C13.8299 20.77 10.24 19.1599 7.54004 16.46C4.8501 13.77 3.23 10.1801 3 6.37012V6.33984C3.00009 5.70997 3.25028 5.10031 3.7002 4.65039C4.15011 4.20047 4.75977 3.95029 5.38965 3.9502H9.16992ZM5.38965 4.94043C5.01978 4.94052 4.67007 5.09067 4.41016 5.35059C4.15023 5.61057 4 5.96037 4 6.32031C4.22003 9.88027 5.73026 13.23 8.24023 15.75C10.7602 18.27 14.11 19.78 17.6699 20C18.0399 19.99 18.3796 19.8498 18.6396 19.5898C18.8996 19.3299 19.0498 18.9803 19.0498 18.6104V15.1602L15.04 13.5605L13.8398 15.5605C13.7098 15.7802 13.4203 15.8697 13.1904 15.75C11.0404 14.69 9.30023 12.9498 8.24023 10.7998C8.12046 10.5699 8.20999 10.2804 8.42969 10.1504L10.4297 8.9502L8.83008 4.94043H5.38965Z" fill="#292C32"/>
<path d="M14.8301 6.78027C15.4601 6.78027 16.0705 7.02949 16.5205 7.47949C16.9705 7.92949 17.2197 8.53995 17.2197 9.16992C17.2197 9.44986 16.9997 9.66992 16.7197 9.66992C16.4399 9.66974 16.2198 9.44974 16.2197 9.16992C16.2197 8.79995 16.0705 8.44945 15.8105 8.18945C15.5505 7.92945 15.2001 7.78027 14.8301 7.78027C14.5502 7.78027 14.3303 7.56004 14.3301 7.28027C14.3301 7.00027 14.5501 6.78027 14.8301 6.78027Z" fill="#292C32"/>
<path d="M14.8301 3C16.4701 3 18.0304 3.6496 19.1904 4.80957L19.1797 4.7998C20.3397 5.9598 20.9902 7.52016 20.9902 9.16016C20.9902 9.44003 20.7701 9.66007 20.4902 9.66016C20.2103 9.66016 19.9903 9.44008 19.9902 9.16016C19.9902 7.79019 19.4504 6.47976 18.4805 5.50977C17.5105 4.53977 16.2001 4 14.8301 4C14.5501 4 14.3301 3.78 14.3301 3.5C14.3301 3.22 14.5501 3 14.8301 3Z" fill="#292C32"/>
</svg>
