<svg width="24" height="24" viewBox="0 0 24 24" fill="none" xmlns="http://www.w3.org/2000/svg">
<path fill-rule="evenodd" clip-rule="evenodd" d="M2.5 6C2.5 4.61929 3.61929 3.5 5 3.5H19C20.3807 3.5 21.5 4.61929 21.5 6V14C21.5 15.3807 20.3807 16.5 19 16.5H14.5V19.5H17C17.2761 19.5 17.5 19.7239 17.5 20C17.5 20.2761 17.2761 20.5 17 20.5H7C6.72386 20.5 6.5 20.2761 6.5 20C6.5 19.7239 6.72386 19.5 7 19.5H9.5V16.5H5C3.61929 16.5 2.5 15.3807 2.5 14V6ZM19 15.5C19.8284 15.5 20.5 14.8284 20.5 14V6C20.5 5.17157 19.8284 4.5 19 4.5H5C4.17157 4.5 3.5 5.17157 3.5 6V14C3.5 14.8284 4.17157 15.5 5 15.5H19ZM10.5 16.5V19.5H13.5V16.5H10.5Z" fill="#292C32"/>
</svg>
