<svg width="24" height="24" viewBox="0 0 24 24" fill="none" xmlns="http://www.w3.org/2000/svg">
<path fill-rule="evenodd" clip-rule="evenodd" d="M9 3.5C7.067 3.5 5.5 5.067 5.5 7C5.5 8.933 7.067 10.5 9 10.5C10.933 10.5 12.5 8.933 12.5 7C12.5 5.067 10.933 3.5 9 3.5ZM4.5 7C4.5 4.51472 6.51472 2.5 9 2.5C11.4853 2.5 13.5 4.51472 13.5 7C13.5 9.48528 11.4853 11.5 9 11.5C6.51472 11.5 4.5 9.48528 4.5 7Z" fill="#292C32"/>
<path fill-rule="evenodd" clip-rule="evenodd" d="M7 15.5C6.07174 15.5 5.1815 15.8687 4.52513 16.5251C3.86875 17.1815 3.5 18.0717 3.5 19V21C3.5 21.2761 3.27614 21.5 3 21.5C2.72386 21.5 2.5 21.2761 2.5 21V19C2.5 17.8065 2.97411 16.6619 3.81802 15.818C4.66193 14.9741 5.80653 14.5 7 14.5H11C12.1935 14.5 13.3381 14.9741 14.182 15.818C15.0259 16.6619 15.5 17.8065 15.5 19V21C15.5 21.2761 15.2761 21.5 15 21.5C14.7239 21.5 14.5 21.2761 14.5 21V19C14.5 18.0717 14.1313 17.1815 13.4749 16.5251C12.8185 15.8687 11.9283 15.5 11 15.5H7Z" fill="#292C32"/>
<path fill-rule="evenodd" clip-rule="evenodd" d="M15.5156 3.00586C15.5841 2.73835 15.8565 2.57701 16.124 2.64551C17.092 2.89335 17.9499 3.4563 18.5626 4.24561C19.1753 5.03492 19.5078 6.00569 19.5078 7.00488C19.5078 8.00407 19.1753 8.97485 18.5626 9.76416C17.9499 10.5535 17.092 11.1164 16.124 11.3643C15.8565 11.4328 15.5841 11.2714 15.5156 11.0039C15.4471 10.7364 15.6085 10.464 15.876 10.3955C16.6288 10.2027 17.2961 9.76489 17.7727 9.15099C18.2492 8.53708 18.5078 7.78203 18.5078 7.00488C18.5078 6.22773 18.2492 5.47269 17.7727 4.85878C17.2961 4.24487 16.6288 3.80702 15.876 3.61426C15.6085 3.54576 15.4471 3.27338 15.5156 3.00586Z" fill="#292C32"/>
<path fill-rule="evenodd" clip-rule="evenodd" d="M17.5159 15.0249C17.5849 14.7575 17.8576 14.5967 18.125 14.6658C19.0867 14.9141 19.9392 15.4735 20.5497 16.257C21.1601 17.0404 21.4943 18.0038 21.5 18.997L21.5 18.9999L21.5 20.9999C21.5 21.276 21.2761 21.4999 21 21.4999C20.7239 21.4999 20.5 21.276 20.5 20.9999V19.0014C20.4953 18.2294 20.2354 17.4806 19.7609 16.8716C19.2861 16.2623 18.623 15.8271 17.875 15.634C17.6076 15.565 17.4468 15.2923 17.5159 15.0249Z" fill="#292C32"/>
</svg>
