<svg width="24" height="24" viewBox="0 0 24 24" fill="none" xmlns="http://www.w3.org/2000/svg">
<path d="M17.5 12.5C19.9853 12.5 22 14.5147 22 17C22 18.0622 21.6312 19.0379 21.0156 19.8076L22.9033 21.6953C23.0986 21.8906 23.0986 22.2071 22.9033 22.4023C22.7081 22.5976 22.3916 22.5976 22.1963 22.4023L20.3086 20.5146C19.5387 21.1307 18.5627 21.5 17.5 21.5C15.0147 21.5 13 19.4853 13 17C13 14.5147 15.0147 12.5 17.5 12.5ZM17.5 1.5C17.8978 1.5 18.2792 1.65815 18.5605 1.93945C18.8419 2.22076 19 2.60218 19 3V10C19 10.2761 18.7761 10.5 18.5 10.5C18.2239 10.5 18 10.2761 18 10V3C18 2.86739 17.9473 2.74025 17.8535 2.64648C17.7597 2.55272 17.6326 2.5 17.5 2.5H5.5C5.36739 2.5 5.24025 2.55272 5.14648 2.64648C5.05272 2.74025 5 2.86739 5 3V19C5 19.1326 5.05272 19.2597 5.14648 19.3535C5.24025 19.4473 5.36739 19.5 5.5 19.5H11.5C11.7761 19.5 12 19.7239 12 20C12 20.2761 11.7761 20.5 11.5 20.5H5.5C5.10218 20.5 4.72076 20.3419 4.43945 20.0605C4.15815 19.7792 4 19.3978 4 19V3C4 2.60218 4.15815 2.22076 4.43945 1.93945C4.72076 1.65815 5.10218 1.5 5.5 1.5H17.5ZM17.5 13.5C15.567 13.5 14 15.067 14 17C14 18.933 15.567 20.5 17.5 20.5C19.433 20.5 21 18.933 21 17C21 15.067 19.433 13.5 17.5 13.5ZM14.6465 8.14648C14.8417 7.95122 15.1583 7.95122 15.3535 8.14648C15.5488 8.34175 15.5488 8.65825 15.3535 8.85352L11.3535 12.8535C11.1583 13.0488 10.8417 13.0488 10.6465 12.8535L8.64648 10.8535C8.45122 10.6583 8.45122 10.3417 8.64648 10.1465C8.84175 9.95122 9.15825 9.95122 9.35352 10.1465L11 11.793L14.6465 8.14648Z" fill="#292C32"/>
</svg>
