<svg width="24" height="24" viewBox="0 0 24 24" fill="none" xmlns="http://www.w3.org/2000/svg">
<path d="M12.5 6C12.7761 6 13 6.22386 13 6.5C13 6.77614 12.7761 7 12.5 7C11.5717 7 10.6818 7.36901 10.0254 8.02539C9.36901 8.68177 9 9.57174 9 10.5C9 10.7761 8.77614 11 8.5 11C8.22386 11 8 10.7761 8 10.5C8 9.30653 8.47445 8.16227 9.31836 7.31836C10.1623 6.47445 11.3065 6 12.5 6Z" fill="#292C32"/>
<path fill-rule="evenodd" clip-rule="evenodd" d="M12.5 4C14.2239 4 15.8777 4.68433 17.0967 5.90332C18.3157 7.12231 19 8.77609 19 10.5V16H19.5C19.7761 16 20 16.2239 20 16.5V18.5C20 18.7761 19.7761 19 19.5 19H5.5C5.22386 19 5 18.7761 5 18.5V16.5C5 16.2239 5.22386 16 5.5 16H6V10.5C6 8.77609 6.68433 7.12231 7.90332 5.90332C9.12231 4.68433 10.7761 4 12.5 4ZM6 18H19V17H6V18ZM12.5 5C11.0413 5 9.64278 5.57988 8.61133 6.61133C7.57988 7.64278 7 9.04131 7 10.5V16H18V10.5C18 9.04131 17.4201 7.64278 16.3887 6.61133C15.3572 5.57988 13.9587 5 12.5 5Z" fill="#292C32"/>
</svg>
