<svg width="24" height="24" viewBox="0 0 24 24" fill="none" xmlns="http://www.w3.org/2000/svg">
<path fill-rule="evenodd" clip-rule="evenodd" d="M8.33105 3C11.2369 3.00007 12.8672 4.54308 12.8887 4.56348C12.8887 4.56348 14.1829 6.02441 16.4961 6.02441C17.7602 6.02423 18.951 5.24978 19.6592 4.25098C19.7674 4.09987 20 4.17224 20 4.3584V13.2295C20 13.5558 19.9001 13.8733 19.7168 14.1445C19.0166 15.1814 17.7943 15.9998 16.4961 16C14.1884 16 12.8948 14.5451 12.8887 14.5381C12.8834 14.5331 11.2515 12.9747 8.33105 12.9746C6.82 12.9746 5.71465 13.5551 4.99902 14.1162V20.4473C5.00575 20.5867 4.95779 20.7236 4.86426 20.8271C4.77065 20.9308 4.63938 20.9928 4.5 21C4.36062 20.9928 4.22935 20.9308 4.13574 20.8271C4.04221 20.7236 3.99425 20.5867 4.00098 20.4473V14.6143L4 14.6104V5.69727C4.00005 5.33009 4.13155 4.97523 4.38184 4.70605C4.97892 4.06646 6.28234 3 8.33105 3ZM8.33105 4.00098C6.65927 4.00098 5.59771 4.8699 5.11523 5.38672C5.04196 5.4655 5.002 5.57595 5.00195 5.69727V12.8945C5.82695 12.3903 6.93243 11.9736 8.33105 11.9736C11.6209 11.9737 13.5035 13.7402 13.582 13.8154L13.6064 13.8359L13.6377 13.8721C13.7175 13.9573 14.7295 14.999 16.4961 14.999C17.3677 14.9988 18.3063 14.4435 18.8867 13.584C18.9598 13.4757 18.998 13.353 18.998 13.2295V6.24902C18.23 6.74549 17.3581 7.02529 16.4961 7.02539C13.9883 7.02539 12.4683 5.57273 12.1846 5.27637C12.0128 5.12419 10.6655 4.00104 8.33105 4.00098Z" fill="#292C32"/>
</svg>
