<svg width="24" height="24" viewBox="0 0 24 24" fill="none" xmlns="http://www.w3.org/2000/svg">
<path d="M9.88224 9.4778L11.4569 7.64341V17.5288C11.4569 17.7835 11.6741 18.0001 11.9592 18.0001C12.2442 18.0001 12.4614 17.7963 12.4614 17.5288V7.5415L14.1175 9.46507C14.294 9.66889 14.6062 9.69436 14.8234 9.5415C14.9456 9.45233 15.0135 9.3122 15.0135 9.17207C15.0135 9.07016 14.9727 8.96825 14.9049 8.87908L12.6107 6.2294C12.2714 5.91093 11.7284 5.91093 11.3619 6.26761L9.10848 8.89182C8.93201 9.09564 8.97274 9.38863 9.18993 9.55424C9.40713 9.71984 9.71934 9.68163 9.89581 9.4778H9.88224Z" fill="#292C32"/>
</svg>
