<svg width="24" height="24" viewBox="0 0 24 24" fill="none" xmlns="http://www.w3.org/2000/svg">
<path fill-rule="evenodd" clip-rule="evenodd" d="M3.5 3C3.36739 3 3.24021 3.05268 3.14645 3.14645C3.05268 3.24021 3 3.36739 3 3.5V19.5C3 19.6326 3.05268 19.7598 3.14645 19.8536C3.24021 19.9473 3.36739 20 3.5 20H9.5C9.77614 20 10 20.2239 10 20.5C10 20.7761 9.77614 21 9.5 21H3.5C3.10218 21 2.72064 20.842 2.43934 20.5607C2.15803 20.2794 2 19.8978 2 19.5V3.5C2 3.10218 2.15803 2.72064 2.43934 2.43934C2.72064 2.15803 3.10218 2 3.5 2H15.5C15.8978 2 16.2794 2.15803 16.5607 2.43934C16.842 2.72064 17 3.10218 17 3.5V10.5C17 10.7761 16.7761 11 16.5 11C16.2239 11 16 10.7761 16 10.5V3.5C16 3.36739 15.9473 3.24021 15.8536 3.14645C15.7598 3.05268 15.6326 3 15.5 3H3.5Z" fill="#292C32"/>
<path fill-rule="evenodd" clip-rule="evenodd" d="M6 7.5C6 7.22386 6.22386 7 6.5 7H12.5C12.7761 7 13 7.22386 13 7.5C13 7.77614 12.7761 8 12.5 8H6.5C6.22386 8 6 7.77614 6 7.5Z" fill="#292C32"/>
<path fill-rule="evenodd" clip-rule="evenodd" d="M6 11.5C6 11.2239 6.22386 11 6.5 11H12.5C12.7761 11 13 11.2239 13 11.5C13 11.7761 12.7761 12 12.5 12H6.5C6.22386 12 6 11.7761 6 11.5Z" fill="#292C32"/>
<path fill-rule="evenodd" clip-rule="evenodd" d="M6 15.5C6 15.2239 6.22386 15 6.5 15H9.5C9.77614 15 10 15.2239 10 15.5C10 15.7761 9.77614 16 9.5 16H6.5C6.22386 16 6 15.7761 6 15.5Z" fill="#292C32"/>
<path fill-rule="evenodd" clip-rule="evenodd" d="M15.5 14C13.567 14 12 15.567 12 17.5C12 19.433 13.567 21 15.5 21C17.433 21 19 19.433 19 17.5C19 15.567 17.433 14 15.5 14ZM11 17.5C11 15.0147 13.0147 13 15.5 13C17.9853 13 20 15.0147 20 17.5C20 19.9853 17.9853 22 15.5 22C13.0147 22 11 19.9853 11 17.5Z" fill="#292C32"/>
<path fill-rule="evenodd" clip-rule="evenodd" d="M18.0966 20.0957C18.2919 19.9004 18.6085 19.9004 18.8037 20.0957L20.9037 22.1957C21.099 22.3909 21.099 22.7075 20.9037 22.9028C20.7085 23.098 20.3919 23.098 20.1966 22.9028L18.0966 20.8028C17.9014 20.6075 17.9014 20.2909 18.0966 20.0957Z" fill="#292C32"/>
</svg>
