<svg width="24" height="24" viewBox="0 0 24 24" fill="none" xmlns="http://www.w3.org/2000/svg">
<path fill-rule="evenodd" clip-rule="evenodd" d="M12.0018 7.65076C9.59914 7.65076 7.65137 9.59853 7.65137 12.0012C7.65137 14.4039 9.59914 16.3517 12.0018 16.3517C14.4046 16.3517 16.3523 14.4039 16.3523 12.0012C16.3523 9.59853 14.4046 7.65076 12.0018 7.65076ZM9.15137 12.0012C9.15137 10.427 10.4276 9.15076 12.0018 9.15076C13.5761 9.15076 14.8523 10.427 14.8523 12.0012C14.8523 13.5755 13.5761 14.8517 12.0018 14.8517C10.4276 14.8517 9.15137 13.5755 9.15137 12.0012Z" fill="#292C32"/>
<path fill-rule="evenodd" clip-rule="evenodd" d="M10.029 2.85549C9.51379 2.54617 8.87113 2.54141 8.35137 2.84307L5.89586 4.26823C5.37856 4.56846 5.06422 5.12512 5.07428 5.72315L5.10125 7.32618C5.10446 7.51659 5.05583 7.70428 4.96058 7.86918L4.90217 7.97028C4.80687 8.13527 4.66848 8.27122 4.50182 8.36358L3.10224 9.13918C2.57635 9.43061 2.25059 9.98501 2.25196 10.5862L2.2584 13.4233C2.25976 14.0209 2.5841 14.571 3.10632 14.8615L4.49919 15.6364C4.66641 15.7294 4.80504 15.8664 4.9001 16.0324L4.96268 16.1418C5.05659 16.3058 5.10448 16.4922 5.10129 16.6812L5.07434 18.2773C5.06422 18.8772 5.3805 19.4353 5.90035 19.7348L8.36365 21.1543C8.88216 21.4531 9.5218 21.4478 10.0352 21.1403L11.4026 20.3216C11.5656 20.224 11.7521 20.1724 11.9421 20.1724H12.0607C12.2511 20.1724 12.438 20.2242 12.6012 20.3222L13.9749 21.1469C14.4901 21.4562 15.1328 21.461 15.6525 21.1593L18.108 19.7341C18.6254 19.4339 18.9397 18.8772 18.9296 18.2792L18.9027 16.6762C18.8995 16.4858 18.9481 16.2981 19.0433 16.1332L19.1017 16.0321C19.197 15.8671 19.3354 15.7311 19.5021 15.6388L20.9017 14.8632C21.4276 14.5718 21.7533 14.0174 21.7519 13.4161L21.7455 10.5791C21.7441 9.98151 21.4198 9.43135 20.8976 9.14084L19.5014 8.36412C19.3354 8.27177 19.1975 8.13614 19.1025 7.97166L19.0433 7.86918C18.9481 7.70428 18.8995 7.51659 18.9027 7.32618L18.9296 5.72503C18.9397 5.12517 18.6234 4.56709 18.1036 4.26754L15.6403 2.84805C15.1217 2.54926 14.4821 2.55461 13.9687 2.86204L12.6013 3.68078C12.4383 3.7784 12.2518 3.82996 12.0618 3.82996H11.9432C11.7528 3.82996 11.5659 3.77818 11.4027 3.68015L10.029 2.85549ZM9.10433 4.1404C9.15161 4.11296 9.21008 4.11339 9.25695 4.14153L10.6306 4.96619C11.0271 5.20422 11.4808 5.32996 11.9432 5.32996H12.0618C12.5232 5.32996 12.976 5.20476 13.3719 4.96771L14.7393 4.14898C14.786 4.12101 14.8442 4.12052 14.8913 4.14771L17.3547 5.5672C17.4019 5.59445 17.4307 5.64522 17.4298 5.69979L17.4029 7.30095C17.3951 7.76329 17.5132 8.21905 17.7445 8.61946L17.8037 8.72194C18.0344 9.12135 18.3691 9.4507 18.7722 9.67494L20.1684 10.4517C20.2159 10.4781 20.2454 10.5281 20.2455 10.5825L20.252 13.4195C20.2521 13.4742 20.2224 13.5247 20.1746 13.5512L18.775 14.3268C18.3703 14.551 18.0343 14.8812 17.8029 15.2818L17.7445 15.3829C17.5132 15.7833 17.3951 16.2391 17.4029 16.7014L17.4298 18.3044C17.4308 18.3589 17.4022 18.4095 17.3551 18.4368L14.8996 19.862C14.8523 19.8894 14.7938 19.889 14.747 19.8608L13.3733 19.0362C12.9768 18.7981 12.5231 18.6724 12.0607 18.6724H11.9421C11.4807 18.6724 11.0279 18.7976 10.632 19.0347L9.26465 19.8534C9.21794 19.8814 9.15975 19.8818 9.11258 19.8547L6.64928 18.4352C6.60198 18.4079 6.57321 18.3572 6.57413 18.3026L6.60107 16.7065C6.60882 16.2476 6.49254 15.795 6.2645 15.3966L6.20192 15.2873C5.97109 14.884 5.63446 14.5515 5.2284 14.3256L3.83554 13.5507C3.78803 13.5243 3.75852 13.4742 3.7584 13.4199L3.75195 10.5828C3.75183 10.5281 3.78147 10.4777 3.82931 10.4512L5.22889 9.67559C5.63357 9.45133 5.96962 9.1212 6.20104 8.72058L6.25945 8.61946C6.49074 8.21906 6.60882 7.7633 6.60104 7.30095L6.57407 5.69792C6.57315 5.64351 6.60175 5.59287 6.64881 5.56555L9.10433 4.1404Z" fill="#292C32"/>
</svg>
