<svg width="24" height="24" viewBox="0 0 24 24" fill="none" xmlns="http://www.w3.org/2000/svg">
<path d="M14.999 15.25C16.2575 15.25 17.3159 16.0961 17.6426 17.25H20.999C21.4132 17.25 21.749 17.5858 21.749 18C21.749 18.4142 21.4132 18.75 20.999 18.75H17.6426C17.3159 19.9039 16.2575 20.75 14.999 20.75C13.7405 20.75 12.6822 19.9039 12.3555 18.75H3C2.58579 18.75 2.25 18.4142 2.25 18C2.25 17.5858 2.58579 17.25 3 17.25H12.3555C12.6822 16.0961 13.7405 15.25 14.999 15.25ZM14.999 16.75C14.312 16.75 13.7543 17.3044 13.749 17.9902C13.7491 17.9935 13.75 17.9967 13.75 18C13.75 18.0029 13.7491 18.0059 13.749 18.0088C13.7537 18.6951 14.3116 19.25 14.999 19.25C15.6893 19.25 16.249 18.6904 16.249 18C16.249 17.3096 15.6893 16.75 14.999 16.75ZM6.99902 9.25C8.2575 9.25002 9.31588 10.0961 9.64258 11.25H20.999C21.4131 11.2501 21.749 11.5859 21.749 12C21.749 12.4141 21.4131 12.7499 20.999 12.75H9.64258C9.31587 13.9039 8.2575 14.75 6.99902 14.75C5.74053 14.75 4.68218 13.9039 4.35547 12.75H3C2.58579 12.75 2.25 12.4142 2.25 12C2.25 11.5858 2.58579 11.25 3 11.25H4.35547C4.68218 10.0961 5.74053 9.25 6.99902 9.25ZM6.99902 10.75C6.31196 10.75 5.75427 11.3044 5.74902 11.9902C5.74906 11.9935 5.75 11.9967 5.75 12C5.75 12.0029 5.74906 12.0059 5.74902 12.0088C5.75375 12.6951 6.31163 13.25 6.99902 13.25C7.68933 13.25 8.24902 12.6904 8.24902 12C8.24902 11.3096 7.68933 10.75 6.99902 10.75ZM17 3.25C18.2585 3.25002 19.3169 4.09615 19.6436 5.25H21C21.4142 5.25002 21.75 5.5858 21.75 6C21.75 6.4142 21.4142 6.74998 21 6.75H19.6436C19.3169 7.90385 18.2585 8.74998 17 8.75C15.7415 8.75 14.6832 7.90385 14.3564 6.75H3C2.58579 6.75 2.25 6.41421 2.25 6C2.25 5.58579 2.58579 5.25 3 5.25H14.3564C14.6832 4.09615 15.7415 3.25 17 3.25ZM17 4.75C16.3097 4.75 15.75 5.30963 15.75 6C15.75 6.69037 16.3097 7.25 17 7.25C17.6903 7.24998 18.25 6.69036 18.25 6C18.25 5.30964 17.6903 4.75002 17 4.75Z" fill="#292C32"/>
</svg>
