<svg width="24" height="24" viewBox="0 0 24 24" fill="none" xmlns="http://www.w3.org/2000/svg">
<path d="M19.2476 3.46997C19.5405 3.17708 20.0162 3.17708 20.3091 3.46997C20.6016 3.76286 20.6018 4.23773 20.3091 4.53052L13.061 11.7786L20.3091 19.0266C20.6016 19.3195 20.6018 19.7944 20.3091 20.0872C20.0163 20.3799 19.5415 20.3797 19.2485 20.0872L12.0005 12.8391L4.75244 20.0872C4.45965 20.3797 3.98475 20.3796 3.69189 20.0872C3.399 19.7943 3.399 19.3185 3.69189 19.0256L10.939 11.7776L3.69189 4.53052C3.399 4.23762 3.399 3.76286 3.69189 3.46997C3.98479 3.17715 4.45957 3.1771 4.75244 3.46997L11.9995 10.717L19.2476 3.46997Z" fill="#292C32"/>
</svg>
