<svg width="24" height="24" viewBox="0 0 24 24" fill="none" xmlns="http://www.w3.org/2000/svg">
<path d="M18 2.25C18.9665 2.25 19.75 3.0335 19.75 4V20C19.75 20.9665 18.9665 21.75 18 21.75H6C5.0335 21.75 4.25 20.9665 4.25 20V4C4.25 3.0335 5.0335 2.25 6 2.25H18ZM6 3.75C5.86193 3.75 5.75 3.86193 5.75 4V20C5.75 20.1381 5.86193 20.25 6 20.25H18C18.1381 20.25 18.25 20.1381 18.25 20V4C18.25 3.86193 18.1381 3.75 18 3.75H6ZM12 17C12.5523 17 13 17.4477 13 18C13 18.5523 12.5523 19 12 19C11.4477 19 11 18.5523 11 18C11 17.4477 11.4477 17 12 17Z" fill="#292C32"/>
</svg>
