<svg width="24" height="24" viewBox="0 0 24 24" fill="none" xmlns="http://www.w3.org/2000/svg">
<path d="M11.9292 1.90039C12.2051 1.90047 12.4603 2.03662 12.6138 2.25977L12.6733 2.36035V2.3623L15.5298 8.40625L21.8853 9.2168L21.8872 9.21777C22.2009 9.26291 22.4615 9.48197 22.5591 9.7832C22.6566 10.0845 22.574 10.4147 22.3462 10.6348V10.6357L17.7681 15.0332L19.0972 21.125L19.0981 21.1289C19.1519 21.4401 19.0235 21.7545 18.7681 21.9404C18.5132 22.1259 18.1756 22.1511 17.896 22.0059L11.8374 18.998L5.83447 22.0068L5.8335 22.0059C5.55383 22.1507 5.21606 22.1259 4.96143 21.9404C4.7064 21.7544 4.57859 21.4398 4.63232 21.1289L4.63428 21.1191H4.63525L6.34521 15.0312L1.65381 10.6367L1.65283 10.6348C1.42512 10.4147 1.34241 10.0844 1.43994 9.7832C1.5375 9.48201 1.79825 9.26298 2.11182 9.21777L2.11377 9.2168L8.396 8.40723L11.1841 2.36328L11.1851 2.36035C11.3255 2.0783 11.6139 1.90042 11.9292 1.90039ZM9.69287 9.53418L9.69189 9.53711C9.57035 9.78129 9.33608 9.95043 9.06592 9.98926H9.06396L4.03467 10.6211L7.8208 14.1455L7.82178 14.1475C8.01938 14.3383 8.10974 14.6142 8.06299 14.8848L8.06104 14.8975L7.96436 14.8682L8.06006 14.8975L6.58643 19.7461L11.4546 17.3271C11.6943 17.2029 11.9795 17.2032 12.2192 17.3271H12.2202L17.1626 19.7559L16.0552 14.8896L16.0532 14.8848V14.8838C16.0069 14.6135 16.098 14.338 16.2954 14.1475V14.1465L19.9673 10.6221L14.8638 9.98926H14.8618C14.5918 9.95037 14.3583 9.78112 14.2368 9.53711L14.2358 9.53516L11.9302 4.6084L9.69287 9.53418Z" fill="#292C32"/>
</svg>
