<svg width="24" height="24" viewBox="0 0 24 24" fill="none" xmlns="http://www.w3.org/2000/svg">
<path d="M19.3716 20.0598C19.6975 19.7417 20.2193 19.7477 20.5376 20.0735C20.8559 20.3995 20.8499 20.9221 20.5239 21.2405C19.9578 21.7932 19.1941 22.0998 18.4018 22.0999H5.28367C4.49139 22.0998 3.72771 21.7932 3.1616 21.2405C2.83562 20.9221 2.82958 20.3995 3.14793 20.0735C3.46626 19.7478 3.98804 19.7416 4.31394 20.0598C4.5678 20.3077 4.91642 20.4504 5.28367 20.4504H18.4018C18.769 20.4504 19.1177 20.3077 19.3716 20.0598ZM11.019 3.03931C11.019 2.58367 11.3886 2.21411 11.8442 2.21411C12.2997 2.21429 12.6684 2.58378 12.6684 3.03931V13.2512L16.2807 9.90942C16.6152 9.60007 17.1374 9.62088 17.4468 9.95532C17.7561 10.2898 17.7362 10.8119 17.4018 11.1213L12.4038 15.7444C12.0876 16.0365 11.5998 16.0366 11.2837 15.7444L6.2866 11.1213C5.95222 10.812 5.93153 10.2898 6.2407 9.95532C6.55004 9.62094 7.07224 9.60024 7.40672 9.90942L11.019 13.2512V3.03931Z" fill="#292C32"/>
</svg>
