<svg width="24" height="24" viewBox="0 0 24 24" fill="none" xmlns="http://www.w3.org/2000/svg">
<path d="M12 2C12.2411 2 12.4731 2.09611 12.6436 2.2666C12.8138 2.43706 12.9092 2.66823 12.9092 2.90918V4.72754C12.9092 4.74685 12.9075 4.766 12.9062 4.78516C16.198 5.19454 18.8046 7.80194 19.2139 11.0938C19.2333 11.0925 19.2528 11.0908 19.2725 11.0908H21.0908C21.3319 11.0908 21.5629 11.1869 21.7334 11.3574C21.9039 11.5279 22 11.7589 22 12C22 12.2411 21.9039 12.4721 21.7334 12.6426C21.5629 12.813 21.3319 12.9092 21.0908 12.9092H19.2725C19.2528 12.9092 19.2334 12.9065 19.2139 12.9053C18.8049 16.1973 16.1982 18.8044 12.9062 19.2139C12.9075 19.2333 12.9092 19.2528 12.9092 19.2725V21.0908C12.9092 21.3317 12.8138 21.563 12.6436 21.7334C12.4731 21.9039 12.2411 22 12 22C11.759 21.9999 11.5278 21.9038 11.3574 21.7334C11.1871 21.5629 11.0918 21.3318 11.0918 21.0908V19.2725C11.0918 19.2528 11.0925 19.2333 11.0938 19.2139C7.80162 18.8046 5.19416 16.1975 4.78516 12.9053C4.76599 12.9065 4.74686 12.9092 4.72754 12.9092H2.90918C2.66812 12.9092 2.43708 12.813 2.2666 12.6426C2.09613 12.4721 2.00002 12.2411 2 12C2 11.7589 2.09611 11.5279 2.2666 11.3574C2.43709 11.1869 2.66807 11.0908 2.90918 11.0908H4.72754C4.74651 11.0908 4.76535 11.0926 4.78418 11.0938C5.19335 7.80166 7.80166 5.19335 11.0938 4.78418C11.0926 4.76536 11.0918 4.7465 11.0918 4.72754V2.90918C11.0918 2.66819 11.1871 2.43707 11.3574 2.2666C11.5278 2.09621 11.759 2.00011 12 2ZM12 6.09082C8.7365 6.09082 6.09082 8.7365 6.09082 12C6.09094 15.2634 8.73657 17.9092 12 17.9092C15.2633 17.9091 17.9091 15.2633 17.9092 12C17.9092 8.73657 15.2634 6.09094 12 6.09082ZM12 8.36426C14.0082 8.36432 15.6366 9.99179 15.6367 12C15.6367 14.0083 14.0083 15.6367 12 15.6367C9.99169 15.6367 8.36328 14.0083 8.36328 12C8.36335 9.99175 9.99174 8.36426 12 8.36426Z" fill="#292C32"/>
</svg>
