<svg width="24" height="24" viewBox="0 0 24 24" fill="none" xmlns="http://www.w3.org/2000/svg">
<path d="M19.08 3.0025C18.99 3.0025 18.89 3.0025 18.8 3.0325L18.67 3.0625C18.58 3.0825 18.49 3.1025 18.4 3.1425L14.47 4.6725L10 3.0825C9.68 2.9725 9.34 2.9725 9.03 3.0825L4.32 4.6625C3.61 4.9025 3 5.5725 3 6.4825V19.0825C3 20.1425 3.85 21.0025 4.92 21.0025C5.01 21.0025 5.11 21.0025 5.2 20.9725L5.33 20.9525C5.42 20.9325 5.51 20.9125 5.6 20.8725L9.53 19.3425L14.01 20.9125C14.33 21.0225 14.67 21.0225 14.98 20.9125L19.68 19.3325C20.39 19.0925 21 18.4225 21 17.5125V4.9225C21 3.8625 20.15 3.0025 19.08 3.0025ZM8.75 18.0425L5.05 19.4725L4.92 19.4925C4.69 19.4925 4.5 19.3125 4.5 19.0725V6.4825C4.5 6.2925 4.62 6.1425 4.8 6.0825L8.75 4.7525V18.0425ZM13.75 6.0025V19.2425L10.25 18.0125V4.7625L13.79 6.0025H13.75ZM19.5 17.5225C19.5 17.7125 19.38 17.8625 19.2 17.9225L15.25 19.2525V6.0025H15.14L18.95 4.5325L19.08 4.5025C19.31 4.5025 19.5 4.6825 19.5 4.9225V17.5225Z" fill="#292C32"/>
</svg>
