<svg width="24" height="24" viewBox="0 0 24 24" fill="none" xmlns="http://www.w3.org/2000/svg">
<path d="M17.5556 8.92611L20.3922 6.10073C20.5616 6.00618 20.7498 5.96155 20.9389 5.97106C21.128 5.98058 21.3118 6.04393 21.4729 6.15511C21.634 6.26628 21.7669 6.4216 21.8592 6.60631C21.9514 6.79102 21.9999 6.999 22 7.21052V16.6072C21.9999 16.8187 21.9514 17.0267 21.8592 17.2114C21.7669 17.3961 21.634 17.5514 21.4729 17.6626C21.3118 17.7738 21.128 17.8372 20.9389 17.8467C20.7498 17.8562 20.5616 17.8116 20.3922 17.717L17.5556 14.8916V8.92611ZM4.22222 20H15.3333C15.9227 20 16.4879 19.7384 16.9047 19.2728C17.3214 18.8072 17.5556 18.1757 17.5556 17.5172V6.48276C17.5556 5.82429 17.3214 5.19279 16.9047 4.72718C16.4879 4.26158 15.9227 4 15.3333 4H4.22222C3.63285 4 3.06762 4.26158 2.65087 4.72718C2.23413 5.19279 2 5.82429 2 6.48276V17.5172C2 18.1757 2.23413 18.8072 2.65087 19.2728C3.06762 19.7384 3.63285 20 4.22222 20Z" fill="#292C32"/>
</svg>
