<svg width="24" height="24" viewBox="0 0 24 24" fill="none" xmlns="http://www.w3.org/2000/svg">
<path d="M19.4922 4C20.8721 4.00024 21.9902 5.11944 21.9902 6.5V17.5C21.9902 18.8806 20.8721 19.9998 19.4922 20H4.49805C3.11791 20 1.99902 18.8807 1.99902 17.5V6.5C1.99902 5.11929 3.11791 4 4.49805 4H19.4922ZM12.6016 13.5205C12.2242 13.7302 11.7651 13.7302 11.3877 13.5205L3.49805 9.13477V17.5C3.49805 18.0523 3.94599 18.5 4.49805 18.5H19.4922C20.044 18.4998 20.4912 18.0521 20.4912 17.5V9.13477L12.6016 13.5205ZM4.49805 5.5C3.94599 5.5 3.49805 5.94772 3.49805 6.5V7.41992L11.9951 12.1416L20.4912 7.41992V6.5C20.4912 5.94787 20.044 5.50024 19.4922 5.5H4.49805Z" fill="#292C32"/>
</svg>
