<svg width="24" height="24" viewBox="0 0 24 24" fill="none" xmlns="http://www.w3.org/2000/svg">
<path d="M12 2C17.5228 2 22 6.47715 22 12C22 17.5228 17.5228 22 12 22C6.47715 22 2 17.5228 2 12C2 6.47715 6.47715 2 12 2ZM12 3.5C7.30558 3.5 3.5 7.30558 3.5 12C3.5 16.6944 7.30558 20.5 12 20.5C16.6944 20.5 20.5 16.6944 20.5 12C20.5 7.30558 16.6944 3.5 12 3.5ZM14.2979 8.6416C14.5907 8.34875 15.0655 8.34883 15.3584 8.6416C15.6513 8.93449 15.6513 9.40926 15.3584 9.70215L13.0605 12L15.3584 14.2979C15.6513 14.5907 15.6513 15.0665 15.3584 15.3594C15.0655 15.6519 14.5906 15.652 14.2979 15.3594L12 13.0605L9.70215 15.3594C9.40938 15.6521 8.93452 15.6519 8.6416 15.3594C8.34871 15.0665 8.34872 14.5917 8.6416 14.2988L10.9395 12L8.6416 9.70215C8.34871 9.40926 8.34871 8.93449 8.6416 8.6416C8.9345 8.34883 9.4093 8.34875 9.70215 8.6416L12 10.9395L14.2979 8.6416Z" fill="#292C32"/>
</svg>
