<svg width="24" height="24" viewBox="0 0 24 24" fill="none" xmlns="http://www.w3.org/2000/svg">
<path d="M16.5 2.25C16.9142 2.25 17.25 2.58579 17.25 3V4H20C21.3807 4 22.5 5.11929 22.5 6.5V19C22.5 20.3807 21.3807 21.5 20 21.5H4C2.61929 21.5 1.5 20.3807 1.5 19V6.5C1.5 5.11929 2.61929 4 4 4H6.75V3C6.75 2.58579 7.08579 2.25 7.5 2.25C7.91421 2.25 8.25 2.58579 8.25 3V4H11.25V3C11.25 2.58579 11.5858 2.25 12 2.25C12.4142 2.25 12.75 2.58579 12.75 3V4H15.75V3C15.75 2.58579 16.0858 2.25 16.5 2.25ZM4 5.5C3.44772 5.5 3 5.94772 3 6.5V19C3 19.5523 3.44772 20 4 20H20C20.5523 20 21 19.5523 21 19V6.5C21 5.94772 20.5523 5.5 20 5.5H17.25V6.5C17.25 6.91421 16.9142 7.25 16.5 7.25C16.0858 7.25 15.75 6.91421 15.75 6.5V5.5H12.75V6.5C12.75 6.91421 12.4142 7.25 12 7.25C11.5858 7.25 11.25 6.91421 11.25 6.5V5.5H8.25V6.5C8.25 6.91421 7.91421 7.25 7.5 7.25C7.08579 7.25 6.75 6.91421 6.75 6.5V5.5H4ZM12 14.25C12.4142 14.25 12.75 14.5858 12.75 15C12.75 15.4142 12.4142 15.75 12 15.75H7C6.58579 15.75 6.25 15.4142 6.25 15C6.25 14.5858 6.58579 14.25 7 14.25H12ZM17 10.25C17.4142 10.25 17.75 10.5858 17.75 11C17.75 11.4142 17.4142 11.75 17 11.75H7C6.58579 11.75 6.25 11.4142 6.25 11C6.25 10.5858 6.58579 10.25 7 10.25H17Z" fill="#292C32"/>
</svg>
