<svg width="24" height="24" viewBox="0 0 24 24" fill="none" xmlns="http://www.w3.org/2000/svg">
<path d="M12 2C17.5228 2 22 6.47715 22 12C22 17.5228 17.5228 22 12 22C6.47715 22 2 17.5228 2 12C2 6.47715 6.47715 2 12 2ZM12 3.5C7.30558 3.5 3.5 7.30558 3.5 12C3.5 16.6944 7.30558 20.5 12 20.5C16.6944 20.5 20.5 16.6944 20.5 12C20.5 7.30558 16.6944 3.5 12 3.5ZM16.127 8.97461C16.4199 8.68209 16.8947 8.68184 17.1875 8.97461C17.4803 9.26738 17.48 9.74223 17.1875 10.0352L11.5303 15.6924C11.4938 15.7288 11.4545 15.7607 11.4131 15.7881C11.3299 15.8431 11.2382 15.8801 11.1436 15.8984C11.0488 15.9168 10.9512 15.9168 10.8564 15.8984C10.7618 15.8801 10.6701 15.8431 10.5869 15.7881C10.5455 15.7607 10.5062 15.7288 10.4697 15.6924L7.6416 12.8643C7.34871 12.5714 7.34871 12.0966 7.6416 11.8037C7.93449 11.5108 8.40926 11.5108 8.70215 11.8037L11 14.1016L16.127 8.97461Z" fill="#292C32"/>
</svg>
