<svg width="24" height="24" viewBox="0 0 24 24" fill="none" xmlns="http://www.w3.org/2000/svg">
<path d="M15 2.25C15.9665 2.25 16.75 3.0335 16.75 4V7.5C16.75 7.91421 16.4142 8.25 16 8.25C15.5858 8.25 15.25 7.91421 15.25 7.5V4C15.25 3.86193 15.1381 3.75 15 3.75H4.5C4.36193 3.75 4.25 3.86193 4.25 4V20C4.25 20.1381 4.36193 20.25 4.5 20.25H15C15.1381 20.25 15.25 20.1381 15.25 20V16.5C15.25 16.0858 15.5858 15.75 16 15.75C16.4142 15.75 16.75 16.0858 16.75 16.5V20C16.75 20.9665 15.9665 21.75 15 21.75H4.5C3.5335 21.75 2.75 20.9665 2.75 20V4C2.75 3.0335 3.5335 2.25 4.5 2.25H15ZM19.2197 8.46973C19.5126 8.17683 19.9874 8.17683 20.2803 8.46973L23.2803 11.4697C23.5731 11.7626 23.5732 12.2374 23.2803 12.5303L20.2803 15.5303C19.9874 15.8231 19.5126 15.8231 19.2197 15.5303C18.9268 15.2374 18.9269 14.7626 19.2197 14.4697L20.9395 12.75H10C9.58581 12.75 9.25003 12.4142 9.25 12C9.25 11.5858 9.58579 11.25 10 11.25H20.9395L19.2197 9.53027C18.9268 9.23739 18.9269 8.76262 19.2197 8.46973Z" fill="#292C32"/>
</svg>
