<svg width="24" height="24" viewBox="0 0 24 24" fill="none" xmlns="http://www.w3.org/2000/svg">
<path d="M2.25 21C2.25 20.5858 2.58579 20.25 3 20.25L21 20.25C21.4142 20.25 21.75 20.5858 21.75 21C21.75 21.4142 21.4142 21.75 21 21.75L3 21.75C2.58579 21.75 2.25 21.4142 2.25 21ZM5.46973 13.5303C5.17683 13.2374 5.17683 12.7626 5.46973 12.4697C5.76262 12.1768 6.23738 12.1768 6.53027 12.4697L11.25 17.1895L11.25 4C11.25 3.58579 11.5858 3.25 12 3.25C12.4142 3.25 12.75 3.58579 12.75 4L12.75 17.1895L17.4697 12.4697C17.7626 12.1768 18.2374 12.1768 18.5303 12.4697C18.8232 12.7626 18.8232 13.2374 18.5303 13.5303L12.707 19.3535C12.3165 19.744 11.6835 19.744 11.293 19.3535L5.46973 13.5303Z" fill="#292C32"/>
</svg>
