<svg width="24" height="24" viewBox="0 0 24 24" fill="none" xmlns="http://www.w3.org/2000/svg">
<path d="M12 14.8799C12.5301 14.8799 12.9597 15.3098 12.96 15.8398C12.96 16.37 12.5302 16.7998 12 16.7998C11.4698 16.7998 11.04 16.37 11.04 15.8398C11.0403 15.3098 11.47 14.8799 12 14.8799Z" fill="#292C32"/>
<path d="M12.9004 8.83496L12.7393 13.5752H11.2607L11.1006 8.82031V7.2002H12.9004V8.83496Z" fill="#292C32"/>
<path fill-rule="evenodd" clip-rule="evenodd" d="M12 2C17.5228 2 22 6.47715 22 12C22 17.5228 17.5228 22 12 22C6.47715 22 2 17.5228 2 12C2 6.47715 6.47715 2 12 2ZM12 3.5C7.30558 3.5 3.5 7.30558 3.5 12C3.5 16.6944 7.30558 20.5 12 20.5C16.6944 20.5 20.5 16.6944 20.5 12C20.5 7.30558 16.6944 3.5 12 3.5Z" fill="#292C32"/>
</svg>
