<svg width="24" height="24" viewBox="0 0 24 24" fill="none" xmlns="http://www.w3.org/2000/svg">
<path fill-rule="evenodd" clip-rule="evenodd" d="M13.7595 4.66608C12.8829 4.2608 11.9066 4.03467 10.8774 4.03467C7.08048 4.03467 4.00244 7.11271 4.00244 10.9097C4.00244 14.7066 7.08048 17.7847 10.8774 17.7847C12.5284 17.7847 14.0428 17.2019 15.228 16.2319L19.0532 20.0581C19.3217 20.3266 19.7574 20.3266 20.0259 20.0581C20.2944 19.7896 20.2944 19.3539 20.0259 19.0854L16.1997 15.2603C16.9314 14.3662 17.4427 13.2848 17.6498 12.0988C17.2694 12.4252 16.7773 12.6166 16.2517 12.6167C16.2038 12.6167 16.1562 12.6151 16.1089 12.612C15.3921 14.8163 13.3209 16.4097 10.8774 16.4097C7.83988 16.4097 5.37744 13.9472 5.37744 10.9097C5.37744 7.8721 7.83988 5.40967 10.8774 5.40967C11.1945 5.40967 11.5052 5.43649 11.8076 5.48799C11.9696 5.37719 12.1485 5.2874 12.3413 5.22314L13.728 4.76025L13.7595 4.66608Z" fill="#292C32"/>
<path d="M16.3684 11.2279C16.6225 11.1808 16.8388 11.0044 16.9386 10.7614C16.9452 10.7452 16.9514 10.7287 16.957 10.7119L17.4532 9.22328C17.4688 9.1765 17.4874 9.13158 17.5084 9.08771C17.6442 8.80493 17.8893 8.58637 18.1909 8.48584L19.6802 7.98877C19.9933 7.88415 20.2044 7.59135 20.2046 7.26123C20.2046 6.93093 19.9934 6.63737 19.6802 6.53271L18.1909 6.03662C17.8426 5.92051 17.5698 5.64664 17.4536 5.29834L16.9565 3.81006C16.8521 3.49667 16.5593 3.28485 16.229 3.28467C15.8985 3.28467 15.605 3.49653 15.5005 3.81006L15.0044 5.29834C14.9945 5.32808 14.9834 5.35728 14.9713 5.38588C14.841 5.69231 14.5847 5.93041 14.2661 6.03662L12.7774 6.5324C12.4639 6.63691 12.2524 6.93032 12.2524 7.2608C12.2524 7.59128 12.4639 7.88469 12.7774 7.9892L14.2661 8.48542C14.6145 8.60154 14.8878 8.87491 15.004 9.22328L15.5002 10.7119C15.6047 11.0255 15.8981 11.2369 16.2286 11.2369C16.2762 11.2369 16.3228 11.2363 16.3684 11.2279Z" fill="#292C32"/>
</svg>
