<svg width="24" height="24" viewBox="0 0 24 24" fill="none" xmlns="http://www.w3.org/2000/svg">
<path d="M20 2.5C21.3807 2.5 22.5 3.61929 22.5 5V19C22.5 20.3807 21.3807 21.5 20 21.5H4C2.61929 21.5 1.5 20.3807 1.5 19V5C1.5 3.61929 2.61929 2.5 4 2.5H20ZM11.248 17.2773C10.8702 17.7238 10.191 17.7524 9.77734 17.3389L6.9375 14.499L3 17.5605V19C3 19.5523 3.44772 20 4 20H20C20.5523 20 21 19.5523 21 19V17.5576C20.9748 17.535 20.9502 17.511 20.9277 17.4844L16 11.6611L11.248 17.2773ZM4 4C3.44772 4 3 4.44772 3 5V15.6611L6.36523 13.0439C6.76332 12.7343 7.32991 12.7694 7.68652 13.126L10.4541 15.8936L15.2363 10.2412C15.6358 9.76914 16.3642 9.76913 16.7637 10.2412L21 15.248V5C21 4.44772 20.5523 4 20 4H4ZM8 6.5C9.38071 6.5 10.5 7.61929 10.5 9C10.5 10.3807 9.38071 11.5 8 11.5C6.61929 11.5 5.5 10.3807 5.5 9C5.5 7.61929 6.61929 6.5 8 6.5ZM8 8C7.44772 8 7 8.44772 7 9C7 9.55228 7.44772 10 8 10C8.55228 10 9 9.55228 9 9C9 8.44772 8.55228 8 8 8Z" fill="#292C32"/>
</svg>
