<svg width="24" height="24" viewBox="0 0 24 24" fill="none" xmlns="http://www.w3.org/2000/svg">
<path d="M3.75 11.1516C4.16421 11.1516 4.5 11.4874 4.5 11.9016C4.50006 13.9191 5.30195 15.854 6.72852 17.2805C7.43485 17.9868 8.27346 18.5477 9.19629 18.9299C10.1191 19.3121 11.1086 19.5081 12.1074 19.5081C12.5214 19.5082 12.8572 19.8441 12.8574 20.2581C12.8574 20.6722 12.5215 21.0079 12.1074 21.0081C10.9115 21.0081 9.72694 20.7733 8.62207 20.3157C7.51714 19.858 6.51267 19.1867 5.66699 18.3411C3.95927 16.6332 3.00006 14.3168 3 11.9016C3 11.4874 3.33579 11.1516 3.75 11.1516ZM20.4707 11.1516C20.8848 11.1553 21.2184 11.4943 21.2148 11.9084C21.2032 13.2445 20.9366 14.5642 20.4336 15.7981C20.9158 16.2825 21.2148 16.9503 21.2148 17.6877C21.2146 19.1668 20.0152 20.3662 18.5361 20.3665C17.0569 20.3665 15.8576 19.1669 15.8574 17.6877C15.8574 16.2084 17.0568 15.009 18.5361 15.009C18.7315 15.0091 18.922 15.0308 19.1055 15.0706C19.4958 14.0585 19.7053 12.9832 19.7148 11.8948C19.7186 11.4809 20.0568 11.1482 20.4707 11.1516ZM18.5361 16.509C17.8852 16.509 17.3574 17.0368 17.3574 17.6877C17.3576 18.3385 17.8854 18.8665 18.5361 18.8665C19.1867 18.8662 19.7146 18.3384 19.7148 17.6877C19.7148 17.2705 19.4971 16.904 19.1699 16.6946C19.1437 16.6811 19.1187 16.6657 19.0947 16.6497C18.9286 16.56 18.7382 16.5091 18.5361 16.509ZM12.1074 10.509C12.3351 10.5091 12.5501 10.6126 12.6924 10.7903L15.2646 14.0042C15.5234 14.3275 15.4708 14.8001 15.1475 15.0588C14.824 15.3176 14.3515 15.2651 14.0928 14.9417L11.7471 12.009H8.25C7.83587 12.009 7.50013 11.6731 7.5 11.259C7.5 10.8448 7.83579 10.509 8.25 10.509H12.1074ZM4.81543 6.40161C5.06912 6.07432 5.54077 6.01519 5.86816 6.2688C6.19521 6.52245 6.25526 6.99323 6.00195 7.32056C5.58282 7.86163 5.24062 8.45857 4.98633 9.09399C4.83249 9.47846 4.39622 9.66563 4.01172 9.51196C3.62723 9.35811 3.44005 8.92186 3.59375 8.53735C3.89985 7.77236 4.31084 7.053 4.81543 6.40161ZM18.3467 6.2688C18.674 6.01524 19.1447 6.07449 19.3984 6.40161C19.903 7.053 20.314 7.77236 20.6201 8.53735C20.7739 8.92183 20.5875 9.35802 20.2031 9.51196C19.8186 9.66584 19.3814 9.47856 19.2275 9.09399C18.9733 8.45862 18.632 7.86159 18.2129 7.32056C17.9592 6.9931 18.0192 6.52246 18.3467 6.2688ZM10.0576 3.01782C10.4623 2.9297 10.8621 3.18633 10.9502 3.59106C11.038 3.99553 10.7814 4.39445 10.377 4.48267C9.63511 4.64419 8.92213 4.9204 8.26465 5.30005C7.90608 5.50676 7.44733 5.38403 7.24023 5.02563C7.03312 4.66695 7.15599 4.20739 7.51465 4.00024C8.30629 3.54313 9.16441 3.21231 10.0576 3.01782ZM13.2646 3.59106C13.3528 3.18633 13.7525 2.9297 14.1572 3.01782C15.0502 3.2123 15.9078 3.5433 16.6992 4.00024C17.0579 4.20737 17.1808 4.66693 16.9736 5.02563C16.7664 5.38399 16.3078 5.50703 15.9492 5.30005C15.2918 4.92042 14.5797 4.6442 13.8379 4.48267C13.4333 4.39457 13.1768 3.99566 13.2646 3.59106Z" fill="#292C32"/>
</svg>
