<svg width="24" height="24" viewBox="0 0 24 24" fill="none" xmlns="http://www.w3.org/2000/svg">
<path fill-rule="evenodd" clip-rule="evenodd" d="M15.0555 3.884C16.1294 2.81006 17.8706 2.81005 18.9445 3.884L20.3595 5.299C21.4331 6.37252 21.4335 8.11289 20.3606 9.187L8.82358 20.7369C8.49534 21.0655 8.04993 21.2501 7.58546 21.2501L4.51611 21.2501C3.53867 21.2501 2.75072 20.4495 2.76634 19.4721L2.8086 16.828C2.81586 16.3736 2.9996 15.9399 3.32094 15.6185L15.0555 3.884ZM17.8839 4.94466C17.3957 4.4565 16.6043 4.4565 16.1161 4.94466L14.3107 6.75011L17.4944 9.93388L19.2994 8.12693C19.7871 7.6387 19.7868 6.84762 19.2989 6.35966L17.8839 4.94466ZM16.4344 10.9951L13.25 7.81077L4.3816 16.6792C4.33569 16.7251 4.30944 16.787 4.30841 16.852L4.26615 19.4961C4.26391 19.6357 4.37648 19.7501 4.51611 19.7501L7.58546 19.7501C7.65181 19.7501 7.71544 19.7237 7.76233 19.6768L16.4344 10.9951Z" fill="#292C32"/>
</svg>
