<svg width="24" height="24" viewBox="0 0 24 24" fill="none" xmlns="http://www.w3.org/2000/svg">
<path d="M4.51123 16.4197C4.96665 16.4199 5.33545 16.7894 5.33545 17.2449C5.33525 17.7002 4.96653 18.0688 4.51123 18.0691H4.50244C4.04693 18.0691 3.67744 17.7003 3.67725 17.2449C3.67725 16.7892 4.04681 16.4197 4.50244 16.4197H4.51123ZM19.4927 16.4197C19.9483 16.4197 20.3179 16.7892 20.3179 17.2449C20.3177 17.7003 19.9482 18.0691 19.4927 18.0691H8.6665C8.211 18.0691 7.84151 17.7003 7.84131 17.2449C7.84131 16.7892 8.21087 16.4197 8.6665 16.4197H19.4927ZM4.51123 11.4226C4.96665 11.4229 5.33545 11.7923 5.33545 12.2478C5.33535 12.7032 4.96659 13.0727 4.51123 13.073H4.50244C4.04687 13.073 3.67735 12.7034 3.67725 12.2478C3.67725 11.7922 4.04681 11.4226 4.50244 11.4226H4.51123ZM19.4927 11.4226C19.9483 11.4226 20.3179 11.7922 20.3179 12.2478C20.3178 12.7034 19.9482 13.073 19.4927 13.073H8.6665C8.21093 13.073 7.84141 12.7034 7.84131 12.2478C7.84131 11.7922 8.21087 11.4226 8.6665 11.4226H19.4927ZM4.51123 6.42554C4.96665 6.42579 5.33545 6.79525 5.33545 7.25073C5.33545 7.70621 4.96665 8.07568 4.51123 8.07593H4.50244C4.04681 8.07593 3.67725 7.70637 3.67725 7.25073C3.67725 6.7951 4.04681 6.42554 4.50244 6.42554H4.51123ZM19.4927 6.42554C19.9483 6.42554 20.3179 6.7951 20.3179 7.25073C20.3179 7.70637 19.9483 8.07593 19.4927 8.07593H8.6665C8.21087 8.07592 7.84131 7.70636 7.84131 7.25073C7.84131 6.7951 8.21087 6.42554 8.6665 6.42554H19.4927Z" fill="#292C32"/>
</svg>
