<svg width="24" height="24" viewBox="0 0 24 24" fill="none" xmlns="http://www.w3.org/2000/svg">
<path fill-rule="evenodd" clip-rule="evenodd" d="M10.8422 3.19268C11.5037 2.60244 12.4963 2.60244 13.1578 3.19268L20.1578 9.43847C20.5363 9.77619 20.75 10.2604 20.75 10.7655V19.4803C20.75 20.4438 19.9802 21.25 19 21.25H15C14.0198 21.25 13.25 20.4438 13.25 19.4803V15.4014C13.25 15.2386 13.1243 15.1317 13 15.1317H11C10.8757 15.1317 10.75 15.2386 10.75 15.4014V19.4803C10.75 20.4438 9.98024 21.25 9 21.25H5C4.01976 21.25 3.25 20.4438 3.25 19.4803V10.7655C3.25 10.2604 3.46367 9.77619 3.84217 9.43847L10.8422 3.19268ZM12.1592 4.31192C12.0666 4.22936 11.9334 4.22936 11.8408 4.31192L4.84082 10.5577C4.78529 10.6073 4.75 10.6825 4.75 10.7655V19.4803C4.75 19.6431 4.87567 19.75 5 19.75H9C9.12433 19.75 9.25 19.6431 9.25 19.4803V15.4014C9.25 14.4379 10.0198 13.6317 11 13.6317H13C13.9802 13.6317 14.75 14.4379 14.75 15.4014V19.4803C14.75 19.6431 14.8757 19.75 15 19.75H19C19.1243 19.75 19.25 19.6431 19.25 19.4803V10.7655C19.25 10.6825 19.2147 10.6073 19.1592 10.5577L12.1592 4.31192Z" fill="#292C32"/>
</svg>
