<svg width="24" height="24" viewBox="0 0 24 24" fill="none" xmlns="http://www.w3.org/2000/svg">
<path d="M11.640 0.909 C 9.910 0.962,8.139 1.449,6.629 2.286 C 4.566 3.429,2.850 5.280,1.907 7.380 C 0.490 10.533,0.571 13.998,2.131 17.053 C 3.754 20.232,6.810 22.424,10.400 22.982 C 11.312 23.124,12.877 23.103,13.860 22.936 C 18.402 22.165,22.014 18.631,22.895 14.094 C 23.042 13.341,23.088 12.809,23.094 11.821 C 23.101 10.800,23.074 10.656,22.826 10.374 C 22.383 9.871,21.618 9.870,21.176 10.371 C 21.088 10.472,20.992 10.623,20.963 10.707 C 20.928 10.808,20.900 11.230,20.879 11.960 C 20.859 12.698,20.826 13.185,20.780 13.440 C 20.069 17.394,17.065 20.288,13.120 20.822 C 12.627 20.888,11.483 20.898,10.999 20.839 C 8.958 20.592,7.158 19.720,5.719 18.281 C 4.307 16.869,3.447 15.121,3.178 13.120 C 3.102 12.553,3.105 11.446,3.184 10.834 C 3.702 6.819,6.916 3.647,10.960 3.161 C 11.512 3.094,12.655 3.105,13.200 3.181 C 13.971 3.289,14.650 3.471,15.371 3.761 C 16.009 4.019,16.308 4.016,16.705 3.749 C 16.850 3.652,16.932 3.555,17.033 3.360 C 17.155 3.123,17.166 3.075,17.152 2.820 C 17.117 2.172,16.832 1.926,15.642 1.515 C 14.365 1.074,13.000 0.867,11.640 0.909 M21.749 2.921 C 21.665 2.942,21.539 2.988,21.469 3.024 C 21.398 3.059,19.239 5.187,16.671 7.753 L 12.002 12.418 10.811 11.235 C 9.465 9.898,9.466 9.899,8.952 9.927 C 8.618 9.946,8.432 10.022,8.217 10.230 C 8.006 10.436,7.904 10.685,7.902 11.000 C 7.898 11.512,7.879 11.487,9.616 13.234 C 10.476 14.099,11.252 14.857,11.340 14.918 C 11.687 15.158,12.138 15.199,12.495 15.024 C 12.660 14.942,13.690 13.932,17.806 9.811 C 21.491 6.123,22.937 4.650,23.001 4.521 C 23.123 4.278,23.149 3.908,23.064 3.651 C 22.891 3.130,22.276 2.790,21.749 2.921 " fill="#292C32" stroke="none" fill-rule="evenodd"/>
</svg>