<svg width="24" height="24" viewBox="0 0 24 24" fill="none" xmlns="http://www.w3.org/2000/svg">
<path d="M11 4.24609C11.4142 4.24609 11.75 4.58188 11.75 4.99609C11.7499 5.41024 11.4142 5.74609 11 5.74609H5.5C5.08579 5.74609 4.75 6.08188 4.75 6.49609V18.4961C4.75008 18.9102 5.08583 19.2461 5.5 19.2461H17.5C17.9142 19.2461 18.2499 18.9102 18.25 18.4961V12.9961C18.25 12.5819 18.5858 12.2461 19 12.2461C19.4142 12.2461 19.75 12.5819 19.75 12.9961V18.4961C19.7499 19.7387 18.7426 20.7461 17.5 20.7461H5.5C4.25741 20.7461 3.25008 19.7387 3.25 18.4961V6.49609C3.25 5.25345 4.25736 4.24609 5.5 4.24609H11ZM16.7627 3.17285C17.4461 2.48943 18.5539 2.48943 19.2373 3.17285L20.8232 4.75879C21.5065 5.44222 21.5066 6.55003 20.8232 7.2334L12.3232 15.7334C11.9951 16.0616 11.55 16.2461 11.0859 16.2461H9.5C8.53355 16.2461 7.75008 15.4625 7.75 14.4961V12.9102C7.75 12.446 7.93451 12.001 8.2627 11.6729L16.7627 3.17285ZM9.32324 12.7334C9.27636 12.7803 9.25 12.8439 9.25 12.9102V14.4961C9.25008 14.6341 9.36198 14.7461 9.5 14.7461H11.0859C11.1522 14.7461 11.2158 14.7197 11.2627 14.6729L17.6895 8.24609L15.75 6.30664L9.32324 12.7334ZM18.1768 4.2334C18.0791 4.13577 17.9209 4.13577 17.8232 4.2334L16.8105 5.24609L18.75 7.18555L19.7627 6.17285C19.8603 6.07527 19.8602 5.91698 19.7627 5.81934L18.1768 4.2334Z" fill="#292C32"/>
</svg>
