<svg width="24" height="24" viewBox="0 0 24 24" fill="none" xmlns="http://www.w3.org/2000/svg">
<path d="M5.46855 5.46871C5.76141 5.17588 6.23718 5.17592 6.53007 5.46871L18.5301 17.4696C18.8225 17.7626 18.8228 18.2374 18.5301 18.5302C18.2372 18.8231 17.7614 18.8231 17.4685 18.5302L16.2029 17.2646L15.7351 19.1415C15.5466 19.8955 14.6071 20.1557 14.0574 19.6064L9.75663 15.3056L4.03008 21.0331C3.73718 21.3259 3.26241 21.326 2.96953 21.0331C2.67688 20.7402 2.67676 20.2654 2.96953 19.9726L8.69609 14.245L4.78203 10.331C4.23299 9.78141 4.49326 8.84294 5.24687 8.65424L7.12187 8.18354L5.46855 6.53023C5.17576 6.23733 5.17569 5.76157 5.46855 5.46871ZM6.46757 9.89447L14.4939 17.9218L14.9656 16.0273L8.35917 9.42084L6.46757 9.89447ZM14.074 2.39254C14.3793 1.78231 15.193 1.65035 15.6756 2.13278L22.2566 8.71284C22.739 9.19544 22.6061 10.0091 21.9959 10.3144L19.5877 11.5185L17.0828 14.0224L16.0223 12.9618L18.5838 10.4013C18.6596 10.3256 18.7478 10.2627 18.8435 10.2148L20.7058 9.28315L15.1053 3.68356L14.1746 5.54488C14.1266 5.64091 14.063 5.72968 13.9871 5.80562L11.4266 8.36616L10.366 7.30561L12.8699 4.80172L14.074 2.39254Z" fill="#292C32"/>
</svg>
