<svg width="24" height="24" viewBox="0 0 24 24" fill="none" xmlns="http://www.w3.org/2000/svg">
<path d="M12 2.2998C17.3571 2.29991 21.7002 6.6429 21.7002 12C21.7001 17.357 17.357 21.7001 12 21.7002C6.6429 21.7002 2.29991 17.3571 2.2998 12C2.2998 11.6134 2.6134 11.2998 3 11.2998C3.38651 11.2999 3.7002 11.6135 3.7002 12C3.7003 16.5839 7.4161 20.2998 12 20.2998C16.5838 20.2997 20.2997 16.5838 20.2998 12C20.2998 7.4161 16.5839 3.7003 12 3.7002C11.6135 3.7002 11.2999 3.38651 11.2998 3C11.2998 2.6134 11.6134 2.2998 12 2.2998Z" fill="#292C32"/>
<path d="M12 7.2998C12.3865 7.29991 12.7002 7.61347 12.7002 8V11.8096L14.0049 10.5049C14.2782 10.2315 14.7218 10.2315 14.9951 10.5049C15.2683 10.7783 15.2684 11.2218 14.9951 11.4951L12.4951 13.9951L12.1895 14.2998H15C15.3865 14.2999 15.7002 14.6135 15.7002 15C15.7001 15.3864 15.3864 15.7001 15 15.7002H9C8.61347 15.7002 8.29991 15.3865 8.2998 15C8.2998 14.6134 8.6134 14.2998 9 14.2998H11.8096L9.00488 11.4951C8.73152 11.2218 8.73152 10.7782 9.00488 10.5049C9.27825 10.2315 9.72175 10.2315 9.99512 10.5049L11.2998 11.8096V8C11.2998 7.6134 11.6134 7.2998 12 7.2998Z" fill="#292C32"/>
<path fill-rule="evenodd" clip-rule="evenodd" d="M4.03125 8.39258H3.0498L2.8252 7.49902H1.67578L1.45117 8.39258H0.5L1.70703 4.5H2.8252L4.03125 8.39258ZM1.93652 6.44824L1.85352 6.77734H2.64746L2.56348 6.44824C2.45905 6.06181 2.36028 5.59704 2.25586 5.2002H2.23438C2.14038 5.60753 2.03575 6.06177 1.93652 6.44824Z" fill="#292C32"/>
<path fill-rule="evenodd" clip-rule="evenodd" d="M5.78223 4.5C6.63379 4.5 7.33984 4.80825 7.33984 5.76953C7.33984 6.69416 6.62908 7.1015 5.80371 7.10156H5.34863V8.39258H4.41406V4.5H5.78223ZM5.34863 6.36523H5.75684C6.21113 6.36513 6.43066 6.15081 6.43066 5.76953C6.43066 5.37773 6.17971 5.2422 5.73047 5.24219H5.34863V6.36523Z" fill="#292C32"/>
<path fill-rule="evenodd" clip-rule="evenodd" d="M9.34277 4.5C10.1943 4.5 10.9004 4.80825 10.9004 5.76953C10.9004 6.69415 10.1896 7.10149 9.36426 7.10156H8.90918V8.39258H7.97461V4.5H9.34277ZM8.90918 6.36523H9.31738C9.77165 6.36512 9.99121 6.1508 9.99121 5.76953C9.99121 5.37774 9.74024 5.24221 9.29102 5.24219H8.90918V6.36523Z" fill="#292C32"/>
</svg>
