<svg width="24" height="24" viewBox="0 0 24 24" fill="none" xmlns="http://www.w3.org/2000/svg">
<path fill-rule="evenodd" clip-rule="evenodd" d="M6.25 5.5C6.25 3.98122 7.48122 2.75 9 2.75H20C21.5188 2.75 22.75 3.98122 22.75 5.5V13.5C22.75 15.0188 21.5188 16.25 20 16.25V14.75C20.6904 14.75 21.25 14.1904 21.25 13.5V5.5C21.25 4.80964 20.6904 4.25 20 4.25H9C8.30964 4.25 7.75 4.80964 7.75 5.5V6.5C7.75 6.91421 7.41421 7.25 7 7.25C6.58579 7.25 6.25 6.91421 6.25 6.5V5.5Z" fill="#292C32"/>
<path fill-rule="evenodd" clip-rule="evenodd" d="M1.25 11C1.25 9.48122 2.48122 8.25 4 8.25H16C17.5188 8.25 18.75 9.48122 18.75 11V19C18.75 20.5188 17.5188 21.75 16 21.75H4C2.48122 21.75 1.25 20.5188 1.25 19V11ZM4 9.75C3.30964 9.75 2.75 10.3096 2.75 11V19C2.75 19.6904 3.30964 20.25 4 20.25H16C16.6904 20.25 17.25 19.6904 17.25 19V11C17.25 10.3096 16.6904 9.75 16 9.75H4Z" fill="#292C32"/>
<path fill-rule="evenodd" clip-rule="evenodd" d="M1.25 14C1.25 13.5858 1.58579 13.25 2 13.25H18C18.4142 13.25 18.75 13.5858 18.75 14C18.75 14.4142 18.4142 14.75 18 14.75H2C1.58579 14.75 1.25 14.4142 1.25 14Z" fill="#292C32"/>
<path fill-rule="evenodd" clip-rule="evenodd" d="M4.25 17C4.25 16.5858 4.58579 16.25 5 16.25H10C10.4142 16.25 10.75 16.5858 10.75 17C10.75 17.4142 10.4142 17.75 10 17.75H5C4.58579 17.75 4.25 17.4142 4.25 17Z" fill="#292C32"/>
<path fill-rule="evenodd" clip-rule="evenodd" d="M12.25 17C12.25 16.5858 12.5858 16.25 13 16.25H15C15.4142 16.25 15.75 16.5858 15.75 17C15.75 17.4142 15.4142 17.75 15 17.75H13C12.5858 17.75 12.25 17.4142 12.25 17Z" fill="#292C32"/>
</svg>
