<svg width="24" height="24" viewBox="0 0 24 24" fill="none" xmlns="http://www.w3.org/2000/svg">
<path fill-rule="evenodd" clip-rule="evenodd" d="M3.36654 11.526C3.2728 11.7825 3.25 11.9381 3.25 12C3.25 12.0619 3.2728 12.2175 3.36654 12.474C3.45606 12.719 3.59581 13.0169 3.78922 13.35C4.17596 14.016 4.7576 14.789 5.51983 15.5219C7.04484 16.9882 9.2427 18.25 12 18.25C14.7573 18.25 16.9552 16.9882 18.4802 15.5219C19.2424 14.789 19.824 14.016 20.2108 13.35C20.4042 13.0169 20.5439 12.719 20.6335 12.474C20.7272 12.2175 20.75 12.0619 20.75 12C20.75 11.9381 20.7272 11.7825 20.6335 11.526C20.5439 11.281 20.4042 10.9831 20.2108 10.65C19.824 9.98397 19.2424 9.21104 18.4802 8.47812C16.9552 7.01177 14.7573 5.75 12 5.75C9.2427 5.75 7.04484 7.01177 5.51983 8.47812C4.7576 9.21104 4.17596 9.98397 3.78922 10.65C3.59581 10.9831 3.45606 11.281 3.36654 11.526ZM4.48017 16.6031C6.20516 18.2618 8.7573 19.75 12 19.75C15.2427 19.75 17.7948 18.2618 19.5198 16.6031C20.3826 15.7735 21.051 14.8902 21.508 14.1032C21.7364 13.7097 21.917 13.3318 22.0423 12.9889C22.1634 12.6575 22.25 12.3131 22.25 12C22.25 11.6869 22.1634 11.3425 22.0423 11.0111C21.917 10.6682 21.7364 10.2903 21.508 9.89684C21.051 9.10978 20.3826 8.22646 19.5198 7.39688C17.7948 5.73823 15.2427 4.25 12 4.25C8.7573 4.25 6.20516 5.73823 4.48017 7.39688C3.6174 8.22646 2.94904 9.10978 2.49203 9.89684C2.26357 10.2903 2.083 10.6682 1.95768 11.0111C1.83658 11.3425 1.75 11.6869 1.75 12C1.75 12.3131 1.83658 12.6575 1.95768 12.9889C2.083 13.3318 2.26357 13.7097 2.49203 14.1032C2.94904 14.8902 3.6174 15.7735 4.48017 16.6031ZM12 16.5C14.4853 16.5 16.5 14.4853 16.5 12C16.5 9.51472 14.4853 7.5 12 7.5C9.51472 7.5 7.5 9.51472 7.5 12C7.5 14.4853 9.51472 16.5 12 16.5ZM15 12C15 13.6569 13.6569 15 12 15C10.3431 15 9 13.6569 9 12C9 10.3431 10.3431 9 12 9C13.6569 9 15 10.3431 15 12Z" fill="#292C32"/>
</svg>
