<svg width="24" height="24" viewBox="0 0 24 24" fill="none" xmlns="http://www.w3.org/2000/svg">
<path d="M12 4C10.4178 4 8.87103 4.46919 7.55544 5.34824C6.23985 6.22729 5.21447 7.47673 4.60897 8.93854C4.00347 10.4003 3.84504 12.0089 4.15372 13.5607C4.4624 15.1126 5.22434 16.538 6.34316 17.6569C7.46198 18.7757 8.88744 19.5376 10.4393 19.8463C11.9911 20.155 13.5997 19.9965 15.0615 19.391C16.5233 18.7855 17.7727 17.7602 18.6518 16.4446C19.5308 15.129 20 13.5822 20 12C20 9.87827 19.1572 7.84344 17.6569 6.34315C16.1566 4.84286 14.1217 4 12 4ZM12.49 8V9.25L12.34 14.34H11.59L11.44 9.25V8H12.49ZM11.93 17.14C11.8237 17.1401 11.7184 17.1187 11.6206 17.0771C11.5227 17.0356 11.4343 16.9747 11.3605 16.8981C11.2867 16.8215 11.2292 16.7309 11.1913 16.6315C11.1534 16.5322 11.136 16.4262 11.14 16.32C11.14 16.1105 11.2232 15.9095 11.3714 15.7614C11.5195 15.6132 11.7205 15.53 11.93 15.53C12.1395 15.53 12.3405 15.6132 12.4886 15.7614C12.6368 15.9095 12.72 16.1105 12.72 16.32C12.7269 16.4274 12.7115 16.5351 12.6748 16.6363C12.6381 16.7374 12.5808 16.8299 12.5066 16.9078C12.4324 16.9858 12.3429 17.0476 12.2436 17.0892C12.1444 17.1309 12.0376 17.1516 11.93 17.15V17.14Z" fill="#292C32"/>
</svg>
