<svg width="24" height="24" viewBox="0 0 24 24" fill="none" xmlns="http://www.w3.org/2000/svg">
<path d="M18.25 16.5C18.25 16.0858 17.9142 15.75 17.5 15.75C17.0858 15.75 16.75 16.0858 16.75 16.5V18.5C16.75 18.9142 17.0858 19.25 17.5 19.25H19.5C19.9142 19.25 20.25 18.9142 20.25 18.5C20.25 18.0858 19.9142 17.75 19.5 17.75H18.25V16.5Z" fill="#292C32"/>
<path d="M16.75 11C16.75 11.4142 16.4142 11.75 16 11.75H6C5.58579 11.75 5.25 11.4142 5.25 11C5.25 10.5858 5.58579 10.25 6 10.25H16C16.4142 10.25 16.75 10.5858 16.75 11Z" fill="#292C32"/>
<path d="M11.75 15C11.75 15.4142 11.4142 15.75 11 15.75H6C5.58579 15.75 5.25 15.4142 5.25 15C5.25 14.5858 5.58579 14.25 6 14.25H11C11.4142 14.25 11.75 14.5858 11.75 15Z" fill="#292C32"/>
<path fill-rule="evenodd" clip-rule="evenodd" d="M7.25 3C7.25 2.58579 6.91421 2.25 6.5 2.25C6.08579 2.25 5.75 2.58579 5.75 3V4H4C2.61929 4 1.5 5.11929 1.5 6.5V19C1.5 20.3807 2.61929 21.5 4 21.5H15.1713C15.9442 22.1254 16.9284 22.5 18 22.5C20.4853 22.5 22.5 20.4853 22.5 18C22.5 16.4398 21.706 15.065 20.5 14.2578V6.5C20.5 5.11929 19.3807 4 18 4H16.25V3C16.25 2.58579 15.9142 2.25 15.5 2.25C15.0858 2.25 14.75 2.58579 14.75 3V4H11.75V3C11.75 2.58579 11.4142 2.25 11 2.25C10.5858 2.25 10.25 2.58579 10.25 3V4H7.25V3ZM20.5 16.3411C20.1431 15.8044 19.618 15.3892 19 15.1707C18.6872 15.0602 18.3506 15 18 15C16.3431 15 15 16.3431 15 18C15 18.7684 15.2889 19.4692 15.7639 20C16.3132 20.6137 17.1115 21 18 21C18.948 21 19.7933 20.5603 20.3431 19.8736C20.7542 19.3602 21 18.7088 21 18C21 17.3866 20.8159 16.8163 20.5 16.3411ZM13.9678 20C13.6684 19.3975 13.5 18.7184 13.5 18C13.5 15.5147 15.5147 13.5 18 13.5C18.3437 13.5 18.6784 13.5385 19 13.6115V6.5C19 5.94772 18.5523 5.5 18 5.5H16.25V6.5C16.25 6.91421 15.9142 7.25 15.5 7.25C15.0858 7.25 14.75 6.91421 14.75 6.5V5.5H11.75V6.5C11.75 6.91421 11.4142 7.25 11 7.25C10.5858 7.25 10.25 6.91421 10.25 6.5V5.5H7.25V6.5C7.25 6.91421 6.91421 7.25 6.5 7.25C6.08579 7.25 5.75 6.91421 5.75 6.5V5.5H4C3.44772 5.5 3 5.94771 3 6.5V19C3 19.5523 3.44772 20 4 20H13.9678Z" fill="#292C32"/>
</svg>
