<svg width="24" height="24" viewBox="0 0 24 24" fill="none" xmlns="http://www.w3.org/2000/svg">
<path d="M17 14.25C17.4142 14.25 17.75 14.5858 17.75 15C17.75 15.4142 17.4142 15.75 17 15.75H12C11.5858 15.75 11.25 15.4142 11.25 15C11.25 14.5858 11.5858 14.25 12 14.25H17Z" fill="#292C32"/>
<path fill-rule="evenodd" clip-rule="evenodd" d="M19 4.25C20.5188 4.25 21.75 5.48122 21.75 7V17C21.75 18.5188 20.5188 19.75 19 19.75H5C3.48122 19.75 2.25 18.5188 2.25 17V7C2.25 5.48122 3.48122 4.25 5 4.25H19ZM20.25 9.7041C20.1715 9.73197 20.088 9.75 20 9.75H4C3.91196 9.75 3.82848 9.73197 3.75 9.7041V17C3.75 17.6904 4.30964 18.25 5 18.25H19C19.6904 18.25 20.25 17.6904 20.25 17V9.7041ZM5 5.75C4.30964 5.75 3.75 6.30964 3.75 7V8.29492C3.82839 8.26712 3.91208 8.25 4 8.25H20C20.0879 8.25 20.1716 8.26712 20.25 8.29492V7C20.25 6.30964 19.6904 5.75 19 5.75H5Z" fill="#292C32"/>
</svg>
