<svg width="24" height="24" viewBox="0 0 24 24" fill="none" xmlns="http://www.w3.org/2000/svg">
<path d="M14.75 2.25C15.8546 2.25 16.75 3.14543 16.75 4.25V6H20C21.3807 6 22.5 7.11929 22.5 8.5V19C22.5 20.3807 21.3807 21.5 20 21.5H4C2.61929 21.5 1.5 20.3807 1.5 19V8.5C1.5 7.11929 2.61929 6 4 6H7.25V4.25C7.25 3.14543 8.14543 2.25 9.25 2.25H14.75ZM14.75 13.75V14.25C14.75 14.8023 14.3023 15.25 13.75 15.25H10.25C9.69771 15.25 9.25 14.8023 9.25 14.25V13.75H3V19C3 19.5523 3.44772 20 4 20H20C20.5523 20 21 19.5523 21 19V13.75H14.75ZM10.75 13.75H13.25V12.25H10.75V13.75ZM4 7.5C3.44772 7.5 3 7.94772 3 8.5V12.25H9.25V11.75C9.25 11.1977 9.69772 10.75 10.25 10.75H13.75C14.3023 10.75 14.75 11.1977 14.75 11.75V12.25H21V8.5C21 7.94772 20.5523 7.5 20 7.5H4ZM9.25 3.75C8.97386 3.75 8.75 3.97386 8.75 4.25V6H15.25V4.25C15.25 3.97386 15.0261 3.75 14.75 3.75H9.25Z" fill="#292C32"/>
</svg>
