<svg width="24" height="24" viewBox="0 0 24 24" fill="none" xmlns="http://www.w3.org/2000/svg">
<path d="M12 2C17.5228 2 22 6.47715 22 12C22 17.5228 17.5228 22 12 22C6.47715 22 2 17.5228 2 12C2 6.47715 6.47715 2 12 2ZM12 3.5C7.30558 3.5 3.5 7.30558 3.5 12C3.5 16.6944 7.30558 20.5 12 20.5C16.6944 20.5 20.5 16.6944 20.5 12C20.5 7.30558 16.6944 3.5 12 3.5ZM15.498 9.0957C15.6415 8.70713 16.074 8.50556 16.4639 8.64551C16.8533 8.78564 17.0534 9.21415 16.9102 9.60254L16.7363 10.0742H17.2549C17.6686 10.0748 18.0049 10.4104 18.0049 10.8242C18.0046 11.2378 17.6684 11.5736 17.2549 11.5742H16.1826L14.5762 15.9268C14.5522 15.9917 14.5171 16.0497 14.4785 16.1035C14.399 16.3267 14.2149 16.5087 13.9678 16.5742C13.5675 16.68 13.1547 16.4415 13.0459 16.042L12.0039 12.21L10.9639 16.042C10.8553 16.4415 10.4422 16.6797 10.042 16.5742C9.79461 16.5088 9.60985 16.3269 9.53027 16.1035C9.49179 16.0498 9.45658 15.9916 9.43262 15.9268L7.82715 11.5742H6.75488L6.67871 11.5703C6.30064 11.532 6.00518 11.2123 6.00488 10.8242C6.00488 10.4359 6.30047 10.1165 6.67871 10.0781L6.75488 10.0742H7.27344L7.09961 9.60254C6.95621 9.21394 7.15604 8.78546 7.5459 8.64551C7.93548 8.50615 8.36738 8.70749 8.51074 9.0957L10.1143 13.4424L11.2793 9.15723C11.281 9.15097 11.2833 9.14485 11.2852 9.13867C11.3555 8.89615 11.5449 8.69456 11.8076 8.625C11.8729 8.6078 11.9394 8.60226 12.0039 8.60254C12.0689 8.60215 12.1355 8.60766 12.2012 8.625C12.4659 8.69515 12.6567 8.89947 12.7256 9.14453C12.7268 9.14866 12.7284 9.15305 12.7295 9.15723L13.8936 13.4414L15.498 9.0957Z" fill="#292C32"/>
</svg>
