<svg width="24" height="24" viewBox="0 0 24 24" fill="none" xmlns="http://www.w3.org/2000/svg">
<path d="M17.249 3.75C17.6352 3.75 18.0995 3.90915 18.4023 4.3418C18.6398 4.68094 18.75 5.1007 18.75 5.50391V18.5127C18.7449 18.7531 18.7005 18.9958 18.6152 19.2217C18.5302 19.4468 18.4014 19.6634 18.2236 19.8418C18.0447 20.0213 17.8131 20.1633 17.54 20.2217C17.2631 20.2808 16.9832 20.2449 16.7344 20.1289L16.6846 20.1055L16.6387 20.0752L15.9014 19.5898C15.4581 19.2982 14.8654 18.9089 14.2686 18.5176C13.6716 18.1262 13.0714 17.7331 12.6113 17.4346C12.381 17.2851 12.1867 17.1602 12.0469 17.0713L11.9824 17.0303L7.31543 20.1055L7.26562 20.1289C7.01683 20.2449 6.73689 20.2808 6.45996 20.2217C6.18706 20.1633 5.95548 20.0215 5.77637 19.8418C5.59839 19.6632 5.46968 19.4465 5.38477 19.2217C5.2995 18.9958 5.25515 18.7531 5.25 18.5127V5.53418C5.25006 5.1313 5.36027 4.71221 5.59766 4.37305C5.83695 4.03122 6.22988 3.75 6.72461 3.75H17.249Z" fill="#292C32"/>
</svg>
