<svg width="24" height="24" viewBox="0 0 24 24" fill="none" xmlns="http://www.w3.org/2000/svg">
<path fill-rule="evenodd" clip-rule="evenodd" d="M18.75 3C19.9926 3 21 4.00736 21 5.25V14.25C21 15.4926 19.9926 16.5 18.75 16.5H17.5V18.75C17.5 19.9926 16.4926 21 15.25 21H5.25C4.00736 21 3 19.9926 3 18.75V8.75C3 7.50736 4.00736 6.5 5.25 6.5H7.5V5.25C7.5 4.00736 8.50736 3 9.75 3H18.75ZM5.25 8C4.83579 8 4.5 8.33579 4.5 8.75V18.75C4.5 19.1642 4.83579 19.5 5.25 19.5H15.25C15.6642 19.5 16 19.1642 16 18.75V8.75C16 8.33579 15.6642 8 15.25 8H5.25ZM9.75 4.5C9.33579 4.5 9 4.83579 9 5.25V6.5H15.25C16.4926 6.5 17.5 7.50736 17.5 8.75V15H18.75C19.1642 15 19.5 14.6642 19.5 14.25V5.25C19.5 4.83579 19.1642 4.5 18.75 4.5H9.75Z" fill="#292C32"/>
</svg>
