<svg width="24" height="24" viewBox="0 0 24 24" fill="none" xmlns="http://www.w3.org/2000/svg">
<path d="M7.45996 3.08972C9.46131 2.07 11.7482 1.75406 13.9512 2.19226C16.154 2.63053 18.1448 3.79786 19.6035 5.50574C21.0623 7.21374 21.904 9.36287 21.9922 11.6073C22.0542 13.1854 21.739 14.7448 21.0889 16.1639L22.5049 17.1552C22.6736 17.2733 22.6352 17.5334 22.4395 17.5975L18.4795 18.8934C18.3212 18.9451 18.1578 18.8304 18.1523 18.6639L18.0166 14.4999C18.0099 14.294 18.2404 14.1689 18.4092 14.287L19.8359 15.286C20.3129 14.1485 20.5422 12.9141 20.4932 11.6659C20.4181 9.75824 19.7028 7.93109 18.4629 6.47937C17.223 5.02776 15.5306 4.03541 13.6582 3.66296C11.7856 3.29049 9.84179 3.55985 8.14062 4.42664C6.43963 5.29344 5.07955 6.70752 4.28027 8.44128C3.48099 10.1751 3.2887 12.1278 3.73438 13.9843C4.18004 15.8406 5.23814 17.4927 6.7373 18.6747C8.23668 19.8567 10.0907 20.4999 12 20.4999C12.4141 20.4999 12.75 20.8357 12.75 21.2499C12.75 21.664 12.4142 21.9998 12 21.9999C9.75381 21.9999 7.57256 21.244 5.80859 19.8534C4.04479 18.4629 2.80078 16.5188 2.27637 14.3348C1.75202 12.1508 1.97765 9.85317 2.91797 7.81335C3.85836 5.77349 5.45859 4.10947 7.45996 3.08972Z" fill="#292C32"/>
</svg>
