<svg width="24" height="24" viewBox="0 0 24 24" fill="none" xmlns="http://www.w3.org/2000/svg">
<path d="M6 4.75C5.66848 4.75 5.35054 4.8817 5.11612 5.11612C4.8817 5.35054 4.75 5.66848 4.75 6V7C4.75 7.41421 4.41421 7.75 4 7.75C3.58579 7.75 3.25 7.41421 3.25 7V6C3.25 5.27065 3.53973 4.57118 4.05546 4.05546C4.57118 3.53973 5.27065 3.25 6 3.25H8C8.41421 3.25 8.75 3.58579 8.75 4C8.75 4.41421 8.41421 4.75 8 4.75H6Z" fill="#292C32"/>
<path fill-rule="evenodd" clip-rule="evenodd" d="M8.25 12C8.25 9.92893 9.92893 8.25 12 8.25C14.0711 8.25 15.75 9.92893 15.75 12C15.75 14.0711 14.0711 15.75 12 15.75C9.92893 15.75 8.25 14.0711 8.25 12ZM12 9.75C10.7574 9.75 9.75 10.7574 9.75 12C9.75 13.2426 10.7574 14.25 12 14.25C13.2426 14.25 14.25 13.2426 14.25 12C14.25 10.7574 13.2426 9.75 12 9.75Z" fill="#292C32"/>
<path d="M4.75 17C4.75 16.5858 4.41421 16.25 4 16.25C3.58579 16.25 3.25 16.5858 3.25 17V18C3.25 18.7293 3.53973 19.4288 4.05546 19.9445C4.57118 20.4603 5.27065 20.75 6 20.75H8C8.41421 20.75 8.75 20.4142 8.75 20C8.75 19.5858 8.41421 19.25 8 19.25H6C5.66848 19.25 5.35054 19.1183 5.11612 18.8839C4.8817 18.6495 4.75 18.3315 4.75 18V17Z" fill="#292C32"/>
<path d="M15.25 4C15.25 3.58579 15.5858 3.25 16 3.25H18C18.7293 3.25 19.4288 3.53973 19.9445 4.05546C20.4603 4.57118 20.75 5.27065 20.75 6V7C20.75 7.41421 20.4142 7.75 20 7.75C19.5858 7.75 19.25 7.41421 19.25 7V6C19.25 5.66848 19.1183 5.35054 18.8839 5.11612C18.6495 4.8817 18.3315 4.75 18 4.75H16C15.5858 4.75 15.25 4.41421 15.25 4Z" fill="#292C32"/>
<path d="M20.75 17C20.75 16.5858 20.4142 16.25 20 16.25C19.5858 16.25 19.25 16.5858 19.25 17V18C19.25 18.3315 19.1183 18.6495 18.8839 18.8839C18.6495 19.1183 18.3315 19.25 18 19.25H16C15.5858 19.25 15.25 19.5858 15.25 20C15.25 20.4142 15.5858 20.75 16 20.75H18C18.7293 20.75 19.4288 20.4603 19.9445 19.9445C20.4603 19.4288 20.75 18.7293 20.75 18V17Z" fill="#292C32"/>
</svg>
