<svg width="24" height="24" viewBox="0 0 24 24" fill="none" xmlns="http://www.w3.org/2000/svg">
<path d="M11.918 13.75C16.3273 13.75 20.1153 16.4051 21.7734 20.2002C21.9389 20.5796 21.7659 21.0216 21.3867 21.1875C21.0072 21.3533 20.5643 21.1794 20.3984 20.7998C18.9703 17.5316 15.7097 15.25 11.918 15.25C8.12625 15.25 4.86565 17.5316 3.4375 20.7998C3.27171 21.1793 2.82968 21.3531 2.4502 21.1875C2.07081 21.0217 1.89706 20.5796 2.0625 20.2002C3.72065 16.4051 7.50866 13.75 11.918 13.75ZM11.918 2C14.9555 2 17.418 4.46243 17.418 7.5C17.418 10.5376 14.9555 13 11.918 13C8.88044 13 6.41797 10.5375 6.41797 7.5C6.41797 4.46246 8.88044 2.00004 11.918 2ZM11.918 3.5C9.70887 3.50004 7.91797 5.29089 7.91797 7.5C7.91797 9.70911 9.70887 11.5 11.918 11.5C14.1271 11.5 15.918 9.70914 15.918 7.5C15.918 5.29086 14.1271 3.5 11.918 3.5Z" fill="#292C32"/>
</svg>
