<svg width="24" height="24" viewBox="0 0 24 24" fill="none" xmlns="http://www.w3.org/2000/svg">
<path d="M11.9609 2.00745C13.0566 1.95956 14.151 2.1333 15.1758 2.51819L15.5625 2.66956C16.4557 3.04358 17.2757 3.57096 17.9834 4.22815L16.9639 5.32776C16.3861 4.79102 15.7151 4.35879 14.9834 4.05237L14.666 3.92932L14.6484 3.92249C13.9177 3.64801 13.1426 3.50489 12.3613 3.49963L12.0264 3.50647H11.9111C11.0197 3.47725 10.1313 3.62296 9.29883 3.93518C8.46641 4.24741 7.70699 4.7201 7.06445 5.32288L6.03906 4.22913H6.03809L7.06445 5.32288C7.05764 5.32926 7.05087 5.33614 7.04395 5.34241L6.80469 5.56995C6.2618 6.11419 5.82411 6.75111 5.51367 7.44885C5.17362 8.23973 4.99901 9.08947 5 9.9469V9.94885C5.00005 13.0369 6.78582 15.6866 8.78516 17.6656C9.7675 18.638 10.7559 19.4012 11.499 19.9215C11.6675 20.0395 11.8231 20.1444 11.9619 20.236C12.1026 20.1437 12.2615 20.0387 12.4326 19.9196C13.18 19.399 14.1734 18.6352 15.1611 17.6627C17.1722 15.6826 18.9658 13.0339 18.9658 9.94885C18.9658 9.85352 18.9761 9.75995 18.9932 9.66956C18.9603 8.90432 18.7886 8.14948 18.4834 7.44202L18.3447 7.14709C18.052 6.56534 17.6686 6.03061 17.208 5.56311L16.9717 5.33557L16.9639 5.32776L17.9844 4.22913L18.2773 4.51038C18.9419 5.18494 19.4778 5.97389 19.8574 6.8385C20.2829 7.82157 20.5013 8.88023 20.5 9.94885H20.4658L20.46 10.2916C20.2034 17.4154 12.0335 21.9594 11.9609 21.9996L11.5967 21.7838C10.0058 20.8016 3.72962 16.5382 3.50586 10.2916L3.5 9.94885C3.49875 8.88024 3.71707 7.82157 4.14258 6.8385C4.58306 5.84848 5.22916 4.9598 6.03809 4.22913C6.82582 3.49014 7.75569 2.91226 8.77246 2.53088C9.78919 2.14959 10.8735 1.97178 11.9609 2.00745ZM10.6602 7.26624C11.2996 7.00137 12.0038 6.93205 12.6826 7.06702C13.3615 7.20205 13.9851 7.53564 14.4746 8.02502C14.964 8.51445 15.2975 9.13819 15.4326 9.81702C15.5676 10.4958 15.4982 11.2 15.2334 11.8395L15.126 12.0748C14.8548 12.613 14.4479 13.0733 13.9443 13.4098L13.7236 13.5455C13.1991 13.8423 12.6056 13.9996 12 13.9996L11.8262 13.9957C11.019 13.9556 10.2505 13.6367 9.65137 13.0944L9.52539 12.9742C8.9102 12.359 8.54688 11.5384 8.50391 10.6735L8.5 10.4996C8.50005 9.89415 8.65733 9.30042 8.9541 8.776L9.08984 8.5553C9.4263 8.05182 9.88664 7.64484 10.4248 7.37366L10.6602 7.26624ZM12.3906 8.53772C12.0027 8.46059 11.5998 8.50063 11.2344 8.65198C10.8691 8.80334 10.5566 9.05958 10.3369 9.38831C10.1446 9.67611 10.0313 10.0086 10.0059 10.3522L10 10.4996C10 11.03 10.211 11.5386 10.5859 11.9137C10.961 12.2888 11.4696 12.4996 12 12.4996C12.3956 12.4996 12.7824 12.3825 13.1113 12.1627C13.4401 11.943 13.6963 11.6306 13.8477 11.2653C13.999 10.8999 14.0391 10.4969 13.9619 10.109C13.8847 9.7213 13.6936 9.36512 13.4141 9.08557C13.1345 8.80606 12.7784 8.61492 12.3906 8.53772Z" fill="#292C32"/>
</svg>
