<svg width="24" height="24" viewBox="0 0 24 24" fill="none" xmlns="http://www.w3.org/2000/svg">
<path d="M13.6255 7.62292C15.5583 7.62292 17.1252 9.19014 17.1255 11.1229V19.1229C17.1255 21.0559 15.5585 22.6229 13.6255 22.6229H5.62549C3.69249 22.6229 2.12549 21.0559 2.12549 19.1229V11.1229C2.12574 9.19014 3.69265 7.62292 5.62549 7.62292H13.6255ZM5.62549 9.12292C4.52108 9.12292 3.62574 10.0186 3.62549 11.1229V19.1229C3.62549 20.2275 4.52092 21.1229 5.62549 21.1229H13.6255C14.7301 21.1229 15.6255 20.2275 15.6255 19.1229V11.1229C15.6252 10.0186 14.7299 9.12292 13.6255 9.12292H5.62549ZM13.0981 1.59656C13.391 1.30372 13.8658 1.30368 14.1587 1.59656C14.4514 1.88945 14.4515 2.36427 14.1587 2.6571L13.4497 3.36609H17.1245C19.7479 3.36609 21.8745 5.49274 21.8745 8.11609V12.0897C21.8744 12.5038 21.5386 12.8397 21.1245 12.8397C20.7105 12.8395 20.3747 12.5037 20.3745 12.0897V8.11609C20.3745 6.32116 18.9194 4.86609 17.1245 4.86609H13.4282L14.1587 5.59656C14.4514 5.88945 14.4515 6.36427 14.1587 6.6571C13.8659 6.94993 13.3911 6.9498 13.0981 6.6571L11.2749 4.83386C11.1479 4.70689 11.0625 4.55405 11.0181 4.39246C10.984 4.30685 10.9644 4.21382 10.9644 4.11609C10.9644 3.99907 10.9927 3.88861 11.0405 3.78992C11.0888 3.65479 11.1667 3.52799 11.2749 3.4198L13.0981 1.59656Z" fill="#292C32"/>
</svg>
