<svg width="24" height="24" viewBox="0 0 24 24" fill="none" xmlns="http://www.w3.org/2000/svg">
<path d="M13.9316 2.25C14.8115 2.25013 15.5882 2.82532 15.8447 3.66699L16.5557 6H21C21.4142 6 21.75 6.33579 21.75 6.75C21.75 7.16421 21.4142 7.5 21 7.5H19.6514L17.8936 20.0283C17.7548 21.0156 16.9101 21.75 15.9131 21.75H8.08691C7.08987 21.75 6.2452 21.0156 6.10645 20.0283L4.34863 7.5H3C2.58579 7.5 2.25 7.16421 2.25 6.75C2.25 6.33579 2.58579 6 3 6H7.44434L8.15527 3.66699C8.41178 2.82533 9.1885 2.25014 10.0684 2.25H13.9316ZM7.5918 19.8193C7.62645 20.0662 7.83762 20.25 8.08691 20.25H15.9131C16.1624 20.25 16.3736 20.0662 16.4082 19.8193L18.1377 7.5H5.8623L7.5918 19.8193ZM10 10.25C10.4142 10.25 10.75 10.5858 10.75 11V17C10.75 17.4142 10.4142 17.75 10 17.75C9.58579 17.75 9.25 17.4142 9.25 17V11C9.25 10.5858 9.58579 10.25 10 10.25ZM14 10.25C14.4142 10.25 14.75 10.5858 14.75 11V17C14.75 17.4142 14.4142 17.75 14 17.75C13.5858 17.75 13.25 17.4142 13.25 17V11C13.25 10.5858 13.5858 10.25 14 10.25ZM10.0684 3.75C9.84849 3.75014 9.65492 3.89415 9.59082 4.10449L9.0127 6H14.9873L14.4092 4.10449C14.3451 3.89415 14.1515 3.75013 13.9316 3.75H10.0684Z" fill="#292C32"/>
</svg>
