<svg width="24" height="24" viewBox="0 0 24 24" fill="none" xmlns="http://www.w3.org/2000/svg">
<path d="M18.5029 2.74902C20.3951 2.74919 22.0518 4.00189 22.0518 5.97461V14.6279C22.0517 15.6353 21.8266 16.4789 21.2031 17.042C20.5961 17.5898 19.7739 17.7197 18.9668 17.7197H14.4951C14.2319 18.2182 13.9424 18.8213 13.6885 19.3662C13.5287 19.7092 13.3852 20.0228 13.2734 20.2666C13.1727 20.4864 13.0757 20.6981 13.0273 20.7842C12.8644 21.0739 12.5483 21.3759 12.0977 21.4072C11.5841 21.4426 11.2127 21.1128 11.0342 20.7412C10.8874 20.4356 9.98348 18.6503 9.48145 17.7197H5.00293C4.29505 17.7197 3.47332 17.6515 2.84961 17.1357C2.19207 16.5918 1.94737 15.7259 1.94727 14.6279V5.97461C1.94727 5.0889 2.23363 4.27881 2.78418 3.68359C3.33945 3.08357 4.12021 2.74908 5.00293 2.74902H18.5029ZM5.00293 4.25C4.5115 4.25006 4.1385 4.42795 3.88477 4.70215C3.62663 4.98134 3.44727 5.41021 3.44727 5.97461V14.6279C3.44737 15.5522 3.65898 15.8581 3.80566 15.9795C3.96365 16.1101 4.23718 16.1963 4.76172 16.2158L5.00293 16.2197H10.3604L10.5771 16.5947C10.8849 17.1271 11.5885 18.5097 12.0283 19.3818C12.1168 19.1887 12.2188 18.967 12.3281 18.7324C12.6504 18.0407 13.0527 17.2042 13.3975 16.5986L13.6133 16.2197H18.9668C19.6673 16.2197 20.0139 16.0939 20.1973 15.9287C20.3637 15.7784 20.5516 15.4505 20.5518 14.6279V5.97461C20.5518 5.02301 19.7735 4.25016 18.5029 4.25H5.00293ZM8 9.48145C8.41421 9.48145 8.75 9.81723 8.75 10.2314V12.8936C8.7496 13.3074 8.41397 13.6436 8 13.6436C7.58603 13.6436 7.2504 13.3074 7.25 12.8936V10.2314C7.25 9.81723 7.58579 9.48145 8 9.48145ZM12 6.81934C12.4141 6.81934 12.7497 7.15437 12.75 7.56836V12.8926C12.7497 13.3066 12.4141 13.6426 12 13.6426C11.5859 13.6426 11.2503 13.3066 11.25 12.8926V7.56934C11.25 7.15512 11.5858 6.81934 12 6.81934ZM16 8.59375C16.4142 8.59375 16.75 8.92954 16.75 9.34375V12.8926C16.7497 13.3066 16.4141 13.6426 16 13.6426C15.5859 13.6426 15.2503 13.3066 15.25 12.8926V9.34375C15.25 8.92954 15.5858 8.59375 16 8.59375Z" fill="#292C32"/>
</svg>
