<svg width="24" height="24" viewBox="0 0 24 24" fill="none" xmlns="http://www.w3.org/2000/svg">
<path d="M11.9609 2.00806C13.0567 1.96017 14.151 2.13387 15.1758 2.5188L15.5625 2.67017C16.4557 3.04422 17.2757 3.5715 17.9834 4.22876L16.9639 5.32837L17.9844 4.22974L18.2773 4.51099C18.9419 5.18561 19.4778 5.97442 19.8574 6.83911C20.2829 7.82225 20.5013 8.88078 20.5 9.94946H20.4658L20.46 10.2922C20.203 17.4219 12.02 21.9675 11.9609 22.0002L11.5967 21.7844C10.0062 20.8025 3.72977 16.539 3.50586 10.2922L3.5 9.94946C3.49869 8.88078 3.71707 7.82225 4.14258 6.83911C4.58304 5.84901 5.22913 4.96047 6.03809 4.22974C6.82583 3.49069 7.75565 2.9129 8.77246 2.53149C9.78923 2.15017 10.8735 1.97238 11.9609 2.00806ZM12.6826 7.06763C12.0037 6.93263 11.2996 7.00196 10.6602 7.26685L10.4248 7.37427C9.88667 7.64548 9.42626 8.05242 9.08984 8.55591L8.9541 8.77661C8.65739 9.30105 8.5 9.89476 8.5 10.5002L8.50391 10.6741C8.54695 11.539 8.91016 12.3596 9.52539 12.9749L9.65137 13.095C10.2505 13.6373 11.0191 13.9562 11.8262 13.9963L12 14.0002C12.6055 14.0002 13.1992 13.8429 13.7236 13.5461L13.9443 13.4104C14.4478 13.074 14.8548 12.6135 15.126 12.0754L15.2334 11.8401C15.4983 11.2007 15.5675 10.4964 15.4326 9.81763C15.2976 9.13873 14.964 8.51511 14.4746 8.02563C13.9851 7.53614 13.3616 7.20268 12.6826 7.06763Z" fill="#292C32"/>
</svg>
