<svg width="24" height="24" viewBox="0 0 24 24" fill="none" xmlns="http://www.w3.org/2000/svg">
<path fill-rule="evenodd" clip-rule="evenodd" d="M18.667 4C19.4031 4.00018 19.9998 4.59689 20 5.33301V18.667C19.9998 19.4031 19.4031 19.9998 18.667 20H5.33301C4.59689 19.9998 4.00018 19.4031 4 18.667V5.33301C4.00018 4.59689 4.59689 4.00018 5.33301 4H18.667ZM15.7363 8.09961C15.4974 7.96615 15.2206 7.91616 14.9502 7.95801C14.6797 7.99995 14.4305 8.13145 14.2432 8.33105C14.1578 8.45889 14.1061 8.60663 14.0928 8.75977V13.0078L10.6201 8.94434L10.458 8.77148C10.3832 8.70287 10.3174 8.62492 10.2617 8.54004C10.1822 8.45725 10.0968 8.37986 10.0068 8.30859C9.9252 8.2339 9.8356 8.16745 9.74023 8.11133C9.64603 8.06132 9.54443 8.02573 9.43945 8.00684C9.14407 7.96301 8.84196 7.9908 8.55957 8.08789C8.42805 8.13813 8.31752 8.23259 8.24707 8.35449C8.14983 8.4811 8.09409 8.63451 8.08594 8.79395C8.02806 9.4074 8.02734 10.2762 8.02734 10.8086V14.9863C7.90002 15.5072 8.2017 16.1674 9.18555 16.04C9.32369 16.024 9.45776 15.981 9.5791 15.9131C9.6889 15.8444 9.77906 15.7481 9.8418 15.6348C9.90448 15.5214 9.93757 15.3941 9.9375 15.2646V10.9014C10.3772 11.3411 10.7476 11.8733 11.0947 12.2783L12.3447 13.6904C12.9054 14.3793 13.5044 15.0364 14.1387 15.6582C14.3517 15.839 14.6127 15.9543 14.8896 15.9912C15.1666 16.0281 15.4482 15.9847 15.7012 15.8662C15.8072 15.7767 15.8899 15.6624 15.9404 15.5332C15.9909 15.4039 16.0085 15.2637 15.9912 15.126V8.81738C16.0032 8.72534 16.0032 8.63209 15.9912 8.54004C15.978 8.44979 15.9462 8.36283 15.8984 8.28516C15.8608 8.21083 15.805 8.1468 15.7363 8.09961Z" fill="#292C32"/>
</svg>
