<svg width="24" height="24" viewBox="0 0 24 24" fill="none" xmlns="http://www.w3.org/2000/svg">
<path d="M12.9345 4.84999C12.5947 5.23999 12.2749 5.68999 11.995 6.20999C11.7151 5.68999 11.4053 5.23999 11.0655 4.84999C7.75712 1.07999 2 3.43999 2 8.62999C2 13.51 9.28636 19.21 11.4153 20.82C11.5852 20.94 11.7851 21 11.995 21C12.2049 21 12.4048 20.94 12.5747 20.82C14.7136 19.26 22 13.55 22 8.62999C22 3.70999 16.2429 1.12999 12.9345 4.84999ZM19.5212 11.64C18.8816 12.76 17.982 13.89 16.9925 14.95C15.1834 16.89 13.1344 18.52 12.005 19.37C10.8656 18.49 8.82659 16.86 7.01749 14.92C6.01799 13.85 5.11844 12.72 4.47876 11.61C3.82909 10.49 3.50925 9.47999 3.50925 8.61999C3.50925 6.42999 4.81859 5.01999 6.27786 4.61999C7.68716 4.22999 9.49625 4.69999 10.6757 6.91L11.995 9.35999L13.3143 6.91999C14.4938 4.72999 16.3028 4.25999 17.7221 4.64999C19.1914 5.05999 20.4908 6.44999 20.4908 8.61999C20.4908 9.48999 20.1609 10.51 19.5212 11.63V11.64Z" fill="#292C32"/>
</svg>
