<svg width="24" height="24" viewBox="0 0 24 24" fill="none" xmlns="http://www.w3.org/2000/svg">
<path fill-rule="evenodd" clip-rule="evenodd" d="M15.3145 3C16.0759 3.00011 16.8063 3.29003 17.3447 3.80566C17.8832 4.32137 18.1855 5.02073 18.1855 5.75V7.10352C18.654 7.22942 19.0864 7.46743 19.4365 7.80273C19.9729 8.31656 20.2744 9.01368 20.2744 9.74023V11.2295C20.6011 11.3657 20.9023 11.5597 21.1592 11.8057C21.6976 12.3214 22 13.0208 22 13.75C22 14.4792 21.6976 15.1786 21.1592 15.6943C20.9024 15.9402 20.601 16.1333 20.2744 16.2695V17.75C20.2744 18.4793 19.9712 19.1786 19.4326 19.6943C18.8941 20.21 18.1639 20.5 17.4023 20.5H4.87207C4.11046 20.5 3.37936 20.2101 2.84082 19.6943C2.30243 19.1786 2 18.4792 2 17.75V5.75C2 5.02076 2.30243 4.32137 2.84082 3.80566C3.37936 3.28994 4.11046 3 4.87207 3H15.3145ZM3.56641 17.75C3.56641 18.0814 3.70362 18.3994 3.94824 18.6338C4.19303 18.8682 4.52588 19 4.87207 19H17.4023C17.7485 19 18.0804 18.8681 18.3252 18.6338C18.57 18.3994 18.708 18.0815 18.708 17.75V16.5H12.8633C12.1017 16.5 11.3706 16.2101 10.832 15.6943C10.2936 15.1786 9.99121 14.4792 9.99121 13.75C9.99121 13.0208 10.2936 12.3214 10.832 11.8057C11.3706 11.2899 12.1017 11 12.8633 11H18.708V9.74023C18.7053 9.41217 18.5674 9.09819 18.3252 8.86621C18.083 8.63433 17.7556 8.50265 17.4131 8.5H3.56641V17.75ZM12.8633 12.5C12.5171 12.5 12.1842 12.6318 11.9395 12.8662C11.6948 13.1006 11.5576 13.4186 11.5576 13.75C11.5576 14.0814 11.6948 14.3994 11.9395 14.6338C12.1842 14.8682 12.5171 15 12.8633 15H19.1279C19.4741 15 19.807 14.8682 20.0518 14.6338C20.2964 14.3994 20.4336 14.0814 20.4336 13.75C20.4336 13.4186 20.2964 13.1006 20.0518 12.8662C19.807 12.6318 19.4741 12.5 19.1279 12.5H12.8633ZM4.87207 4.5C4.52588 4.5 4.19303 4.63179 3.94824 4.86621C3.70362 5.10061 3.56641 5.4186 3.56641 5.75V7H16.6191V5.75C16.6191 5.41857 16.482 5.10061 16.2373 4.86621C15.9926 4.63188 15.6605 4.50011 15.3145 4.5H4.87207Z" fill="#292C32"/>
</svg>
