<svg width="24" height="24" viewBox="0 0 24 24" fill="none" xmlns="http://www.w3.org/2000/svg">
<path d="M9.15759 22.0697C7.55323 22.0781 6.00915 21.4601 4.85496 20.3477C4.28774 19.8014 3.8366 19.1466 3.52846 18.4224C3.22033 17.6982 3.06152 16.9195 3.06152 16.1327C3.06152 15.3459 3.22033 14.5672 3.52846 13.843C3.8366 13.1188 4.28774 12.464 4.85496 11.9177L13.7711 3.26745C14.5835 2.49847 15.6604 2.06982 16.7799 2.06982C17.8995 2.06982 18.9764 2.49847 19.7888 3.26745C20.1911 3.6516 20.5113 4.11313 20.73 4.62418C20.9488 5.13523 21.0615 5.68523 21.0615 6.24098C21.0615 6.79672 20.9488 7.34671 20.73 7.85777C20.5113 8.36882 20.1911 8.83035 19.7888 9.2145L10.7623 17.9348C10.2888 18.3842 9.66045 18.6347 9.00714 18.6347C8.35384 18.6347 7.7255 18.3842 7.252 17.9348C7.01784 17.7089 6.83162 17.4382 6.70444 17.1389C6.57727 16.8396 6.51173 16.5179 6.51173 16.1928C6.51173 15.8677 6.57727 15.5459 6.70444 15.2466C6.83162 14.9473 7.01784 14.6767 7.252 14.4507L13.7711 8.21331C13.8358 8.14546 13.9136 8.09143 13.9998 8.05451C14.086 8.0176 14.1788 7.99856 14.2726 7.99856C14.3664 7.99856 14.4592 8.0176 14.5454 8.05451C14.6316 8.09143 14.7094 8.14546 14.7741 8.21331C14.904 8.34769 14.9766 8.52715 14.9766 8.71391C14.9766 8.90066 14.904 9.08012 14.7741 9.2145L8.33517 15.4619C8.23616 15.5561 8.1575 15.6696 8.10403 15.7953C8.05056 15.9209 8.02342 16.0562 8.02426 16.1928C8.02342 16.3293 8.05056 16.4646 8.10403 16.5903C8.1575 16.716 8.23616 16.8294 8.33517 16.9236C8.54693 17.1303 8.83133 17.2461 9.1275 17.2461C9.42366 17.2461 9.70806 17.1303 9.91982 16.9236L18.9463 8.21331C19.2127 7.95822 19.4246 7.652 19.5694 7.31306C19.7142 6.97411 19.7888 6.60945 19.7888 6.24098C19.7888 5.8725 19.7142 5.50784 19.5694 5.16889C19.4246 4.82995 19.2127 4.52373 18.9463 4.26864C18.3878 3.74198 17.6486 3.44858 16.8802 3.44858C16.1119 3.44858 15.3727 3.74198 14.8142 4.26864L5.88799 12.9289C5.45347 13.3422 5.10755 13.8393 4.87119 14.39C4.63483 14.9407 4.51296 15.5336 4.51296 16.1327C4.51296 16.7318 4.63483 17.3247 4.87119 17.8754C5.10755 18.4261 5.45347 18.9232 5.88799 19.3365C6.78677 20.1998 7.98555 20.682 9.23281 20.682C10.4801 20.682 11.6788 20.1998 12.5776 19.3365L18.8761 13.1291C18.942 13.0634 19.0201 13.0113 19.1062 12.9757C19.1922 12.9401 19.2844 12.9218 19.3776 12.9218C19.4707 12.9218 19.5629 12.9401 19.649 12.9757C19.735 13.0113 19.8132 13.0634 19.879 13.1291C19.9449 13.1949 19.9971 13.2729 20.0328 13.3588C20.0684 13.4447 20.0868 13.5368 20.0868 13.6297C20.0868 13.7227 20.0684 13.8148 20.0328 13.9007C19.9971 13.9865 19.9449 14.0646 19.879 14.1303L13.4702 20.3477C12.3118 21.4598 10.7648 22.0776 9.15759 22.0697Z" fill="#292C32"/>
</svg>
