<svg width="24" height="24" viewBox="0 0 24 24" fill="none" xmlns="http://www.w3.org/2000/svg">
<path d="M12 2.5C13.3128 2.5 14.5475 2.74969 15.7031 3.24902C16.8588 3.74834 17.8646 4.42519 18.7197 5.28027C19.5748 6.13536 20.2517 7.14118 20.751 8.29688C21.2503 9.45254 21.5 10.6872 21.5 12C21.5 12.173 21.4956 12.3596 21.4873 12.5596C21.479 12.7595 21.4636 12.946 21.4404 13.1191C21.4136 13.332 21.3239 13.5 21.1719 13.623C21.0201 13.7462 20.8325 13.8076 20.6094 13.8076C20.4133 13.8076 20.2457 13.723 20.1074 13.5537C19.969 13.3846 19.9134 13.1985 19.9404 12.9961C19.9737 12.823 19.9919 12.657 19.9951 12.498C19.9983 12.339 20 12.173 20 12C20 11.6348 19.9757 11.2712 19.9277 10.9092C19.8796 10.5469 19.8046 10.1859 19.7021 9.82715H15.9844C16.0472 10.1859 16.0928 10.5469 16.1211 10.9092C16.1492 11.2712 16.1631 11.6348 16.1631 12C16.1631 12.1729 16.1623 12.3568 16.1592 12.5518C16.1558 12.7465 16.1456 12.9306 16.1289 13.1035C16.1021 13.3163 16.0141 13.4871 15.8652 13.6152C15.7166 13.7435 15.536 13.8076 15.3232 13.8076C15.1271 13.8076 14.9553 13.7283 14.8086 13.5693C14.6619 13.4104 14.6022 13.2297 14.6289 13.0273C14.6456 12.8542 14.6558 12.6828 14.6592 12.5137C14.6623 12.3443 14.6631 12.173 14.6631 12C14.6631 11.6348 14.6492 11.2712 14.6211 10.9092C14.5928 10.5469 14.547 10.186 14.4844 9.82715H9.51562C9.45297 10.186 9.40724 10.5469 9.37891 10.9092C9.35076 11.2712 9.33691 11.6348 9.33691 12C9.33691 12.3652 9.35076 12.7288 9.37891 13.0908C9.40724 13.4531 9.45297 13.814 9.51562 14.1729H12.4424C12.6551 14.1729 12.8329 14.2451 12.9766 14.3887C13.12 14.5321 13.1923 14.7101 13.1924 14.9229C13.1924 15.1357 13.1201 15.3143 12.9766 15.458C12.833 15.6012 12.655 15.6728 12.4424 15.6729H9.85938C10.0787 16.46 10.364 17.2151 10.7158 17.9375C11.0678 18.6599 11.4962 19.3402 12 19.9785C12.1794 19.9785 12.3587 19.9794 12.5381 19.9814C12.7176 19.9833 12.8944 19.9732 13.0674 19.9502C13.2738 19.9232 13.4467 19.9761 13.585 20.1094C13.7233 20.2427 13.792 20.4128 13.792 20.6191C13.792 20.8421 13.7347 21.0279 13.6201 21.1768C13.5053 21.3254 13.3417 21.4136 13.1289 21.4404C12.9559 21.4636 12.7693 21.479 12.5693 21.4873C12.3693 21.4956 12.1795 21.5 12 21.5C10.6872 21.5 9.45254 21.2503 8.29688 20.751C7.14118 20.2517 6.13536 19.5748 5.28027 18.7197C4.42519 17.8646 3.74834 16.8588 3.24902 15.7031C2.74969 14.5475 2.5 13.3128 2.5 12C2.5 10.6872 2.74969 9.45254 3.24902 8.29688C3.74834 7.14118 4.42519 6.13536 5.28027 5.28027C6.13536 4.42519 7.14118 3.74834 8.29688 3.24902C9.45254 2.74969 10.6872 2.5 12 2.5ZM19.8281 15.5371C20.0283 15.5417 20.2025 15.6185 20.3506 15.7666C20.4986 15.9147 20.5731 16.0877 20.5732 16.2861C20.5732 16.5027 20.5005 16.684 20.3555 16.8291C20.2103 16.9742 20.038 17.0438 19.8389 17.0381L18.083 17.0176L20.6816 19.6162C20.8319 19.7664 20.9069 19.9434 20.9072 20.1465C20.9072 20.3496 20.832 20.5264 20.6816 20.6768C20.5314 20.827 20.3547 20.9022 20.1514 20.9023C19.948 20.9023 19.7713 20.827 19.6211 20.6768L17.0225 18.0781L17.0322 19.8232C17.0368 20.0235 16.9632 20.1989 16.8125 20.3496C16.6619 20.5003 16.4868 20.5732 16.2871 20.5684C16.0769 20.5684 15.9006 20.4933 15.7598 20.3438C15.6192 20.1943 15.5492 20.0231 15.5488 19.8301L15.5293 16.417C15.5286 16.2858 15.5512 16.1693 15.5977 16.0684C15.6443 15.9672 15.7105 15.8744 15.7949 15.79C15.8814 15.7036 15.976 15.6362 16.0791 15.5879C16.1821 15.5395 16.2991 15.5158 16.4297 15.5166L19.8281 15.5371ZM4.92676 15.6729C5.44836 16.7022 6.15629 17.5707 7.0498 18.2783C7.94345 18.9861 8.94818 19.4677 10.0635 19.7227C9.66112 19.0985 9.31546 18.4475 9.02637 17.7695C8.7372 17.0914 8.50134 16.3922 8.31934 15.6729H4.92676ZM4.29785 9.82715C4.19538 10.1859 4.12042 10.5469 4.07227 10.9092C4.0243 11.2712 4 11.6348 4 12C4 12.3652 4.0243 12.7288 4.07227 13.0908C4.12042 13.4531 4.19538 13.8141 4.29785 14.1729H8.01562C7.9528 13.8141 7.90724 13.4531 7.87891 13.0908C7.85076 12.7288 7.83691 12.3652 7.83691 12C7.83691 11.6348 7.85076 11.2712 7.87891 10.9092C7.90724 10.5469 7.9528 10.1859 8.01562 9.82715H4.29785ZM10.0635 4.27734C8.94168 4.52602 7.93523 5.00427 7.04492 5.71191C6.15461 6.41952 5.44835 7.2913 4.92676 8.32715H8.31934C8.48847 7.60162 8.71603 6.89973 9.00195 6.22168C9.28775 5.54344 9.64172 4.8951 10.0635 4.27734ZM12 4.02148C11.5025 4.65978 11.0741 5.34005 10.7158 6.0625C10.3575 6.78495 10.0722 7.54004 9.85938 8.32715H14.1406C13.9278 7.53998 13.64 6.78827 13.2783 6.07227C12.9169 5.35621 12.4909 4.67256 12 4.02148ZM13.9365 4.27734C14.339 4.9016 14.6805 5.55411 14.96 6.23535C15.2395 6.91684 15.4793 7.61433 15.6807 8.32715H19.0732C18.5516 7.29128 17.8454 6.41782 16.9551 5.70703C16.0648 4.99605 15.0583 4.51952 13.9365 4.27734Z" fill="#292C32"/>
</svg>
