<svg width="24" height="24" viewBox="0 0 24 24" fill="none" xmlns="http://www.w3.org/2000/svg">
<path d="M17.484 3.90319L21.7337 11.0769C22.0667 11.6393 22.0777 12.3359 21.7626 12.9082L21.1768 13.9724C20.9841 14.3232 20.662 14.5861 20.2787 14.7034C17.6456 15.5069 15.7244 13.9861 14.2912 11.6666C14.1639 11.4609 14.2303 11.1907 14.4386 11.0675L15.607 10.3766C15.983 10.1543 15.927 9.59373 15.5144 9.45023L10.0586 7.55272C9.60873 7.39626 9.12617 7.68181 9.0468 8.15145L8.08496 13.8424C8.01219 14.2729 8.47618 14.5918 8.85206 14.3696L9.81623 13.7996C10.0313 13.6725 10.3055 13.7199 10.476 13.9025C12.7852 16.3751 16.3297 17.4558 19.3524 16.1864C19.5932 16.0853 19.864 16.3581 19.7381 16.5869L17.8481 20.023C17.5233 20.6132 16.9025 20.9803 16.2288 20.9809L8.1039 20.9863C7.45039 20.9869 6.84438 20.6421 6.51135 20.0797L2.26162 12.9054C1.92859 12.343 1.91767 11.6464 2.23269 11.0742L6.1461 3.95992C6.47095 3.3697 7.0917 3.00313 7.76596 3.00204L15.8914 2.99658C16.5449 2.99604 17.151 3.34079 17.484 3.90319Z" fill="#292C32"/>
</svg>
