<svg width="24" height="24" viewBox="0 0 24 24" fill="none" xmlns="http://www.w3.org/2000/svg">
<path fill-rule="evenodd" clip-rule="evenodd" d="M17.5831 6.27031C16.1416 4.86546 14.1719 4 12 4C7.58173 4 4 7.58172 4 12L4 12.0082C4.00443 16.4021 7.55117 19.9666 11.9383 19.9998C11.9776 20.0001 12.0169 20.0001 12.0562 19.9998C16.4486 19.9696 20 16.3995 20 12C20 9.82815 19.1345 7.85844 17.7297 6.41693C17.7056 6.3922 17.6813 6.3676 17.6569 6.34315C17.6324 6.31869 17.6078 6.29441 17.5831 6.27031ZM12.4673 11.4238C11.7261 11.875 11.2856 12.3154 11.2749 13.7549V13.8086H12.1987V13.7549C12.2202 12.8257 12.4619 12.4121 13.1333 12.0039C13.7993 11.5957 14.1968 11.0103 14.1968 10.167C14.1968 8.97998 13.3213 8.11523 11.9731 8.11523C10.7432 8.11523 9.76025 8.87256 9.70654 10.1777H10.6841C10.7432 9.2915 11.3608 8.92627 11.9731 8.93164C12.6821 8.92627 13.2515 9.39355 13.2515 10.124C13.2515 10.7256 12.9131 11.1553 12.4673 11.4238ZM11.769 14.6787C11.3931 14.6787 11.0708 14.9902 11.0815 15.3662C11.0708 15.7476 11.3931 16.0591 11.769 16.0645C12.1504 16.0591 12.4619 15.7476 12.4565 15.3662C12.4619 14.9902 12.1504 14.6787 11.769 14.6787Z" fill="#292C32"/>
</svg>
