<svg width="24" height="24" viewBox="0 0 24 24" fill="none" xmlns="http://www.w3.org/2000/svg">
<path d="M11 5.24414C11.4142 5.24414 11.75 5.57993 11.75 5.99414C11.75 6.40835 11.4142 6.74414 11 6.74414H5.5C5.08579 6.74414 4.75 7.07993 4.75 7.49414V18.5C4.75 18.9142 5.08579 19.25 5.5 19.25H16.5C16.9142 19.25 17.25 18.9142 17.25 18.5V12.9971C17.25 12.5829 17.5858 12.2471 18 12.2471C18.4142 12.2471 18.75 12.5829 18.75 12.9971V18.5C18.75 19.7426 17.7426 20.75 16.5 20.75H5.5C4.25736 20.75 3.25 19.7426 3.25 18.5V7.49414C3.25 6.2515 4.25736 5.24414 5.5 5.24414H11Z" fill="#292C32"/>
<path d="M20 3.25C20.0454 3.25001 20.0897 3.25496 20.1328 3.2627C20.1373 3.26351 20.142 3.26375 20.1465 3.26465C20.1662 3.26857 20.1849 3.27581 20.2041 3.28125C20.2316 3.28904 20.2595 3.29565 20.2861 3.30664C20.337 3.32769 20.3842 3.35551 20.4287 3.38672C20.464 3.41144 20.4988 3.43824 20.5303 3.46973C20.5795 3.51899 20.6177 3.57499 20.6504 3.63281C20.6651 3.6589 20.6798 3.68498 20.6914 3.71289C20.7122 3.76298 20.7279 3.81449 20.7373 3.86719C20.745 3.91033 20.75 3.95463 20.75 4V10C20.75 10.4141 20.4141 10.7499 20 10.75C19.5858 10.75 19.25 10.4142 19.25 10V5.81055L10.6309 14.4297C10.338 14.7226 9.86223 14.7226 9.56934 14.4297C9.27683 14.1368 9.27677 13.6619 9.56934 13.3691L18.1895 4.75H14C13.5858 4.75 13.25 4.41421 13.25 4C13.25 3.58579 13.5858 3.25 14 3.25H20Z" fill="#292C32"/>
</svg>
