<svg width="24" height="24" viewBox="0 0 24 24" fill="none" xmlns="http://www.w3.org/2000/svg">
<path d="M18.9814 2.87988C19.8657 2.87994 20.6502 3.20727 21.21 3.80664C21.7655 4.40159 22.0517 5.21238 22.0518 6.10352V14.5977C22.0518 15.6055 21.8269 16.4495 21.2031 17.0127C20.5962 17.5606 19.7748 17.6904 18.9678 17.6904H18.9658L18.9678 16.9404V16.5391L18.9658 17.6904L7.12305 17.6689C6.11612 18.5739 4.36298 20.1605 3.9043 20.6191C3.74579 20.7776 3.57048 20.9198 3.37695 21.0117C3.17934 21.1055 2.89565 21.1759 2.59375 21.0645C2.29468 20.9539 2.13658 20.7239 2.0625 20.5605C2.00755 20.4392 1.98072 20.3183 1.96875 20.2148L1.96094 20.1172V20.0889C1.96094 18.2726 1.95746 15.1535 1.9541 12.3066C1.95075 9.46036 1.94727 6.88505 1.94727 6.15918C1.94734 5.28584 2.21307 4.45842 2.78125 3.8418C3.35734 3.21682 4.18014 2.87901 5.14746 2.87891L18.9814 2.87988ZM5.14746 4.37891C4.54201 4.37901 4.13939 4.58103 3.88379 4.8584C3.6204 5.1443 3.44734 5.58244 3.44727 6.15918C3.44727 6.88387 3.45075 9.45733 3.4541 12.3047C3.45684 14.6316 3.45807 17.1412 3.45898 18.9727C4.29565 18.1951 5.62926 16.9924 6.33398 16.3604L6.54883 16.168L6.83594 16.1689L18.9678 16.1895C19.6685 16.1894 20.015 16.0648 20.1982 15.8994C20.3647 15.749 20.5518 15.4205 20.5518 14.5977V6.10352C20.5517 5.5327 20.3714 5.10649 20.1133 4.83008C19.8593 4.55832 19.4834 4.37994 18.9814 4.37988L5.14746 4.37891ZM12.2295 11.7314C12.6436 11.7316 12.9795 12.0673 12.9795 12.4814C12.9795 12.8956 12.6436 13.2313 12.2295 13.2314H7.4873L7.41016 13.2275C7.03213 13.189 6.7373 12.8697 6.7373 12.4814C6.7373 12.0932 7.03213 11.7739 7.41016 11.7354L7.4873 11.7314H12.2295ZM16.9717 7.66992C17.3858 7.67005 17.7217 8.00579 17.7217 8.41992C17.7217 8.83405 17.3858 9.16979 16.9717 9.16992H7.4873L7.41016 9.16602C7.03207 9.12751 6.7373 8.80817 6.7373 8.41992C6.7373 8.03167 7.03207 7.71234 7.41016 7.67383L7.4873 7.66992H16.9717Z" fill="#292C32"/>
</svg>
