<svg width="24" height="24" viewBox="0 0 24 24" fill="none" xmlns="http://www.w3.org/2000/svg">
<path d="M17.4106 7.33032C17.4106 7.19426 17.3391 7.12314 17.2778 7.09595L17.2231 7.08228H7.09131C7.0311 7.08247 6.90381 7.14873 6.90381 7.33032V19.1301C6.90392 19.9043 7.48541 20.4504 8.10498 20.4504H16.2095C16.829 20.4504 17.4105 19.9043 17.4106 19.1301V7.33032ZM9.30615 16.9846V10.5481C9.30624 10.0925 9.67577 9.7229 10.1313 9.7229C10.5867 9.72313 10.9555 10.0927 10.9556 10.5481V16.9846C10.9555 17.4401 10.5867 17.8096 10.1313 17.8098C9.67575 17.8098 9.30622 17.4402 9.30615 16.9846ZM13.3579 16.9846V10.5481C13.358 10.0926 13.7276 9.72304 14.1831 9.7229C14.6387 9.7229 15.0082 10.0925 15.0083 10.5481V16.9846C15.0082 17.4402 14.6387 17.8098 14.1831 17.8098C13.7276 17.8097 13.358 17.4401 13.3579 16.9846ZM14.3716 4.11157C14.3714 3.93004 14.2432 3.8645 14.1831 3.8645H10.1313C10.0713 3.8645 9.94308 3.93004 9.94287 4.11157V5.18481C9.94291 5.36661 10.0713 5.43286 10.1313 5.43286H14.1831C14.2432 5.43286 14.3715 5.36661 14.3716 5.18481V4.11157ZM16.021 5.18481C16.021 5.26849 16.014 5.35115 16.0034 5.43286H20.2622C20.7177 5.43295 21.0872 5.80166 21.0874 6.25708C21.0874 6.71266 20.7178 7.08219 20.2622 7.08228H19.0435C19.054 7.1639 19.061 7.24674 19.061 7.33032V19.1301C19.0609 20.7255 17.8279 22.0999 16.2095 22.0999H8.10498C6.48657 22.0999 5.25353 20.7255 5.25342 19.1301V7.33032C5.25342 7.24673 5.26046 7.16391 5.271 7.08228H4.05225C3.59661 7.08228 3.22705 6.71272 3.22705 6.25708C3.22724 5.80161 3.59673 5.43286 4.05225 5.43286H8.31104C8.30047 5.35114 8.29248 5.2685 8.29248 5.18481V4.11157C8.29271 3.10874 9.07255 2.21411 10.1313 2.21411H14.1831C15.2419 2.21411 16.0208 3.10874 16.021 4.11157V5.18481Z" fill="#292C32"/>
</svg>
