<svg width="24" height="24" viewBox="0 0 24 24" fill="none" xmlns="http://www.w3.org/2000/svg">
<path d="M11.0151 3.38794C11.3252 3.25742 11.6748 3.25746 11.9849 3.38794L22.7915 7.93774C23.0695 8.05491 23.2505 8.32749 23.2505 8.62915V13.261C23.2503 13.6749 22.9144 14.0108 22.5005 14.011C22.0864 14.011 21.7507 13.6751 21.7505 13.261V9.75903L19.2271 10.8206C19.2408 10.8774 19.2495 10.9363 19.2495 10.9973V17.1174C19.2495 18.4202 18.1271 19.4026 16.7554 20.0159C15.3227 20.6563 13.4318 20.9973 11.4995 20.9973C9.56713 20.9973 7.67629 20.6564 6.24365 20.0159C4.87204 19.4026 3.74951 18.4201 3.74951 17.1174V10.9973C3.74953 10.9363 3.75822 10.8773 3.77197 10.8206L1.30322 9.78149C0.283458 9.35203 0.283483 7.90629 1.30322 7.47681L11.0151 3.38794ZM11.9849 13.8704C11.6748 14.0008 11.3252 14.0009 11.0151 13.8704L5.24951 11.4426V17.1174C5.24951 17.4747 5.60259 18.0853 6.85596 18.6458C8.04861 19.179 9.7192 19.4973 11.4995 19.4973C13.28 19.4973 14.9513 19.179 16.144 18.6458C17.3974 18.0853 17.7495 17.4747 17.7495 17.1174V11.4426L11.9849 13.8704ZM2.43311 8.62915L11.5005 12.4465L20.5669 8.62915L11.5005 4.81177L2.43311 8.62915Z" fill="#292C32"/>
</svg>
