<svg width="24" height="24" viewBox="0 0 24 24" fill="none" xmlns="http://www.w3.org/2000/svg">
<path fill-rule="evenodd" clip-rule="evenodd" d="M11.9294 1.5C12.2069 1.5 12.4604 1.65689 12.5839 1.90499L15.4646 8L21.8734 8.81631C22.1494 8.85599 22.3788 9.04909 22.4646 9.31407C22.5504 9.57905 22.4777 9.86969 22.2772 10.0633L17.6588 14.5L18.9997 20.6459C19.047 20.9195 18.9347 21.1963 18.71 21.3598C18.4853 21.5234 18.1871 21.5454 17.9407 21.4167L11.8375 18.3873L5.79014 21.417C5.54376 21.5455 5.24572 21.5232 5.02119 21.3596C4.79665 21.1961 4.68448 20.9194 4.73179 20.6459L6.45907 14.5L1.72295 10.0633C1.52244 9.86969 1.44974 9.57905 1.53555 9.31407C1.62136 9.04909 1.85071 8.85599 2.12676 8.81631L8.4646 8L11.275 1.90499C11.3985 1.65689 11.652 1.5 11.9294 1.5Z" fill="#292C32"/>
</svg>
