<svg width="24" height="24" viewBox="0 0 24 24" fill="none" xmlns="http://www.w3.org/2000/svg">
<path d="M17 6.25C17.4142 6.25 17.7499 6.58587 17.75 7V19.1895L20.7119 16.2275C21.0048 15.9346 21.4805 15.9346 21.7734 16.2275C22.0659 16.5205 22.0661 16.9953 21.7734 17.2881L17.5303 21.5303C17.4988 21.5618 17.4649 21.5895 17.4297 21.6143C17.4248 21.6177 17.42 21.6217 17.415 21.625L17.4121 21.626C17.4016 21.6329 17.3897 21.6382 17.3789 21.6445C17.3495 21.6619 17.3199 21.6791 17.2881 21.6924C17.2862 21.6932 17.2841 21.6945 17.2822 21.6953C17.2372 21.7135 17.1907 21.7272 17.1436 21.7363C17.14 21.737 17.1363 21.7367 17.1328 21.7373C17.0897 21.745 17.0453 21.75 17 21.75C16.9553 21.75 16.9117 21.7448 16.8691 21.7373C16.8632 21.7362 16.8565 21.7356 16.8506 21.7344C16.7485 21.7137 16.6547 21.6718 16.5723 21.6143C16.557 21.6036 16.541 21.593 16.5264 21.5811C16.5069 21.5652 16.4878 21.5484 16.4697 21.5303L12.2275 17.2881C11.9347 16.9952 11.9348 16.5204 12.2275 16.2275C12.5204 15.9347 12.9952 15.9346 13.2881 16.2275L16.25 19.1895V7C16.2501 6.58589 16.5859 6.25003 17 6.25ZM7.13184 2.2627C7.13764 2.26369 7.14364 2.26446 7.14941 2.26562C7.25157 2.28627 7.3462 2.32817 7.42871 2.38574C7.44388 2.39632 7.45912 2.4071 7.47363 2.41895C7.49308 2.43484 7.51213 2.45159 7.53027 2.46973L11.7734 6.71191C12.0662 7.00464 12.0658 7.47953 11.7734 7.77246C11.4805 8.06535 11.0058 8.06535 10.7129 7.77246L7.75 4.81055V17C7.7499 17.4141 7.41415 17.75 7 17.75C6.58593 17.7499 6.2501 17.4141 6.25 17V4.81055L3.28809 7.77246C2.99519 8.06535 2.52043 8.06535 2.22754 7.77246C1.93472 7.47956 1.93467 7.00478 2.22754 6.71191L6.46973 2.46973C6.50119 2.43828 6.53511 2.41043 6.57031 2.38574C6.57513 2.38237 6.58007 2.37827 6.58496 2.375L6.58789 2.37402C6.59842 2.36708 6.61031 2.36182 6.62109 2.35547C6.65051 2.33813 6.68011 2.32089 6.71191 2.30762C6.7138 2.30683 6.71588 2.30546 6.71777 2.30469C6.76279 2.28644 6.80931 2.27282 6.85645 2.26367C6.85994 2.26299 6.86368 2.26328 6.86719 2.2627C6.9102 2.25502 6.95478 2.25001 7 2.25C7.04481 2.25 7.08919 2.25516 7.13184 2.2627Z" fill="#292C32"/>
</svg>
