<svg width="24" height="24" viewBox="0 0 24 24" fill="none" xmlns="http://www.w3.org/2000/svg">
<path fill-rule="evenodd" clip-rule="evenodd" d="M12 9C14.2091 9 16 10.7909 16 13C16 15.2091 14.2091 17 12 17C9.79086 17 8 15.2091 8 13C8 10.7909 9.79086 9 12 9ZM12 10.5C10.6193 10.5 9.5 11.6193 9.5 13C9.5 14.3807 10.6193 15.5 12 15.5C13.3807 15.5 14.5 14.3807 14.5 13C14.5 11.6193 13.3807 10.5 12 10.5Z" fill="#292C32"/>
<path fill-rule="evenodd" clip-rule="evenodd" d="M14.8682 3.25C15.8727 3.25 16.7562 3.91591 17.0322 4.88184L17.5654 6.75H20.25C21.3546 6.75 22.25 7.64543 22.25 8.75V18.75C22.25 19.8546 21.3546 20.75 20.25 20.75H3.75C2.64543 20.75 1.75 19.8546 1.75 18.75V8.75C1.75 7.64543 2.64543 6.75 3.75 6.75H6.43457L6.96777 4.88184C7.24375 3.91591 8.12725 3.25 9.13184 3.25H14.8682ZM9.13184 4.75C8.79698 4.75 8.50215 4.97197 8.41016 5.29395L7.7207 7.70605C7.62867 8.02796 7.33482 8.25 7 8.25H3.75C3.47386 8.25 3.25 8.47386 3.25 8.75V18.75C3.25 19.0261 3.47386 19.25 3.75 19.25H20.25C20.5261 19.25 20.75 19.0261 20.75 18.75V8.75C20.75 8.47386 20.5261 8.25 20.25 8.25H17C16.6652 8.25 16.3713 8.02796 16.2793 7.70605L15.5898 5.29395C15.4979 4.97197 15.203 4.75 14.8682 4.75H9.13184Z" fill="#292C32"/>
</svg>
