<svg width="24" height="24" viewBox="0 0 24 24" fill="none" xmlns="http://www.w3.org/2000/svg">
<path d="M12.9131 17H11.1348V10.0762H12.9131V17Z" fill="#292C32"/>
<path d="M12.0254 7C12.6465 7.00026 13.1504 7.50384 13.1504 8.125C13.1504 8.74616 12.6465 9.24974 12.0254 9.25C11.4041 9.25 10.9004 8.74632 10.9004 8.125C10.9004 7.50368 11.4041 7 12.0254 7Z" fill="#292C32"/>
<path fill-rule="evenodd" clip-rule="evenodd" d="M12 2C17.5228 2 22 6.47715 22 12C22 17.5228 17.5228 22 12 22C6.47715 22 2 17.5228 2 12C2 6.47715 6.47715 2 12 2ZM12 3.5C7.30558 3.5 3.5 7.30558 3.5 12C3.5 16.6944 7.30558 20.5 12 20.5C16.6944 20.5 20.5 16.6944 20.5 12C20.5 7.30558 16.6944 3.5 12 3.5Z" fill="#292C32"/>
</svg>
