<svg width="24" height="24" viewBox="0 0 24 24" fill="none" xmlns="http://www.w3.org/2000/svg">
<path d="M12 1.5C17.799 1.5 22.5 6.20101 22.5 12C22.5 17.799 17.799 22.5 12 22.5C6.20101 22.5 1.5 17.799 1.5 12C1.5 6.20101 6.20101 1.5 12 1.5ZM16.6768 7.51953C16.171 7.37079 15.64 7.66035 15.4912 8.16602L14.2041 12.5439L12.916 8.16602C12.7936 7.75003 12.4128 7.48018 12 7.48047C11.5872 7.48018 11.2064 7.75003 11.084 8.16602L9.79785 12.5381L8.5127 8.16602C8.3639 7.66032 7.83287 7.37079 7.32715 7.51953C6.82144 7.66832 6.53192 8.19935 6.68066 8.70508L6.99023 9.75684H6.27246C5.74549 9.75698 5.3185 10.184 5.31836 10.7109C5.31836 11.238 5.7454 11.6659 6.27246 11.666H7.55176L8.86426 16.1289C8.93673 16.4578 9.18151 16.739 9.52734 16.8408C9.61736 16.8673 9.70856 16.8799 9.79785 16.8799C9.88713 16.88 9.97836 16.8672 10.0684 16.8408C10.4143 16.7391 10.659 16.4578 10.7314 16.1289L12 11.8174L13.2871 16.1943C13.4096 16.6104 13.7912 16.8804 14.2041 16.8799C14.6168 16.8802 14.9976 16.6102 15.1201 16.1943L16.4521 11.666H17.7305C18.2576 11.666 18.6846 11.2381 18.6846 10.7109C18.6844 10.1839 18.2575 9.75689 17.7305 9.75684H17.0137L17.3232 8.70508C17.472 8.1994 17.1824 7.66839 16.6768 7.51953Z" fill="#292C32"/>
</svg>
