<svg width="24" height="24" viewBox="0 0 24 24" fill="none" xmlns="http://www.w3.org/2000/svg">
<path fill-rule="evenodd" clip-rule="evenodd" d="M20.5303 4.53033C20.8232 4.23744 20.8232 3.76256 20.5303 3.46967C20.2374 3.17678 19.7626 3.17678 19.4697 3.46967L17.2562 5.68314C15.7987 4.83635 14.0354 4.25 12 4.25C8.7573 4.25 6.20516 5.73823 4.48017 7.39688C3.6174 8.22646 2.94904 9.10978 2.49203 9.89684C2.26357 10.2903 2.083 10.6682 1.95768 11.0111C1.83658 11.3425 1.75 11.6869 1.75 12C1.75 12.3131 1.83658 12.6575 1.95768 12.9889C2.083 13.3318 2.26357 13.7097 2.49203 14.1032C2.94904 14.8902 3.6174 15.7735 4.48017 16.6031C4.78641 16.8976 5.11871 17.1867 5.47632 17.463L3.91332 19.026C3.62043 19.3189 3.62043 19.7938 3.91332 20.0867C4.20621 20.3796 4.68109 20.3796 4.97398 20.0867L6.74381 18.3169C8.20128 19.1637 9.9646 19.75 12 19.75C15.2427 19.75 17.7948 18.2618 19.5198 16.6031C20.3826 15.7735 21.051 14.8902 21.508 14.1032C21.7364 13.7097 21.917 13.3318 22.0423 12.9889C22.1634 12.6575 22.25 12.3131 22.25 12C22.25 11.6869 22.1634 11.3425 22.0423 11.0111C21.917 10.6682 21.7364 10.2903 21.508 9.89684C21.051 9.10978 20.3826 8.22646 19.5198 7.39688C19.2136 7.10242 18.8813 6.81333 18.5237 6.53698L20.5303 4.53033ZM16.153 6.78633C14.9649 6.16094 13.5736 5.75 12 5.75C9.2427 5.75 7.04484 7.01177 5.51983 8.47812C4.7576 9.21104 4.17596 9.98397 3.78922 10.65C3.59581 10.9831 3.45606 11.281 3.36654 11.526C3.2728 11.7825 3.25 11.9381 3.25 12C3.25 12.0619 3.2728 12.2175 3.36654 12.474C3.45606 12.719 3.59581 13.0169 3.78922 13.35C4.17596 14.016 4.7576 14.789 5.51983 15.5219C5.83392 15.8239 6.17654 16.1172 6.54672 16.3926L8.33194 14.6074C7.80809 13.8718 7.5 12.9719 7.5 12C7.5 9.51472 9.51472 7.5 12 7.5C12.9719 7.5 13.8718 7.80809 14.6074 8.33194L16.153 6.78633ZM15.6681 9.3926L17.4533 7.60738C17.8235 7.88279 18.1661 8.17612 18.4802 8.47812C19.2424 9.21104 19.824 9.98397 20.2108 10.65C20.4042 10.9831 20.5439 11.281 20.6335 11.526C20.7272 11.7825 20.75 11.9381 20.75 12C20.75 12.0619 20.7272 12.2175 20.6335 12.474C20.5439 12.719 20.4042 13.0169 20.2108 13.35C19.824 14.016 19.2424 14.789 18.4802 15.5219C16.9552 16.9882 14.7573 18.25 12 18.25C10.4264 18.25 9.03507 17.8391 7.84699 17.2137L9.3926 15.6681C10.1282 16.1919 11.0281 16.5 12 16.5C14.4853 16.5 16.5 14.4853 16.5 12C16.5 11.0281 16.1919 10.1282 15.6681 9.3926ZM13.524 9.41536C13.0773 9.15145 12.5564 9 12 9C10.3431 9 9 10.3431 9 12C9 12.5564 9.15145 13.0773 9.41536 13.524L13.524 9.41536ZM10.476 14.5846L14.5846 10.476C14.8486 10.9227 15 11.4436 15 12C15 13.6569 13.6569 15 12 15C11.4436 15 10.9227 14.8486 10.476 14.5846Z" fill="#292C32"/>
</svg>
