<svg width="24" height="24" viewBox="0 0 24 24" fill="none" xmlns="http://www.w3.org/2000/svg">
<path d="M17.5 2.5C19.1569 2.5 20.5 3.84315 20.5 5.5C20.5 7.15685 19.1569 8.5 17.5 8.5C16.5609 8.5 15.7229 8.06815 15.1729 7.39258L9.44141 11.4062C9.47993 11.5982 9.5 11.7967 9.5 12C9.5 12.2029 9.47981 12.4011 9.44141 12.5928L15.1729 16.6064C15.7229 15.9312 16.5611 15.5 17.5 15.5C19.1569 15.5 20.5 16.8431 20.5 18.5C20.5 20.1569 19.1569 21.5 17.5 21.5C15.8431 21.5 14.5 20.1569 14.5 18.5C14.5 18.3283 14.5143 18.1599 14.542 17.9961L8.77148 13.9561C8.22133 14.5943 7.40877 15 6.5 15C4.84315 15 3.5 13.6569 3.5 12C3.5 10.3431 4.84315 9 6.5 9C7.40851 9 8.22134 9.40501 8.77148 10.043L14.542 6.00293C14.5144 5.8394 14.5 5.67138 14.5 5.5C14.5 3.84315 15.8431 2.5 17.5 2.5ZM17.5 17C16.6716 17 16 17.6716 16 18.5C16 19.3284 16.6716 20 17.5 20C18.3284 20 19 19.3284 19 18.5C19 17.6716 18.3284 17 17.5 17ZM6.5 10.5C5.67157 10.5 5 11.1716 5 12C5 12.8284 5.67157 13.5 6.5 13.5C7.32843 13.5 8 12.8284 8 12C8 11.1716 7.32843 10.5 6.5 10.5ZM17.5 4C16.6716 4 16 4.67157 16 5.5C16 6.32843 16.6716 7 17.5 7C18.3284 7 19 6.32843 19 5.5C19 4.67157 18.3284 4 17.5 4Z" fill="#292C32"/>
</svg>
