<svg width="20" height="20" viewBox="0 0 20 20" fill="none" xmlns="http://www.w3.org/2000/svg">
<path fill-rule="evenodd" clip-rule="evenodd" d="M11.3472 17.1003C11.0733 17.482 10.6322 17.7084 10.1624 17.7084H9.28199C8.34112 17.7084 7.64648 16.8306 7.86268 15.9149L8.61979 12.7084H3.75091C2.82227 12.7084 2.13017 11.852 2.32506 10.944L3.9349 3.44399C4.07918 2.77183 4.67329 2.29171 5.36076 2.29171H17.3031C17.8784 2.29171 18.3447 2.75808 18.3447 3.33337V11.6667C18.3447 12.242 17.8784 12.7084 17.3031 12.7084H14.4988L11.3472 17.1003ZM14.8031 11.4584H17.0947V3.54171H15.0114C14.8963 3.54171 14.8031 3.63498 14.8031 3.75004V11.4584Z" fill="#949BA8"/>
</svg>
