<svg width="24" height="24" viewBox="0 0 24 24" fill="none" xmlns="http://www.w3.org/2000/svg">
<path d="M12.75 2C14.9591 2 16.75 3.79086 16.75 6C16.75 6.41421 16.4142 6.75 16 6.75C15.5858 6.75 15.25 6.41421 15.25 6C15.25 4.61929 14.1307 3.5 12.75 3.5H12C10.2051 3.5 8.75 4.95507 8.75 6.75V8.25H19C20.1046 8.25 21 9.14543 21 10.25V20C21 21.1046 20.1046 22 19 22H5C3.89543 22 3 21.1046 3 20V10.25C3 9.14543 3.89543 8.25 5 8.25H7.25V6.75C7.25 4.12665 9.37665 2 12 2H12.75ZM5 9.75C4.72386 9.75 4.5 9.97386 4.5 10.25V20C4.5 20.2761 4.72386 20.5 5 20.5H19C19.2761 20.5 19.5 20.2761 19.5 20V10.25C19.5 9.97386 19.2761 9.75 19 9.75H5ZM12 13C12.4142 13 12.75 13.3358 12.75 13.75V16.5C12.75 16.9142 12.4142 17.25 12 17.25C11.5858 17.25 11.25 16.9142 11.25 16.5V13.75C11.25 13.3358 11.5858 13 12 13Z" fill="#292C32"/>
</svg>
