<svg width="24" height="24" viewBox="0 0 24 24" fill="none" xmlns="http://www.w3.org/2000/svg">
<path d="M12 4C16.4183 4 20 7.58172 20 12C20 16.4183 16.4183 20 12 20C7.58172 20 4 16.4183 4 12C4 7.58172 7.58172 4 12 4ZM15.3604 8.6416C15.0675 8.34871 14.5927 8.34871 14.2998 8.6416L12.002 10.9395L9.70312 8.6416C9.41022 8.3489 8.93541 8.34877 8.64258 8.6416C8.34993 8.93445 8.34993 9.4093 8.64258 9.70215L10.9414 12L8.64258 14.2988C8.35005 14.5918 8.34981 15.0666 8.64258 15.3594C8.93535 15.6521 9.4102 15.6519 9.70312 15.3594L12.002 13.0605L14.2998 15.3594C14.5927 15.652 15.0675 15.652 15.3604 15.3594C15.6532 15.0665 15.6531 14.5917 15.3604 14.2988L13.0625 12L15.3604 9.70215C15.6532 9.40926 15.6532 8.93449 15.3604 8.6416Z" fill="#292C32"/>
</svg>
