<svg width="24" height="24" viewBox="0 0 24 24" fill="none" xmlns="http://www.w3.org/2000/svg">
<path fill-rule="evenodd" clip-rule="evenodd" d="M2 5.25C2 4.14543 2.89543 3.25 4 3.25H13.258C13.9898 3.25 14.6633 3.64977 15.0138 4.2923L16.3543 6.75H20C21.1046 6.75 22 7.64543 22 8.75V18.75C22 19.8546 21.1046 20.75 20 20.75H4C2.89543 20.75 2 19.8546 2 18.75V5.25ZM4 4.75C3.72386 4.75 3.5 4.97386 3.5 5.25V18.75C3.5 19.0261 3.72386 19.25 4 19.25H20C20.2761 19.25 20.5 19.0261 20.5 18.75V8.75C20.5 8.47386 20.2761 8.25 20 8.25H15.9091C15.6346 8.25 15.3821 8.10008 15.2507 7.85914L13.6969 5.01057C13.6093 4.84994 13.4409 4.75 13.258 4.75H4Z" fill="#292C32"/>
</svg>
