<svg width="24" height="24" viewBox="0 0 24 24" fill="none" xmlns="http://www.w3.org/2000/svg">
<path d="M10.2476 3.68958C10.5404 3.39676 11.0152 3.39692 11.3081 3.68958C11.601 3.98247 11.601 4.45723 11.3081 4.75012L4.80811 11.2501H21.0005C21.4145 11.2504 21.7505 11.5861 21.7505 12.0001C21.7503 12.4141 21.4144 12.7499 21.0005 12.7501H4.81006L11.3081 19.2482C11.601 19.5411 11.601 20.0158 11.3081 20.3087C11.0152 20.6014 10.5404 20.6015 10.2476 20.3087L2.46924 12.5304C2.3032 12.3642 2.23494 12.1398 2.25732 11.923C2.27404 11.757 2.34216 11.5951 2.46924 11.4679L10.2476 3.68958Z" fill="#292C32"/>
</svg>
