<svg width="20" height="20" viewBox="0 0 20 20" fill="none" xmlns="http://www.w3.org/2000/svg">
<path d="M10 1.29077C14.8099 1.29077 18.7098 5.18994 18.71 9.99976C18.71 14.8097 14.81 18.7097 10 18.7097C5.19019 18.7095 1.29102 14.8096 1.29102 9.99976C1.29119 5.19005 5.19029 1.29095 10 1.29077ZM14.5713 6.47925C14.1919 6.05595 13.5767 6.05598 13.1973 6.47925L8.70215 11.4949L6.79785 9.36987C6.41843 8.94682 5.80323 8.94679 5.42383 9.36987C5.04441 9.79319 5.0445 10.4797 5.42383 10.9031L8.01465 13.7947C8.39399 14.2178 9.0092 14.2176 9.38867 13.7947L14.5713 8.01245C14.9507 7.58909 14.9507 6.90261 14.5713 6.47925Z" fill="#575F6C"/>
</svg>
