<svg width="24" height="24" viewBox="0 0 24 24" fill="none" xmlns="http://www.w3.org/2000/svg">
<path d="M15.0264 4.03052C16.3939 2.65639 18.611 2.65628 19.9785 4.03052C21.3461 5.40508 21.3461 7.63447 19.9785 9.00903L17.1719 11.8293C16.0005 13.0066 14.2067 13.1746 12.8564 12.3352L12.3242 12.8704C13.1182 14.2203 12.9384 15.9886 11.7842 17.1487L8.97754 19.969C7.60992 21.3434 5.39294 21.3435 4.02539 19.969C2.65791 18.5944 2.65789 16.366 4.02539 14.9915L6.83203 12.1702C8.04949 10.9468 9.93947 10.8139 11.3047 11.7688L11.7793 11.2913C10.8718 9.92378 11.0191 8.05857 12.2197 6.85181L15.0264 4.03052ZM10.2168 12.8625C9.4637 12.4777 8.51943 12.6007 7.88965 13.2336L5.08301 16.0549C4.30012 16.8421 4.30015 18.1183 5.08301 18.9055C5.86632 19.6928 7.13661 19.6928 7.91992 18.9055L10.7266 16.0852C11.288 15.5209 11.4446 14.7059 11.2012 13.9993L9.66016 15.5491C9.36806 15.8426 8.89469 15.8425 8.60254 15.5491C8.31039 15.2554 8.31039 14.7792 8.60254 14.4856L10.2168 12.8625ZM18.9209 5.09399C18.1376 4.30674 16.8673 4.30683 16.084 5.09399L13.2773 7.91528C12.6659 8.52997 12.5346 9.44141 12.8779 10.1868L14.2451 8.81372C14.5373 8.52009 15.0116 8.52009 15.3037 8.81372C15.5957 9.1073 15.5956 9.58359 15.3037 9.8772L13.9688 11.218C14.6874 11.4987 15.5341 11.349 16.1143 10.7659L18.9209 7.94556C19.7042 7.15827 19.7042 5.88128 18.9209 5.09399Z" fill="#292C32"/>
</svg>
