<svg width="24" height="24" viewBox="0 0 24 24" fill="none" xmlns="http://www.w3.org/2000/svg">
<path d="M12 13C12.4602 13 12.8333 13.3358 12.8333 13.75V16.5C12.8333 16.9142 12.4602 17.25 12 17.25C11.5398 17.25 11.1667 16.9142 11.1667 16.5V13.75C11.1667 13.3358 11.5398 13 12 13Z" fill="#292C32"/>
<path fill-rule="evenodd" clip-rule="evenodd" d="M12.8333 2C15.2879 2 17.2778 3.79086 17.2778 6C17.2778 6.41421 16.9047 6.75 16.4444 6.75C15.9842 6.75 15.6111 6.41421 15.6111 6C15.6111 4.61929 14.3675 3.5 12.8333 3.5H12C10.0056 3.5 8.38889 4.95507 8.38889 6.75V8.25H18.7778C20.0051 8.25 21 9.14543 21 10.25V20C21 21.1046 20.0051 22 18.7778 22H5.22222C3.99492 22 3 21.1046 3 20V10.25C3 9.14543 3.99492 8.25 5.22222 8.25H6.72222V6.75C6.72222 4.12665 9.08516 2 12 2H12.8333ZM5.22222 9.75C4.9154 9.75 4.66667 9.97386 4.66667 10.25V20C4.66667 20.2761 4.9154 20.5 5.22222 20.5H18.7778C19.0846 20.5 19.3333 20.2761 19.3333 20V10.25C19.3333 9.97386 19.0846 9.75 18.7778 9.75H5.22222Z" fill="#292C32"/>
</svg>
