<svg width="24" height="24" viewBox="0 0 24 24" fill="none" xmlns="http://www.w3.org/2000/svg">
<path d="M12 2C17.5228 2 22 6.47715 22 12C22 17.5228 17.5228 22 12 22C6.47715 22 2 17.5228 2 12C2 6.47715 6.47715 2 12 2ZM12 3.5C7.30558 3.5 3.5 7.30558 3.5 12C3.5 16.6944 7.30558 20.5 12 20.5C16.6944 20.5 20.5 16.6944 20.5 12C20.5 7.30558 16.6944 3.5 12 3.5ZM10 8.93457C10 8.53522 10.4451 8.29704 10.7773 8.51855L15.376 11.584C15.6728 11.7819 15.6728 12.2181 15.376 12.416L10.7773 15.4814C10.4451 15.703 10 15.4648 10 15.0654V8.93457Z" fill="#292C32"/>
</svg>
