<svg width="20" height="20" viewBox="0 0 20 20" fill="none" xmlns="http://www.w3.org/2000/svg">
<path fill-rule="evenodd" clip-rule="evenodd" d="M9.28948 2.89973C9.56341 2.518 10.0045 2.29163 10.4743 2.29163H11.3547C12.2956 2.29163 12.9902 3.16938 12.774 4.08507L12.0169 7.29163H16.8858C17.8145 7.29163 18.5066 8.14805 18.3117 9.05601L16.7018 16.556C16.5575 17.2282 15.9634 17.7083 15.276 17.7083H3.33366C2.75836 17.7083 2.29199 17.2419 2.29199 16.6666V8.33329C2.29199 7.758 2.75836 7.29163 3.33366 7.29163H6.13789L9.28948 2.89973ZM5.83366 8.54163H3.54199V16.4583H5.62533C5.74038 16.4583 5.83366 16.365 5.83366 16.25V8.54163Z" fill="#949BA8"/>
</svg>
