<svg width="24" height="24" viewBox="0 0 24 24" fill="none" xmlns="http://www.w3.org/2000/svg">
<path d="M10.896 1.9574C11.5058 1.34763 12.4942 1.34767 13.104 1.9574L14.9556 3.80798C15.0531 3.90541 15.1849 3.96021 15.3228 3.96033H18.478C19.3403 3.96044 20.0394 4.65964 20.0396 5.52185V8.67712C20.0396 8.81508 20.0943 8.94773 20.1919 9.04529L22.0425 10.8959C22.6523 11.5057 22.6523 12.494 22.0425 13.1039L20.1919 14.9554C20.0945 15.0529 20.0397 15.1848 20.0396 15.3226V18.4779C20.0394 19.3402 19.3403 20.0393 18.478 20.0394H15.3228C15.1848 20.0395 15.0521 20.0942 14.9546 20.1918L13.104 22.0424C12.4942 22.6522 11.5058 22.6522 10.896 22.0424L9.04541 20.1918C8.94785 20.0942 8.81521 20.0395 8.67725 20.0394H5.52197C4.65974 20.0392 3.96055 19.3402 3.96045 18.4779V15.3226C3.96034 15.1848 3.90552 15.053 3.80811 14.9554L1.95752 13.1039C1.34779 12.494 1.34775 11.5057 1.95752 10.8959L3.80811 9.04529C3.90566 8.94773 3.96038 8.81508 3.96045 8.67712V5.52185C3.96065 4.65968 4.6598 3.96051 5.52197 3.96033H8.67725C8.81519 3.96025 8.94786 3.90553 9.04541 3.80798L10.896 1.9574ZM15.8403 8.1615C15.6371 7.95841 15.3073 7.95849 15.104 8.1615L8.16357 15.1019C7.96033 15.3052 7.9604 15.635 8.16357 15.8383C8.36687 16.0414 8.69667 16.0415 8.8999 15.8383L15.8403 8.89783C16.0433 8.69457 16.0434 8.36471 15.8403 8.1615ZM14.3149 13.1566C13.6762 13.1566 13.1578 13.6751 13.1577 14.3138C13.158 14.9525 13.6763 15.4701 14.3149 15.4701C14.9535 15.4699 15.4709 14.9524 15.4712 14.3138C15.4711 13.6752 14.9536 13.1568 14.3149 13.1566ZM9.68799 8.52966C9.04928 8.52976 8.53184 9.04818 8.53174 9.68689C8.53174 10.3257 9.04922 10.844 9.68799 10.8441C10.3268 10.8441 10.8452 10.3257 10.8452 9.68689C10.8451 9.04812 10.3268 8.52966 9.68799 8.52966Z" fill="#292C32"/>
</svg>
