<svg width="24" height="24" viewBox="0 0 24 24" fill="none" xmlns="http://www.w3.org/2000/svg">
<path d="M14.0732 2.39282C14.3785 1.78241 15.1922 1.6505 15.6748 2.13306L22.2559 8.71313C22.7385 9.19578 22.6056 10.0094 21.9951 10.3147L19.5859 11.5198L16.9912 14.1155L15.7344 19.1418C15.5459 19.8959 14.6063 20.1563 14.0566 19.6067L9.75684 15.3069L4.03027 21.0334C3.73738 21.3263 3.26262 21.3263 2.96973 21.0334C2.6769 20.7405 2.67686 20.2658 2.96973 19.9729L8.69629 14.2463L4.78125 10.3313C4.23225 9.78165 4.49234 8.84311 5.24609 8.65454L10.2734 7.39771L12.8691 4.802L14.0732 2.39282ZM14.1738 5.54614C14.1258 5.6421 14.0622 5.73002 13.9863 5.80591L11.2363 8.55591C11.1082 8.68405 10.9473 8.77562 10.7715 8.81958L6.4668 9.89575L14.4932 17.9221L15.5693 13.6174C15.6133 13.4416 15.7039 13.2807 15.832 13.1526L18.583 10.4016C18.659 10.3257 18.7467 10.2622 18.8428 10.2141L20.7041 9.28345L15.1045 3.68384L14.1738 5.54614Z" fill="#292C32"/>
</svg>
