<svg width="24" height="24" viewBox="0 0 24 24" fill="none" xmlns="http://www.w3.org/2000/svg">
<path d="M18.7139 4.04346C19.4749 3.81515 20.1844 4.52462 19.9561 5.28564L15.1553 21.2886C14.8951 22.1559 13.7073 22.2562 13.3057 21.4448L9.89746 14.5542C9.80045 14.3581 9.64144 14.1991 9.44531 14.1021L2.55566 10.6938C1.74394 10.2924 1.84355 9.10445 2.71094 8.84424L18.7139 4.04346ZM11.2139 13.8462C11.2217 13.8613 11.2317 13.8758 11.2393 13.8911L14.0859 19.646L17.8018 7.2583L11.2139 13.8462ZM4.35352 9.91357L10.1094 12.7612C10.1244 12.7687 10.1385 12.7779 10.1533 12.7856L16.7432 6.1958L4.35352 9.91357Z" fill="#292C32"/>
</svg>
