<svg width="20" height="20" viewBox="0 0 20 20" fill="none" xmlns="http://www.w3.org/2000/svg">
<path fill-rule="evenodd" clip-rule="evenodd" d="M11.3472 17.1003C11.0733 17.482 10.6322 17.7084 10.1624 17.7084H9.28199C8.34112 17.7084 7.64648 16.8306 7.86268 15.9149L8.61979 12.7084H3.75091C2.82227 12.7084 2.13017 11.852 2.32506 10.944L3.9349 3.44399C4.07918 2.77183 4.67329 2.29171 5.36076 2.29171H17.3031C17.8784 2.29171 18.3447 2.75808 18.3447 3.33337V11.6667C18.3447 12.242 17.8784 12.7084 17.3031 12.7084H14.4988L11.3472 17.1003ZM14.8031 11.4584H17.0947V3.54171H15.0114C14.8963 3.54171 14.8031 3.63498 14.8031 3.75004V11.4584ZM13.5678 3.54171H5.36076C5.26255 3.54171 5.17768 3.6103 5.15707 3.70632L3.54722 11.2063C3.51938 11.336 3.61825 11.4584 3.75091 11.4584H8.61979C9.42625 11.4584 10.0217 12.2107 9.83634 12.9956L9.07923 16.2022C9.04835 16.333 9.14758 16.4584 9.28199 16.4584H10.1624C10.2295 16.4584 10.2925 16.426 10.3317 16.3715L13.5531 11.8823V3.75004C13.5531 3.67931 13.5581 3.60975 13.5678 3.54171Z" fill="#949BA8"/>
</svg>
