<svg width="24" height="24" viewBox="0 0 24 24" fill="none" xmlns="http://www.w3.org/2000/svg">
<path d="M20.2461 3.5C21.8307 3.5 23.1152 4.73122 23.1152 6.25V17.75C23.1152 19.2688 21.8307 20.5 20.2461 20.5H3.75391C2.16932 20.5 0.884766 19.2688 0.884766 17.75V6.25C0.884766 4.73122 2.16932 3.5 3.75391 3.5H20.2461ZM3.75391 5C3.03364 5 2.44922 5.55964 2.44922 6.25V17.75C2.44922 18.3971 2.96265 18.929 3.62012 18.9932L3.75391 19H20.2461L20.3799 18.9932C20.9935 18.9333 21.4806 18.4661 21.543 17.8779L21.5508 17.75V6.25C21.5508 5.60288 21.0374 5.07096 20.3799 5.00684L20.2461 5H3.75391ZM17.3467 14.1807C17.7606 14.1809 18.0965 14.5168 18.0967 14.9307C18.0967 15.3447 17.7607 15.6804 17.3467 15.6807H5.84668C5.43247 15.6807 5.09668 15.3449 5.09668 14.9307C5.09685 14.5166 5.43257 14.1807 5.84668 14.1807H17.3467ZM7.84668 8.51465C8.44324 8.51478 9.01566 8.75199 9.4375 9.17383L9.58691 9.33887C9.91469 9.73916 10.0967 10.2427 10.0967 10.7646C10.0966 10.9862 10.0641 11.2067 10 11.418L9.92578 11.626C9.84102 11.8305 9.72585 12.0208 9.58594 12.1914L9.4375 12.3555C9.28076 12.5122 9.102 12.6449 8.90723 12.749L8.70801 12.8438C8.43518 12.9568 8.14199 13.0146 7.84668 13.0146C7.62515 13.0146 7.4046 12.982 7.19336 12.918L6.98535 12.8438C6.78094 12.7591 6.59041 12.6437 6.41992 12.5039L6.25586 12.3555C6.09923 12.1988 5.96639 12.0198 5.8623 11.8252L5.76758 11.626C5.65457 11.3531 5.59674 11.06 5.59668 10.7646C5.59668 10.1679 5.8339 9.59578 6.25586 9.17383L6.4209 9.02441C6.82127 8.69639 7.32456 8.51465 7.84668 8.51465ZM17.3467 11.5146C17.7607 11.5149 18.0967 11.8506 18.0967 12.2646C18.0965 12.6785 17.7606 13.0144 17.3467 13.0146H13.9619C13.5478 13.0146 13.2121 12.6787 13.2119 12.2646C13.2119 11.8504 13.5477 11.5146 13.9619 11.5146H17.3467ZM7.84668 10.0146C7.69757 10.0146 7.55294 10.0591 7.43066 10.1406L7.31641 10.2344C7.17575 10.375 7.09668 10.5657 7.09668 10.7646C7.09674 10.8629 7.11571 10.9609 7.15332 11.0518L7.22266 11.1816C7.2498 11.2222 7.28175 11.2603 7.31641 11.2949L7.42969 11.3887C7.47028 11.4157 7.51427 11.4392 7.55957 11.458L7.7002 11.5C7.74815 11.5095 7.79756 11.5146 7.84668 11.5146C7.94498 11.5146 8.04297 11.4956 8.13379 11.458L8.26367 11.3887C8.30437 11.3615 8.34217 11.3297 8.37695 11.2949L8.4707 11.1816C8.49789 11.141 8.52121 11.0972 8.54004 11.0518L8.58203 10.9111C8.59159 10.8632 8.59665 10.8138 8.59668 10.7646C8.59668 10.566 8.5173 10.375 8.37695 10.2344C8.23642 10.0938 8.04541 10.0148 7.84668 10.0146ZM17.3467 8.84766C17.7607 8.84792 18.0967 9.18361 18.0967 9.59766C18.0967 10.0117 17.7607 10.3474 17.3467 10.3477H13.9619C13.5477 10.3477 13.2119 10.0119 13.2119 9.59766C13.2119 9.18344 13.5477 8.84766 13.9619 8.84766H17.3467Z" fill="#292C32"/>
</svg>
