<svg width="24" height="24" viewBox="0 0 24 24" fill="none" xmlns="http://www.w3.org/2000/svg">
<path d="M13.207 3.48267C13.4927 3.18288 13.9677 3.17167 14.2676 3.45728L19.5176 8.45728C19.666 8.59881 19.75 8.79513 19.75 9.00024C19.7499 9.20538 19.6661 9.40171 19.5176 9.54321L14.2676 14.5432C13.9676 14.8289 13.4927 14.8168 13.207 14.5168C12.9216 14.217 12.9328 13.7429 13.2324 13.4573L17.125 9.75024H10.5C7.87665 9.75025 5.75 11.8769 5.75 14.5002C5.75011 17.1235 7.87672 19.2502 10.5 19.2502H18.6504C19.0646 19.2503 19.4004 19.5861 19.4004 20.0002C19.4003 20.4143 19.0645 20.7502 18.6504 20.7502H10.5C7.04829 20.7502 4.25011 17.9519 4.25 14.5002C4.25 11.0485 7.04822 8.25025 10.5 8.25024H17.125L13.2324 4.54321C12.9326 4.25754 12.9214 3.78258 13.207 3.48267Z" fill="#292C32"/>
</svg>
