<svg width="24" height="24" viewBox="0 0 24 24" fill="none" xmlns="http://www.w3.org/2000/svg">
<path d="M16 2.25C16.4142 2.25 16.75 2.58579 16.75 3V4H20C21.3807 4 22.5 5.11929 22.5 6.5V19C22.5 20.3807 21.3807 21.5 20 21.5H4C2.61929 21.5 1.5 20.3807 1.5 19V6.5C1.5 5.11929 2.61929 4 4 4H7.25V3C7.25 2.58579 7.58579 2.25 8 2.25C8.41421 2.25 8.75 2.58579 8.75 3V4H15.25V3C15.25 2.58579 15.5858 2.25 16 2.25ZM4 5.5C3.44772 5.5 3 5.94772 3 6.5V19C3 19.5523 3.44772 20 4 20H20C20.5523 20 21 19.5523 21 19V6.5C21 5.94772 20.5523 5.5 20 5.5H16.75V6.5C16.75 6.91421 16.4142 7.25 16 7.25C15.5858 7.25 15.25 6.91421 15.25 6.5V5.5H8.75V6.5C8.75 6.91421 8.41421 7.25 8 7.25C7.58579 7.25 7.25 6.91421 7.25 6.5V5.5H4ZM7 14C7.55228 14 8 14.4477 8 15C8 15.5523 7.55228 16 7 16C6.44772 16 6 15.5523 6 15C6 14.4477 6.44772 14 7 14ZM11 14C11.5523 14 12 14.4477 12 15C12 15.5523 11.5523 16 11 16C10.4477 16 10 15.5523 10 15C10 14.4477 10.4477 14 11 14ZM7 10C7.55228 10 8 10.4477 8 11C8 11.5523 7.55228 12 7 12C6.44772 12 6 11.5523 6 11C6 10.4477 6.44772 10 7 10ZM11 10C11.5523 10 12 10.4477 12 11C12 11.5523 11.5523 12 11 12C10.4477 12 10 11.5523 10 11C10 10.4477 10.4477 10 11 10ZM15 10C15.5523 10 16 10.4477 16 11C16 11.5523 15.5523 12 15 12C14.4477 12 14 11.5523 14 11C14 10.4477 14.4477 10 15 10Z" fill="#292C32"/>
</svg>
