<svg width="24" height="24" viewBox="0 0 24 24" fill="none" xmlns="http://www.w3.org/2000/svg">
<path fill-rule="evenodd" clip-rule="evenodd" d="M6.53085 11.2689C6.87923 11.1528 7.15259 10.8794 7.26872 10.5311L8.28523 7.48155C8.44403 7.00515 8.88986 6.68381 9.39202 6.68381H9.60762C10.1098 6.68381 10.5556 7.00515 10.7144 7.48154L11.7309 10.5311C11.847 10.8794 12.1204 11.1528 12.4688 11.2689L15.5183 12.2854C15.9947 12.4442 16.316 12.8901 16.316 13.3922V13.6078C16.316 14.11 15.9947 14.5558 15.5183 14.7146L12.4688 15.7311C12.1204 15.8473 11.847 16.1206 11.7309 16.469L10.7144 19.5185C10.5556 19.9949 10.1098 20.3163 9.60762 20.3163H9.39202C8.88986 20.3163 8.44403 19.9949 8.28523 19.5185L7.26872 16.469C7.1526 16.1206 6.87923 15.8473 6.53085 15.7311L3.48133 14.7146C3.00493 14.5558 2.68359 14.11 2.68359 13.6078V13.3922C2.68359 12.8901 3.00493 12.4442 3.48133 12.2854L6.53085 11.2689Z" fill="#292C32"/>
<path fill-rule="evenodd" clip-rule="evenodd" d="M15.5971 5.33516C15.9455 5.21904 16.2188 4.94567 16.3349 4.5973L16.7506 3.3503C16.8581 3.02782 17.1599 2.8103 17.4998 2.8103C17.8397 2.8103 18.1415 3.02782 18.249 3.3503L18.6647 4.5973C18.7808 4.94567 19.0542 5.21904 19.4026 5.33516L20.6496 5.75083C20.972 5.85832 21.1896 6.16011 21.1896 6.50004C21.1896 6.83997 20.972 7.14175 20.6496 7.24925L19.4026 7.66491C19.0542 7.78104 18.7808 8.05441 18.6647 8.40278L18.249 9.64978C18.1415 9.97226 17.8397 10.1898 17.4998 10.1898C17.1599 10.1898 16.8581 9.97226 16.7506 9.64978L16.3349 8.40278C16.2188 8.05441 15.9455 7.78104 15.5971 7.66491L14.3501 7.24925C14.0276 7.14175 13.8101 6.83997 13.8101 6.50004C13.8101 6.16011 14.0276 5.85832 14.3501 5.75083L15.5971 5.33516Z" fill="#292C32"/>
</svg>
