<svg width="24" height="24" viewBox="0 0 24 24" fill="none" xmlns="http://www.w3.org/2000/svg">
<path d="M8.75 13C9.7165 13 10.5 13.7835 10.5 14.75V18.75C10.5 19.7165 9.7165 20.5 8.75 20.5H4.75C3.7835 20.5 3 19.7165 3 18.75V14.75C3 13.7835 3.7835 13 4.75 13H8.75ZM18.75 13C19.7165 13 20.5 13.7835 20.5 14.75V18.75C20.5 19.7165 19.7165 20.5 18.75 20.5H14.75C13.7835 20.5 13 19.7165 13 18.75V14.75C13 13.7835 13.7835 13 14.75 13H18.75ZM4.75 14.5C4.61193 14.5 4.5 14.6119 4.5 14.75V18.75C4.5 18.8881 4.61193 19 4.75 19H8.75C8.88807 19 9 18.8881 9 18.75V14.75C9 14.6119 8.88807 14.5 8.75 14.5H4.75ZM14.75 14.5C14.6119 14.5 14.5 14.6119 14.5 14.75V18.75C14.5 18.8881 14.6119 19 14.75 19H18.75C18.8881 19 19 18.8881 19 18.75V14.75C19 14.6119 18.8881 14.5 18.75 14.5H14.75ZM8.75 3C9.7165 3 10.5 3.7835 10.5 4.75V8.75C10.5 9.7165 9.7165 10.5 8.75 10.5H4.75C3.7835 10.5 3 9.7165 3 8.75V4.75C3 3.7835 3.7835 3 4.75 3H8.75ZM16.75 3C17.1642 3 17.5 3.33579 17.5 3.75V6H19.75C20.1642 6 20.5 6.33579 20.5 6.75C20.5 7.16421 20.1642 7.5 19.75 7.5H17.5V9.75C17.5 10.1642 17.1642 10.5 16.75 10.5C16.3358 10.5 16 10.1642 16 9.75V7.5H13.75C13.3358 7.5 13 7.16421 13 6.75C13 6.33579 13.3358 6 13.75 6H16V3.75C16 3.33579 16.3358 3 16.75 3ZM4.75 4.5C4.61193 4.5 4.5 4.61193 4.5 4.75V8.75C4.5 8.88807 4.61193 9 4.75 9H8.75C8.88807 9 9 8.88807 9 8.75V4.75C9 4.61193 8.88807 4.5 8.75 4.5H4.75Z" fill="#292C32"/>
</svg>
